<?xml version="1.0" encoding="UTF-8" standalone="no"?>
<svg
   version="1.2"
   viewBox="0 0 1555 181"
   width="1555"
   height="181"
   id="svg1"
   sodipodi:docname="DASH_BIG.svg"
   xmlns:inkscape="http://www.inkscape.org/namespaces/inkscape"
   xmlns:sodipodi="http://sodipodi.sourceforge.net/DTD/sodipodi-0.dtd"
   xmlns="http://www.w3.org/2000/svg"
   xmlns:svg="http://www.w3.org/2000/svg">
  <defs
     id="defs1" />
  <sodipodi:namedview
     id="namedview1"
     pagecolor="#ffffff"
     bordercolor="#000000"
     borderopacity="0.25"
     inkscape:showpageshadow="2"
     inkscape:pageopacity="0.0"
     inkscape:pagecheckerboard="0"
     inkscape:deskcolor="#d1d1d1" />
  <title
     id="title1">DoorDash_Logo-svg</title>
  <style
     id="style1">
		.s0 { fill: #ff3008 } 
	</style>
  <path
     id="Layer"
     fill-rule="evenodd"
     class="s0"
     d="m 470.6,26.4 c 36.9,0 64.8,28.6 64.8,64.6 0,36 -27.9,64.8 -64.8,64.8 h -43.7 q -0.6,0 -1.2,-0.3 -0.5,-0.2 -1,-0.7 -0.4,-0.4 -0.7,-1 -0.2,-0.6 -0.2,-1.2 V 29.7 c 0,-1.8 1.4,-3.2 3.1,-3.2 z m 0,24.9 q 3.8,0 7.6,0.8 3.7,0.7 7.2,2.2 3.5,1.5 6.6,3.7 3.1,2.2 5.7,4.9 2.7,2.9 4.7,6.1 2.1,3.3 3.5,6.9 1.3,3.6 2,7.4 0.6,3.9 0.5,7.7 0.1,3.9 -0.6,7.7 -0.7,3.8 -2.1,7.4 -1.4,3.6 -3.4,6.8 -2.1,3.3 -4.7,6.1 -2.6,2.7 -5.7,4.9 -3.1,2.2 -6.6,3.7 -3.5,1.6 -7.2,2.4 -3.7,0.8 -7.5,0.8 H 450.9 V 51.3 c 0,0 19.7,0 19.7,0 z M 699,91 c 0,-37.3 -30.6,-67.5 -68.4,-67.5 -37.8,0 -68.3,30.2 -68.3,67.5 0,37.4 30.5,67.6 68.3,67.6 37.8,0 68.4,-30.2 68.4,-67.6 z m -109.8,0 c 0.1,-17.2 10.2,-32.7 25.7,-39.2 3.7,-1.6 7.7,-2.6 11.8,-3 4,-0.4 8.2,-0.2 12.2,0.6 4,0.8 7.8,2.3 11.4,4.2 3.6,2 6.8,4.5 9.7,7.5 2.8,3 5.3,6.4 7.2,10.1 1.9,3.7 3.3,7.7 4.1,11.8 0.7,4.1 0.9,8.2 0.5,12.4 -0.4,4.1 -1.4,8.2 -3,12.1 -6.4,15.8 -21.6,26.2 -38.3,26.1 -22.8,-0.1 -41.3,-19.1 -41.3,-42.6 z m 272.5,0 c 0,-37.3 -30.6,-67.5 -68.5,-67.5 -37.8,0 -68.4,30.2 -68.4,67.5 0,37.4 30.6,67.6 68.4,67.6 37.9,0 68.5,-30.2 68.5,-67.6 z m -76.5,41.8 q -4.1,-0.8 -7.8,-2.4 -3.8,-1.6 -7.2,-4 -3.4,-2.3 -6.2,-5.2 c -7.8,-8 -12.2,-18.9 -12.2,-30.2 0,-23.4 18.6,-42.4 41.4,-42.4 22.8,0 41.4,19 41.4,42.5 0,23.4 -18.5,42.5 -41.3,42.5 q -4.1,0 -8.1,-0.8 z m 112.2,19.7 q 0,0.6 0.3,1.2 0.2,0.6 0.6,1.1 0.5,0.4 1.1,0.7 0.5,0.2 1.2,0.2 h 20.5 q 0.6,0 1.2,-0.2 0.5,-0.3 1,-0.7 0.4,-0.5 0.7,-1.1 0.2,-0.6 0.2,-1.2 v -41.8 h 23.4 l 23.3,43.5 q 0.2,0.4 0.5,0.8 0.3,0.3 0.7,0.5 0.4,0.2 0.8,0.4 0.4,0.1 0.9,0.1 H 995 q 0.5,0 0.9,-0.1 0.5,-0.1 0.9,-0.3 0.3,-0.2 0.7,-0.5 0.3,-0.3 0.5,-0.7 0.2,-0.4 0.3,-0.8 0.1,-0.5 0.1,-0.9 0,-0.5 -0.1,-0.9 -0.2,-0.5 -0.4,-0.8 L 973.7,106.9 C 987.6,99.8 996.3,85.1 996.1,69 996.1,45.4 978,26.5 953,26.5 h -52.6 c -1.7,0 -3.1,1.5 -3.1,3.2 0,0 0.1,122.8 0.1,122.8 z M 952.2,51.4 q 1.7,-0.1 3.4,0.2 1.7,0.3 3.2,0.9 1.6,0.7 3,1.6 1.4,1 2.6,2.2 1.2,1.3 2.2,2.7 0.9,1.5 1.5,3.1 0.7,1.6 1,3.4 0.2,1.7 0.2,3.4 c -0.1,4.6 -1.9,8.9 -5.1,12.1 q -1.2,1.1 -2.6,2 -1.4,0.9 -2.9,1.5 -1.6,0.6 -3.2,0.9 -1.7,0.2 -3.3,0.2 H 924.3 V 51.3 h 27.9 z m 90.6,-24.2 c -1.8,0 -3.2,1.4 -3.2,3.2 v 122.9 q 0,0.6 0.2,1.2 0.3,0.6 0.7,1 0.5,0.5 1,0.7 0.6,0.3 1.3,0.3 h 43.5 c 36.8,0 64.7,-28.7 64.7,-64.7 0,-36.1 -27.9,-64.8 -64.7,-64.8 z m 43.5,24.8 q 3.8,0 7.5,0.8 3.7,0.7 7.2,2.2 3.5,1.5 6.7,3.7 3.1,2.2 5.7,4.9 2.6,2.9 4.7,6.1 2.1,3.3 3.4,6.9 1.4,3.7 2,7.5 0.7,3.8 0.6,7.7 0,3.8 -0.7,7.6 -0.7,3.8 -2.1,7.4 -1.4,3.6 -3.4,6.8 -2.1,3.3 -4.7,6.1 -2.6,2.8 -5.7,4.9 -3.1,2.2 -6.6,3.8 -3.4,1.5 -7.1,2.3 -3.8,0.8 -7.5,0.8 h -19.8 V 52 Z m 171.3,73.2 10,28.3 q 0.1,0.5 0.4,0.9 0.3,0.5 0.8,0.8 0.4,0.3 0.9,0.4 0.5,0.2 1,0.1 h 21.7 q 0.4,0.1 0.9,0 0.4,-0.1 0.7,-0.2 0.4,-0.2 0.7,-0.5 0.4,-0.3 0.6,-0.6 0.2,-0.4 0.4,-0.8 0.1,-0.4 0.1,-0.8 0.1,-0.4 0,-0.8 -0.1,-0.4 -0.2,-0.8 l -47,-122.8 q -0.2,-0.4 -0.5,-0.9 -0.3,-0.4 -0.7,-0.6 -0.4,-0.3 -0.9,-0.5 -0.5,-0.1 -1,-0.1 h -24.4 q -0.5,0 -1,0.1 -0.4,0.2 -0.9,0.5 -0.4,0.2 -0.7,0.6 -0.3,0.5 -0.5,0.9 l -46.9,122.8 q -0.2,0.4 -0.3,0.8 -0.1,0.4 0,0.8 0,0.4 0.2,0.8 0.1,0.4 0.3,0.8 0.3,0.3 0.6,0.6 0.3,0.3 0.7,0.5 0.3,0.1 0.8,0.2 0.4,0.1 0.8,0.1 h 21.7 q 0.5,0 1,-0.2 0.5,-0.1 1,-0.4 0.4,-0.3 0.7,-0.7 0.3,-0.5 0.5,-1 l 10,-28.3 c 0,0 48.5,0 48.5,0 z m -9,-24 h -30.5 l 15.3,-42.5 z m 72.1,-39.6 c 0,46.2 63.7,32.3 63.7,56.4 0,9.3 -8.8,16.7 -22.3,16.7 q -3.9,-0.1 -7.6,-0.9 -3.8,-0.7 -7.3,-2.2 -3.6,-1.5 -6.7,-3.6 -3.2,-2.2 -6,-4.9 -0.4,-0.4 -1,-0.7 -0.6,-0.3 -1.2,-0.3 -0.7,0 -1.3,0.3 -0.6,0.3 -1,0.7 l -11.6,12 q -0.5,0.5 -0.8,1.1 -0.3,0.6 -0.3,1.3 0,0.6 0.3,1.3 0.3,0.6 0.8,1 c 2.9,3 6.2,5.7 9.7,8.1 3.5,2.3 7.2,4.3 11.1,6 3.9,1.6 8,2.8 12.1,3.6 4.1,0.8 8.4,1.2 12.6,1.1 30.4,0 47.7,-17.7 47.7,-41.1 0,-46.3 -63.8,-32.4 -63.8,-56.4 0,-7.5 8,-13.9 18.8,-13.9 q 2.9,0 5.7,0.6 2.8,0.6 5.5,1.7 2.7,1.1 5.1,2.6 2.4,1.6 4.6,3.6 0.4,0.4 1,0.7 0.5,0.2 1.2,0.2 0.6,0 1.2,-0.2 0.6,-0.3 1,-0.7 l 12,-12.3 q 0.5,-0.5 0.8,-1.1 0.2,-0.6 0.2,-1.3 0,-0.7 -0.2,-1.3 -0.3,-0.6 -0.8,-1.1 -3.9,-3.7 -8.4,-6.6 -4.6,-2.9 -9.6,-4.8 -5.1,-2 -10.4,-2.9 -5.3,-0.9 -10.7,-0.8 c -27,0 -44.1,17.6 -44.1,37.9 z m 206.6,-32 v 48.6 h -54 V 29.6 q 0,-0.6 -0.2,-1.2 -0.3,-0.6 -0.7,-1 -0.4,-0.5 -1,-0.7 -0.6,-0.3 -1.2,-0.3 h -20.5 q -0.6,0 -1.2,0.3 -0.6,0.2 -1,0.7 -0.5,0.4 -0.7,1 -0.2,0.6 -0.2,1.2 v 122.7 c 0,1.8 1.4,3.3 3.1,3.3 h 20.5 c 1.7,0 3.1,-1.5 3.1,-3.3 V 103 h 54 v 49.3 c 0,1.8 1.4,3.3 3.1,3.3 h 20.5 c 1.7,0 3.1,-1.5 3.1,-3.3 V 29.6 q 0,-0.6 -0.2,-1.2 -0.2,-0.6 -0.7,-1 -0.4,-0.5 -1,-0.7 -0.6,-0.3 -1.2,-0.3 h -20.5 q -0.6,0 -1.2,0.3 -0.6,0.2 -1,0.7 -0.4,0.4 -0.7,1 -0.2,0.6 -0.2,1.2 z M 308.8,42.8 C 294.6,16.4 266.8,0 236.6,0.1 H 7.9 Q 6.7,0.1 5.6,0.4 4.5,0.7 3.5,1.4 2.6,2 1.8,2.9 1.1,3.8 0.6,4.9 0.2,6 0.1,7.1 0,8.3 0.2,9.4 q 0.2,1.1 0.8,2.1 0.5,1 1.3,1.8 l 49.9,49.6 c 4.4,4.4 10.4,6.8 16.6,6.8 H 230 c 11.5,-0.1 20.9,9 21.1,20.4 0.1,11.3 -9.1,20.6 -20.6,20.8 H 119.3 q -1.2,0 -2.3,0.3 -1.1,0.3 -2.1,1 -0.9,0.6 -1.7,1.5 -0.7,0.9 -1.1,2 -0.5,1 -0.6,2.2 -0.1,1.1 0.1,2.3 0.2,1.1 0.8,2.1 0.5,1 1.3,1.8 l 49.9,49.6 q 1.6,1.7 3.6,2.9 1.9,1.3 4,2.2 2.2,0.9 4.4,1.3 2.3,0.5 4.6,0.5 h 50.3 c 65.4,0 114.9,-69.2 78.3,-137.8 z" />
</svg>
