<svg class="h-svgo-icon h-svgo-icon--logo" data-v-80f843ad="" data-v-adc70120="" fill="none" style="fill:var(--neutral--1000);color:var(--neutral--1000);height:30;width:147;" viewBox="0 0 147 30" xmlns="http://www.w3.org/2000/svg"><g fill="#1d1e20"><path clip-rule="evenodd" d="M62.065 18.124c.31-.795.465-1.717.465-2.766s-.158-1.97-.474-2.766c-.316-.796-.75-1.465-1.3-2.007a5.346 5.346 0 0 0-1.93-1.22 6.758 6.758 0 0 0-2.352-.406 6.58 6.58 0 0 0-2.31.407 5.44 5.44 0 0 0-1.93 1.22c-.556.541-.998 1.21-1.326 2.006-.328.795-.492 1.717-.492 2.766s.159 1.971.475 2.766c.316.796.748 1.462 1.299 1.997.55.537 1.194.94 1.931 1.211a6.755 6.755 0 0 0 2.353.407c.854 0 1.653-.135 2.396-.407a5.213 5.213 0 0 0 1.922-1.21c.538-.536.963-1.202 1.273-1.998zm-8.603-1.14a5.603 5.603 0 0 1-.219-1.626c0-.589.073-1.128.22-1.618a3.71 3.71 0 0 1 .632-1.254 2.882 2.882 0 0 1 1.01-.814c.397-.194.853-.291 1.369-.291.503 0 .956.094 1.36.283.404.188.743.456 1.018.804.275.348.486.766.632 1.255.147.489.22 1.034.22 1.635 0 .6-.073 1.143-.22 1.626a3.724 3.724 0 0 1-.632 1.246 2.775 2.775 0 0 1-1.018.804c-.404.19-.857.284-1.36.284-.516 0-.972-.094-1.37-.284a2.788 2.788 0 0 1-1.01-.804 3.718 3.718 0 0 1-.632-1.246z" fill-rule="evenodd"></path><path d="M69.417 19.388c.386 0 .705-.032.956-.097.252-.065.454-.153.606-.265a.886.886 0 0 0 .316-.398c.059-.153.088-.324.088-.512 0-.4-.188-.734-.562-.999-.374-.265-1.018-.55-1.93-.858-.399-.14-.797-.303-1.195-.486s-.755-.412-1.07-.689a3.293 3.293 0 0 1-.773-1.008c-.2-.394-.298-.874-.298-1.44s.105-1.075.315-1.53c.211-.453.51-.839.896-1.157a4.089 4.089 0 0 1 1.404-.734c.55-.17 1.17-.256 1.861-.256.82 0 1.528.089 2.125.265.596.177 1.088.372 1.474.584l-.79 2.174a7.509 7.509 0 0 0-1.132-.469c-.416-.135-.916-.203-1.501-.203-.656 0-1.127.092-1.414.274-.286.183-.43.463-.43.84 0 .224.053.413.158.565.105.154.255.292.448.416.193.123.415.236.667.335.251.1.53.204.834.31.632.236 1.182.468 1.65.698.468.23.858.498 1.168.804.31.307.541.666.693 1.079.152.413.228.913.228 1.502 0 1.143-.398 2.03-1.194 2.66-.795.631-1.995.946-3.598.946a9.454 9.454 0 0 1-2.607-.336 6.587 6.587 0 0 1-.86-.3 6.492 6.492 0 0 1-.606-.3l.772-2.192c.363.2.81.38 1.343.538.533.16 1.185.24 1.958.24zM86.275 9.242v2.351h-3.67v9.899h-2.738v-9.899h-3.67v-2.35zM89.317 21.492h2.739V9.242h-2.739zM104.315 21.492a61.74 61.74 0 0 0-2.545-4.154 42.455 42.455 0 0 0-2.915-3.871v8.025h-2.703V9.242h2.23c.385.389.813.866 1.28 1.432.469.566.945 1.17 1.432 1.812.485.642.968 1.308 1.448 1.997.48.69.93 1.352 1.352 1.988V9.242h2.721v12.25zM116.644 11.363c-1.275 0-2.197.357-2.765 1.07-.568.713-.851 1.688-.851 2.925 0 .6.07 1.146.21 1.635.141.489.352.91.632 1.264.281.353.632.628 1.054.822.421.194.912.292 1.474.292.304 0 .565-.006.782-.018a3.63 3.63 0 0 0 .57-.07v-4.26h2.739v6.062c-.328.13-.854.268-1.58.415-.726.147-1.621.222-2.686.222-.913 0-1.741-.142-2.484-.425a5.181 5.181 0 0 1-1.905-1.237c-.526-.542-.933-1.208-1.22-1.998-.287-.789-.43-1.69-.43-2.704 0-1.025.158-1.932.474-2.722.316-.79.748-1.459 1.299-2.007a5.465 5.465 0 0 1 1.94-1.245 6.625 6.625 0 0 1 2.378-.425 9.575 9.575 0 0 1 2.748.38 5.459 5.459 0 0 1 1.29.557l-.79 2.21a7.144 7.144 0 0 0-1.29-.522 5.454 5.454 0 0 0-1.589-.22zM124.321 21.492V9.242h8.216v2.316h-5.477v2.403h4.863v2.263h-4.863v2.952h5.881v2.316z"></path><path clip-rule="evenodd" d="M144.006 10.081c-.971-.654-2.37-.98-4.196-.98-.503 0-1.074.023-1.711.07-.638.047-1.256.13-1.852.247v12.074h2.738v-4.473h1.352c.235.283.47.599.705.947a31.343 31.343 0 0 1 1.419 2.306c.228.413.455.819.678 1.22h3.061c-.21-.448-.438-.904-.684-1.37-.246-.466-.5-.913-.764-1.343a30.04 30.04 0 0 0-.799-1.238 16.894 16.894 0 0 0-.772-1.052c.738-.306 1.302-.727 1.694-1.263.393-.536.588-1.235.588-2.095 0-1.38-.486-2.395-1.457-3.05zm-4.573 1.388c.158-.011.336-.017.535-.017.878 0 1.542.126 1.993.38.451.253.676.68.676 1.281 0 .625-.222 1.067-.667 1.326-.445.26-1.182.388-2.212.388h-.773v-3.323c.141-.01.29-.023.448-.035z" fill-rule="evenodd"></path><path d="M44.002 9.341h2.756v12.207h-2.756v-5.179h-4.627v5.179H36.62V9.34h2.755v4.668h4.627z"></path><path clip-rule="evenodd" d="M17.817.798v8.73l7.053 4.124v-9.26zM0 .798v13.699h22.937l-6.979-3.836-9.09-.004V4.485zM17.817 26.27v-6.118l-9.16-.007c.008.041-7.095-3.897-7.095-3.897l23.308.11v13.699zM0 17.32v8.951l6.867 3.595v-8.52z" fill-rule="evenodd"></path></g></svg>