<?xml version="1.0" encoding="UTF-8" standalone="no"?>
<svg
   version="1.2"
   viewBox="0 0 1626 319"
   width="1626"
   height="319"
   id="svg13"
   xmlns="http://www.w3.org/2000/svg"
   xmlns:svg="http://www.w3.org/2000/svg">
  <defs
     id="defs13" />
  <title
     id="title1">robinhood-svg</title>
  <style
     id="style1">
		.s0 { fill: #000000 } 
	</style>
  <path
     id="Layer"
     fill-rule="evenodd"
     class="s0"
     d="m 459.2,166.1 c 0,49.3 -26.1,81.2 -66.6,81.2 -15.7,0 -33.6,-7.8 -43.5,-19.1 h -0.5 v 14.7 H 322.8 V 31.4 h 28.1 v 72.7 h 0.6 C 361.6,92.5 377.8,85 393.2,85 c 38.8,0 66,33.3 66,81.1 z m -28.1,0 c 0,-35.3 -15.3,-55.3 -42.9,-55.3 -21.1,0 -37.3,15.6 -37.3,36.2 v 41.2 c 0,19.1 16.2,33.6 37.3,33.6 27.6,0 42.9,-20 42.9,-55.7 z" />
  <path
     id="path1"
     fill-rule="evenodd"
     class="s0"
     d="m 231.1,247.3 c -38.7,0 -69.9,-36.3 -69.9,-81.2 0,-44.8 31.2,-81.1 69.9,-81.1 38.7,0 70,36.3 70,81.1 0,44.9 -31.3,81.2 -70,81.2 z m 42.2,-81 c 0,-30.7 -18.9,-55.5 -42.2,-55.5 -23.3,0 -42.1,24.8 -42.1,55.5 0,30.7 18.8,55.5 42.1,55.5 23.3,0 42.2,-24.8 42.2,-55.5 z" />
  <path
     id="path2"
     fill-rule="evenodd"
     class="s0"
     d="m 111,151.2 c 21.5,8 31.3,27.2 31.3,59.6 v 32.1 h -28 v -32.1 c 0,-35.4 -11.6,-48.1 -43.5,-48.1 H 29.4 v 80.2 H 0.4 V 40.1 h 79.4 c 41.7,0 68.3,22.9 68.3,58.8 0,26.5 -15.1,44.6 -37.1,52.3 z m 7.9,-49.4 C 118.9,78.3 104.7,66.4 77.2,66.4 H 29.4 v 70.5 h 48.1 c 26.9,0 41.4,-12.5 41.4,-35.1 z" />
  <path
     id="path3"
     class="s0"
     d="m 667.7,142.4 v 100.5 h -28.3 v -92.4 c 0,-26.7 -10.5,-39.4 -32.5,-39.4 -22.3,0 -36.5,13.6 -36.5,35.3 v 96.5 H 542.3 V 89.3 h 27.5 v 14.8 h 0.6 c 8.4,-11.3 25.8,-19.1 42,-19.1 33.9,0 55.3,22 55.3,57.4 z" />
  <path
     id="path4"
     fill-rule="evenodd"
     class="s0"
     d="m 1070.2,247.3 c -38.7,0 -70,-36.3 -70,-81.2 0,-44.8 31.3,-81.1 70,-81.1 38.7,0 69.9,36.3 69.9,81.1 0,44.9 -31.2,81.2 -69.9,81.2 z m 42.1,-81 c 0,-30.7 -18.8,-55.5 -42.1,-55.5 -23.3,0 -42.2,24.8 -42.2,55.5 0,30.7 18.9,55.5 42.2,55.5 23.3,0 42.1,-24.8 42.1,-55.5 z" />
  <path
     id="path5"
     fill-rule="evenodd"
     class="s0"
     d="m 1293.9,31.4 v 211.5 h -25.8 v -14.7 h -0.5 c -9.9,11.3 -27.8,19.1 -43.5,19.1 -40.5,0 -66.6,-31.9 -66.6,-81.2 0,-47.2 27.5,-81.1 66.3,-81.1 15.4,0 31.3,7.2 41.4,19.1 h 0.6 V 31.4 Z M 1265.8,147 c 0,-20.6 -16.2,-36.2 -37.3,-36.2 -27.6,0 -42.9,20 -42.9,55.3 0,35.7 15.3,55.7 42.9,55.7 21.1,0 37.3,-14.5 37.3,-33.6 z" />
  <path
     id="path6"
     fill-rule="evenodd"
     class="s0"
     d="M 912.9,247.3 C 874.2,247.3 843,211 843,166.1 843,121.3 874.2,85 912.9,85 c 38.7,0 70,36.3 70,81.1 0,44.9 -31.3,81.2 -70,81.2 z m 42.1,-81 c 0,-30.7 -18.8,-55.5 -42.1,-55.5 -23.3,0 -42.1,24.8 -42.1,55.5 0,30.7 18.8,55.5 42.1,55.5 23.3,0 42.1,-24.8 42.1,-55.5 z" />
  <path
     id="path7"
     class="s0"
     d="m 481.2,31.4 h 30.4 v 29.8 h -30.4 z" />
  <path
     id="path8"
     class="s0"
     d="M 822.7,142.1 V 242.9 H 794.6 V 149 c 0,-24 -12.2,-37.9 -33.3,-37.9 -21.4,0 -36.5,14.5 -36.5,35.3 v 96.5 H 696.7 V 31.4 h 28.1 v 73.3 h 0.6 C 733.5,93.1 750.9,85 767.9,85 c 33.6,0 54.8,22 54.8,57.1 z" />
  <path
     id="path9"
     class="s0"
     d="m 482.4,89.3 h 28.1 v 153.6 h -28.1 z" />
  <path
     id="path10"
     class="s0"
     d="m 1488.6,250.5 c 0.2,0.3 0.3,0.7 0.1,1.1 l -6.4,12.7 c -0.6,1.4 -2,2.1 -2,2.1 -8.5,4.1 -22.6,10.7 -35,16.7 l -0.3,0.1 c -6.5,3.1 -12.8,6.7 -17.7,9 l -2.2,1.1 q -0.2,0 -0.4,0 -0.4,0 -0.6,-0.2 c -0.3,-0.3 -0.4,-0.7 -0.3,-1 l 1,-2.3 c 1.2,-2.8 4,-9.7 6,-14.3 l 0.1,-0.2 q 0.6,-1.6 1.2,-2.8 c 0,0 0.6,-1.3 1.6,-1.7 18,-8.3 38.2,-15.3 51.8,-19.9 l 2.1,-0.6 c 0.3,-0.2 0.7,0 1,0.2 z" />
  <path
     id="path11"
     class="s0"
     d="m 1428.9,246.5 c -10.9,22.9 -20.8,46.3 -29.5,70 l -0.6,1.6 c -0.2,0.5 -0.6,0.8 -1.2,0.8 h -8.5 c -0.4,0 -0.8,-0.2 -1,-0.5 -0.2,-0.3 -0.3,-0.7 -0.2,-1.1 0,0 13.4,-56.7 28.3,-99.7 -6,-23.5 -10,-54.1 -10.1,-55.4 -0.2,-1.3 0,-3 0.9,-4.2 16.4,-24.5 34.3,-48.4 53.3,-71.1 0.3,-0.3 1.9,-2 4.5,-2.7 25.3,-6.1 51,-10.9 76.3,-14.4 l 1.7,-0.2 c 0.5,-0.1 1,0.1 1.2,0.6 0.2,0.4 0.2,1 -0.1,1.4 l -1.1,1.2 c -38.7,44.8 -72.3,93.9 -99.8,145.9 l -0.2,0.3 c -0.9,1.8 -5.1,9.7 -6,11.5 0,0 -5.3,10.7 -7.9,16 z" />
  <path
     id="path12"
     class="s0"
     d="m 1560.1,158.8 c 0,0 0.1,1.4 -0.5,2.4 0,0 -26.2,42.5 -37.5,64.5 -0.7,1.4 -2,2.5 -3.5,2.9 -25.7,7.5 -51.6,16.6 -76.9,27.1 l -1.5,0.6 q -0.3,0.1 -0.5,0.1 c -0.3,0 -0.6,-0.2 -0.9,-0.4 -0.3,-0.4 -0.4,-0.9 -0.2,-1.4 l 0.7,-1.5 C 1469,191.1 1506.9,133.2 1552,81 l 1.1,-1.2 c 0.3,-0.4 0.9,-0.5 1.3,-0.4 0.5,0.2 0.8,0.6 0.8,1.2 l 0.1,1.6 c 0.3,25.7 4.8,76.6 4.8,76.6 z" />
  <path
     id="path13"
     class="s0"
     d="m 1623.9,74.6 c -0.4,2 -0.9,3.3 -2.8,5.5 -16.9,19.5 -33.1,40.1 -47.9,61.2 l -0.9,1.4 c -0.3,0.3 -0.7,0.5 -1.1,0.5 q -0.2,0 -0.3,0 c -0.5,-0.2 -0.9,-0.6 -0.9,-1.1 l -0.2,-1.7 c -2.3,-25.6 -3.2,-51.9 -2.8,-78 0,-1.8 -0.7,-3.5 -2,-4.7 -1.3,-1.2 -3.1,-1.8 -4.8,-1.6 -26.3,2.9 -53.1,7.2 -79.7,12.9 l -1.9,0.4 c -0.5,0.1 -1,-0.1 -1.3,-0.6 -0.2,-0.4 -0.2,-1 0.2,-1.4 l 1.2,-1.4 c 16.5,-18.4 33.9,-36.3 51.9,-53.1 1.9,-1.8 4,-3.3 6.6,-4.3 17.6,-5.7 33.2,-8.6 46.3,-8.3 14.4,0.3 23.7,2.9 30.1,8.5 7.4,6.4 15.6,31.7 10.3,65.8 z" />
</svg>
