<svg version="1.1" viewBox="0.0 0.0 546.8503937007874 419.1994750656168" fill="none" stroke="none" stroke-linecap="square" stroke-miterlimit="10" xmlns:xlink="http://www.w3.org/1999/xlink" xmlns="http://www.w3.org/2000/svg"><clipPath id="p.0"><path d="m0 0l546.8504 0l0 419.19946l-546.8504 0l0 -419.19946z" clip-rule="nonzero"/></clipPath><g clip-path="url(#p.0)"><path fill="#000000" fill-opacity="0.0" d="m0 0l546.8504 0l0 419.19946l-546.8504 0z" fill-rule="evenodd"/><path fill="#f3f3f3" d="m34.183727 123.34466l0 0c0 -22.758644 18.449528 -41.208176 41.20817 -41.208176l164.82776 0l0 0c10.929092 0 21.410538 4.3415604 29.138565 12.069595c7.728058 7.728035 12.069611 18.209488 12.069611 29.13858l0 208.95374c0 22.758636 -18.449524 41.20816 -41.208176 41.20816l-164.82776 0c-22.758644 0 -41.20817 -18.449524 -41.20817 -41.20816z" fill-rule="evenodd"/><path stroke="#000000" stroke-width="1.0" stroke-linejoin="round" stroke-linecap="butt" d="m34.183727 123.34466l0 0c0 -22.758644 18.449528 -41.208176 41.20817 -41.208176l164.82776 0l0 0c10.929092 0 21.410538 4.3415604 29.138565 12.069595c7.728058 7.728035 12.069611 18.209488 12.069611 29.13858l0 208.95374c0 22.758636 -18.449524 41.20816 -41.208176 41.20816l-164.82776 0c-22.758644 0 -41.20817 -18.449524 -41.20817 -41.20816z" fill-rule="evenodd"/><path fill="#000000" d="m113.250114 115.969696l1.640625 0.921875q-0.5625 2.109375 -2.25 3.28125q-1.6875 1.15625 -3.875 1.15625q-2.890625 0 -4.625 -1.859375q-1.734375 -1.875 -1.734375 -4.625q0 -3.015625 1.75 -4.796875q1.75 -1.796875 4.5625 -1.796875q2.484375 0 4.171875 1.359375l0 -1.15625l1.640625 0l0 4.078125l-1.640625 0q-0.546875 -1.25 -1.6875 -1.921875q-1.125 -0.6875 -2.390625 -0.6875q-1.890625 0 -3.109375 1.375q-1.21875 1.359375 -1.21875 3.453125q0 2.140625 1.296875 3.5q1.3125 1.359375 3.09375 1.359375q1.46875 0 2.671875 -0.9375q1.203125 -0.953125 1.703125 -2.703125zm4.4712524 3.609375l0 -9.578125l-1.5625 0l0 -1.546875l3.296875 0l0 11.125l1.34375 0l0 1.546875l-4.640625 0l0 -1.546875l1.5625 0zm4.2131042 -2.859375q0 -2.046875 1.34375 -3.34375q1.359375 -1.3125 3.296875 -1.3125q1.9062424 0 3.2656174 1.296875q1.375 1.28125 1.375 3.359375q0 2.078125 -1.359375 3.375q-1.359375 1.28125 -3.2812424 1.28125q-1.96875 0 -3.3125 -1.3125q-1.328125 -1.3125 -1.328125 -3.34375zm1.84375 0q0 1.296875 0.8125 2.140625q0.8125 0.828125 1.984375 0.828125q1.203125 0 1.9999924 -0.84375q0.8125 -0.84375 0.8125 -2.125q0 -1.296875 -0.828125 -2.125q-0.8124924 -0.84375 -1.9843674 -0.84375q-1.21875 0 -2.015625 0.859375q-0.78125 0.84375 -0.78125 2.109375zm18.475792 2.859375l0 1.546875l-3.265625 0l0 -1.015625q-1.515625 1.15625 -2.90625 1.15625q-0.890625 0 -1.46875 -0.375q-0.578125 -0.390625 -0.765625 -1.0q-0.1875 -0.625 -0.1875 -1.984375l0 -4.0625l-1.25 0l0 -1.53125l2.984375 0l0 5.375q0 0.96875 0.046875 1.3125q0.0625 0.328125 0.3125 0.546875q0.265625 0.21875 0.671875 0.21875q1.203125 0 2.5625 -1.140625l0 -4.78125l-1.546875 0l0 -1.53125l3.28125 0l0 7.265625l1.53125 0zm11.7845 0l0 1.546875l-3.3125 0l0 -1.296875q-1.296875 1.4375 -3.15625 1.4375q-1.71875 0 -3.03125 -1.171875q-1.296875 -1.171875 -1.296875 -3.34375q0 -2.171875 1.34375 -3.421875q1.34375 -1.265625 3.03125 -1.265625q1.78125 0 3.109375 1.421875l0 -3.484375l-1.6875 0l0 -1.546875l3.421875 0l0 11.125l1.578125 0zm-8.9375 -2.875q0 1.46875 0.8125 2.25q0.828125 0.78125 1.984375 0.78125q1.109375 0 1.96875 -0.828125q0.859375 -0.828125 0.859375 -2.28125q0 -1.46875 -0.875 -2.203125q-0.875 -0.75 -1.96875 -0.75q-1.1875 0 -1.984375 0.875q-0.796875 0.875 -0.796875 2.15625zm10.722656 6.828125l0 -9.6875l-1.484375 0l0 -1.53125l3.21875 0l0 1.375q1.296875 -1.515625 3.140625 -1.515625q1.859375 0 3.0625 1.28125q1.21875 1.265625 1.21875 3.3125q0 2.140625 -1.328125 3.375q-1.3125 1.234375 -3.0 1.234375q-1.75 0 -3.09375 -1.34375l0 3.5l1.71875 0l0 1.546875l-5.0625 0l0 -1.546875l1.609375 0zm1.703125 -6.6875q0 0.734375 0.296875 1.40625q0.3125 0.65625 0.96875 1.109375q0.65625 0.4375 1.53125 0.4375q1.25 0 2.046875 -0.828125q0.8125 -0.828125 0.8125 -2.265625q0 -1.421875 -0.84375 -2.203125q-0.84375 -0.796875 -1.921875 -0.796875q-1.140625 0 -2.015625 0.859375q-0.875 0.859375 -0.875 2.28125zm10.410156 2.734375l0 -5.734375l-1.78125 0l0 -1.53125l3.171875 0l0 1.984375q0.28125 -0.78125 0.796875 -1.28125q0.53125 -0.515625 1.109375 -0.671875q0.578125 -0.171875 1.578125 -0.171875l0.453125 0l0 1.75l-0.34375 0q-1.328125 0 -1.984375 0.265625q-0.640625 0.265625 -0.953125 0.96875q-0.3125 0.6875 -0.3125 2.484375l0 1.9375l1.921875 0l0 1.546875l-5.4375 0l0 -1.546875l1.78125 0zm5.5477448 -2.859375q0 -2.046875 1.34375 -3.34375q1.359375 -1.3125 3.296875 -1.3125q1.90625 0 3.265625 1.296875q1.375 1.28125 1.375 3.359375q0 2.078125 -1.359375 3.375q-1.359375 1.28125 -3.28125 1.28125q-1.96875 0 -3.3125 -1.3125q-1.328125 -1.3125 -1.328125 -3.34375zm1.84375 0q0 1.296875 0.8125 2.140625q0.8125 0.828125 1.984375 0.828125q1.203125 0 2.0 -0.84375q0.8125 -0.84375 0.8125 -2.125q0 -1.296875 -0.828125 -2.125q-0.8125 -0.84375 -1.984375 -0.84375q-1.21875 0 -2.015625 0.859375q-0.78125 0.84375 -0.78125 2.109375zm8.63205 4.40625l0 -1.546875l1.578125 0l0 -9.578125l-1.578125 0l0 -1.546875l3.265625 0l0 5.109375q1.3125 -1.5 3.203125 -1.5q1.8125 0 3.046875 1.25q1.234375 1.25 1.234375 3.296875q0 1.96875 -1.203125 3.3125q-1.203125 1.34375 -3.09375 1.34375q-1.046875 0 -1.921875 -0.453125q-0.875 -0.453125 -1.265625 -1.015625l0 1.328125l-3.265625 0zm3.328125 -4.390625q0 1.375 0.84375 2.1875q0.84375 0.796875 1.9375 0.796875q1.15625 0 1.984375 -0.84375q0.84375 -0.859375 0.84375 -2.3125q0 -1.390625 -0.828125 -2.15625q-0.828125 -0.765625 -1.953125 -0.765625q-1.109375 0 -1.96875 0.796875q-0.859375 0.796875 -0.859375 2.296875zm18.23938 0.421875l-7.40625 0q0.15625 1.21875 0.953125 1.984375q0.8125 0.75 2.0625 0.75q1.8125 0 2.859375 -1.46875l1.53125 0.6875q-0.75 1.15625 -1.9375 1.71875q-1.1875 0.546875 -2.5 0.546875q-2.015625 0 -3.453125 -1.25q-1.4375 -1.265625 -1.4375 -3.40625q0 -2.03125 1.390625 -3.34375q1.40625 -1.3125 3.21875 -1.3125q1.78125 0 3.21875 1.28125q1.453125 1.28125 1.5 3.8125zm-1.78125 -1.265625q-0.1875 -0.921875 -0.96875 -1.671875q-0.78125 -0.75 -1.921875 -0.75q-1.03125 0 -1.78125 0.6875q-0.734375 0.671875 -0.890625 1.734375l5.5625 0zm4.6632996 3.6875l0 -5.734375l-1.78125 0l0 -1.53125l3.171875 0l0 1.984375q0.28125 -0.78125 0.796875 -1.28125q0.53125 -0.515625 1.109375 -0.671875q0.578125 -0.171875 1.578125 -0.171875l0.453125 0l0 1.75l-0.34375 0q-1.328125 0 -1.984375 0.265625q-0.640625 0.265625 -0.953125 0.96875q-0.3125 0.6875 -0.3125 2.484375l0 1.9375l1.921875 0l0 1.546875l-5.4375 0l0 -1.546875l1.78125 0z" fill-rule="nonzero"/><path fill="#ead1dc" d="m68.52756 170.9895l137.88977 0l0 76.25197l-137.88977 0z" fill-rule="evenodd"/><path stroke="#000000" stroke-width="1.0" stroke-linejoin="round" stroke-linecap="butt" d="m68.52756 170.9895l137.88977 0l0 76.25197l-137.88977 0z" fill-rule="evenodd"/><path fill="#000000" d="m109.6326 213.6161l0 -8.15625l-1.359375 0l0 -1.359375l3.875 0q1.71875 0 2.5625 0.25q0.859375 0.234375 1.421875 1.09375q0.578125 0.859375 0.578125 2.015625q0 0.9375 -0.375 1.671875q-0.375 0.734375 -0.9375 1.09375q-0.5625 0.34375 -1.265625 0.46875q-0.6875 0.125 -2.109375 0.125l-0.75 0l0 2.796875l1.40625 0l0 1.359375l-4.40625 0l0 -1.359375l1.359375 0zm1.640625 -4.109375l0.9375 0q1.609375 0 2.21875 -0.453125q0.625 -0.46875 0.625 -1.625q0 -0.734375 -0.328125 -1.21875q-0.328125 -0.484375 -0.8125 -0.609375q-0.484375 -0.140625 -1.625 -0.140625l-1.015625 0l0 4.046875zm7.71875 4.140625l0 -4.921875l-1.515625 0l0 -1.3125l2.703125 0l0 1.703125q0.25 -0.671875 0.6875 -1.109375q0.453125 -0.4375 0.953125 -0.578125q0.5 -0.140625 1.359375 -0.140625l0.390625 0l0 1.5l-0.296875 0q-1.140625 0 -1.703125 0.234375q-0.546875 0.21875 -0.828125 0.828125q-0.265625 0.59375 -0.265625 2.140625l0 1.65625l1.65625 0l0 1.328125l-4.65625 0l0 -1.328125l1.515625 0zm4.765625 -2.453125q0 -1.75 1.15625 -2.875q1.15625 -1.125 2.828125 -1.125q1.625 0 2.796875 1.109375q1.171875 1.109375 1.171875 2.890625q0 1.78125 -1.171875 2.890625q-1.15625 1.109375 -2.796875 1.109375q-1.6875 0 -2.84375 -1.125q-1.140625 -1.125 -1.140625 -2.875zm1.578125 0q0 1.109375 0.6875 1.828125q0.703125 0.71875 1.71875 0.71875q1.015625 0 1.703125 -0.71875q0.703125 -0.734375 0.703125 -1.828125q0 -1.109375 -0.703125 -1.828125q-0.703125 -0.71875 -1.703125 -0.71875q-1.046875 0 -1.734375 0.734375q-0.671875 0.734375 -0.671875 1.8125zm7.40625 3.78125l0 -1.328125l1.34375 0l0 -8.21875l-1.34375 0l0 -1.328125l2.796875 0l0 4.375q1.125 -1.28125 2.75 -1.28125q1.5625 0 2.609375 1.078125q1.0625 1.078125 1.0625 2.828125q0 1.6875 -1.03125 2.84375q-1.03125 1.15625 -2.65625 1.15625q-0.90625 0 -1.65625 -0.390625q-0.75 -0.390625 -1.078125 -0.875l0 1.140625l-2.796875 0zm2.84375 -3.765625q0 1.171875 0.71875 1.875q0.734375 0.6875 1.671875 0.6875q1.0 0 1.71875 -0.734375q0.71875 -0.734375 0.71875 -1.96875q0 -1.203125 -0.71875 -1.859375q-0.71875 -0.65625 -1.671875 -0.65625q-0.953125 0 -1.703125 0.6875q-0.734375 0.671875 -0.734375 1.96875zm15.6484375 0.359375l-6.359375 0q0.140625 1.046875 0.828125 1.703125q0.6875 0.640625 1.765625 0.640625q1.546875 0 2.453125 -1.25l1.3125 0.578125q-0.640625 0.984375 -1.671875 1.46875q-1.015625 0.484375 -2.125 0.484375q-1.734375 0 -2.96875 -1.078125q-1.234375 -1.09375 -1.234375 -2.921875q0 -1.75 1.203125 -2.875q1.203125 -1.125 2.75 -1.125q1.53125 0 2.765625 1.109375q1.234375 1.09375 1.28125 3.265625zm-1.53125 -1.078125q-0.15625 -0.796875 -0.828125 -1.4375q-0.671875 -0.65625 -1.640625 -0.65625q-0.890625 0 -1.53125 0.59375q-0.625 0.578125 -0.765625 1.5l4.765625 0zm13.703125 0.65625l-3.90625 0l-0.828125 2.46875l1.3125 0l0 1.359375l-4.28125 0l0 -1.359375l1.3125 0l2.96875 -8.28125l-1.3125 0l0 -1.234375l5.546875 0l0 1.234375l-1.34375 0l3.03125 8.28125l1.21875 0l0 1.359375l-4.25 0l0 -1.359375l1.34375 0l-0.8125 -2.46875zm-0.40625 -1.265625l-1.4375 -4.546875l-0.15625 0l-1.5 4.546875l3.09375 0z" fill-rule="nonzero"/><path fill="#cfe2f3" d="m380.76642 123.54068l120.06299 0l0 61.448822l-120.06299 0z" fill-rule="evenodd"/><path stroke="#000000" stroke-width="1.0" stroke-linejoin="round" stroke-linecap="butt" d="m380.76642 123.54068l120.06299 0l0 61.448822l-120.06299 0z" fill-rule="evenodd"/><path fill="#000000" d="m414.71198 158.76572l0 -8.15625l-2.25 0l0 2.78125l-1.34375 0l0 -4.140625l8.8125 0l0 4.140625l-1.34375 0l0 -2.78125l-2.234375 0l0 8.15625l1.40625 0l0 1.359375l-4.4375 0l0 -1.359375l1.390625 0zm13.2109375 0.03125l0 1.328125l-2.59375 0l0 -0.921875q-1.078125 1.046875 -2.40625 1.046875q-1.03125 0 -1.796875 -0.671875q-0.765625 -0.671875 -0.765625 -1.71875q0 -1.0625 0.8125 -1.75q0.8125 -0.703125 1.953125 -0.703125q1.0625 0 2.046875 0.640625l0 -0.75q0 -0.578125 -0.109375 -0.890625q-0.109375 -0.3125 -0.515625 -0.5625q-0.390625 -0.25 -1.046875 -0.25q-1.109375 0 -1.609375 0.890625l-1.421875 -0.375q0.9375 -1.765625 3.265625 -1.765625q0.84375 0 1.46875 0.234375q0.625 0.234375 0.921875 0.59375q0.3125 0.359375 0.40625 0.78125q0.109375 0.421875 0.109375 1.34375l0 3.5l1.28125 0zm-2.75 -1.484375q-0.953125 -0.75 -1.9375 -0.75q-0.625 0 -1.046875 0.359375q-0.40625 0.359375 -0.40625 0.921875q0 0.53125 0.359375 0.890625q0.375 0.359375 1.0 0.359375q1.078125 0 2.03125 -0.90625l0 -0.875zm4.8203125 1.484375l0 -4.921875l-1.515625 0l0 -1.3125l2.703125 0l0 1.703125q0.25 -0.671875 0.6875 -1.109375q0.453125 -0.4375 0.953125 -0.578125q0.5 -0.140625 1.359375 -0.140625l0.390625 0l0 1.5l-0.296875 0q-1.140625 0 -1.703125 0.234375q-0.546875 0.21875 -0.828125 0.828125q-0.265625 0.59375 -0.265625 2.140625l0 1.65625l1.65625 0l0 1.328125l-4.65625 0l0 -1.328125l1.515625 0zm14.1484375 -6.234375l0 1.3125l-1.359375 0l0 5.640625q0 1.140625 -0.125 1.6875q-0.109375 0.5625 -0.5625 1.125q-0.453125 0.578125 -1.359375 0.96875q-0.890625 0.390625 -2.0 0.390625q-1.671875 0 -2.984375 -1.0l0.96875 -1.078125q0.984375 0.765625 2.140625 0.765625q0.640625 0 1.1875 -0.25q0.546875 -0.25 0.8125 -0.609375q0.28125 -0.34375 0.359375 -0.65625q0.078125 -0.3125 0.078125 -1.078125l0 -0.6875q-0.359375 0.453125 -1.109375 0.859375q-0.75 0.390625 -1.640625 0.390625q-1.625 0 -2.65625 -1.125q-1.015625 -1.125 -1.015625 -2.765625q0 -1.796875 1.125 -2.90625q1.140625 -1.109375 2.625 -1.109375q1.5 0 2.671875 1.203125l0 -1.078125l2.84375 0zm-7.6875 3.859375q0 1.140625 0.671875 1.875q0.671875 0.71875 1.703125 0.71875q1.015625 0 1.75 -0.71875q0.734375 -0.734375 0.734375 -1.890625q0 -1.15625 -0.734375 -1.859375q-0.734375 -0.71875 -1.703125 -0.71875q-0.96875 0 -1.703125 0.703125q-0.71875 0.703125 -0.71875 1.890625zm16.117188 0.296875l-6.359375 0q0.140625 1.046875 0.828125 1.703125q0.6875 0.640625 1.765625 0.640625q1.546875 0 2.453125 -1.25l1.3125 0.578125q-0.640625 0.984375 -1.671875 1.46875q-1.015625 0.484375 -2.125 0.484375q-1.734375 0 -2.96875 -1.078125q-1.234375 -1.09375 -1.234375 -2.921875q0 -1.75 1.203125 -2.875q1.203125 -1.125 2.75 -1.125q1.53125 0 2.765625 1.109375q1.234375 1.09375 1.28125 3.265625zm-1.53125 -1.078125q-0.15625 -0.796875 -0.828125 -1.4375q-0.671875 -0.65625 -1.640625 -0.65625q-0.890625 0 -1.53125 0.59375q-0.625 0.578125 -0.765625 1.5l4.765625 0zm2.609375 -1.765625l0 -1.3125l0.984375 0l0 -1.171875l1.484375 -1.359375l0 2.53125l1.40625 0l0 1.3125l-1.40625 0l0 3.671875q0 0.890625 0.09375 1.09375q0.109375 0.203125 0.5 0.203125q0.40625 0 0.8125 -0.15625l0 1.359375q-0.578125 0.203125 -1.140625 0.203125q-0.6875 0 -1.109375 -0.296875q-0.421875 -0.3125 -0.53125 -0.765625q-0.109375 -0.453125 -0.109375 -1.5625l0 -3.75l-0.984375 0zm12.140625 4.921875l0 -8.21875l-1.484375 0l0 -1.3125l2.96875 0l0 9.53125l1.40625 0l0 1.328125l-4.375 0l0 -1.328125l1.484375 0z" fill-rule="nonzero"/><path fill="#cfe2f3" d="m393.6483 181.3517l120.06302 0l0 61.448822l-120.06302 0z" fill-rule="evenodd"/><path stroke="#000000" stroke-width="1.0" stroke-linejoin="round" stroke-linecap="butt" d="m393.6483 181.3517l120.06302 0l0 61.448822l-120.06302 0z" fill-rule="evenodd"/><path fill="#000000" d="m427.59384 216.57674l0 -8.15625l-2.25 0l0 2.78125l-1.34375 0l0 -4.140625l8.8125 0l0 4.140625l-1.34375 0l0 -2.78125l-2.234375 0l0 8.15625l1.40625 0l0 1.359375l-4.4375 0l0 -1.359375l1.390625 0zm13.2109375 0.03125l0 1.328125l-2.59375 0l0 -0.921875q-1.078125 1.046875 -2.40625 1.046875q-1.03125 0 -1.796875 -0.671875q-0.765625 -0.671875 -0.765625 -1.71875q0 -1.0625 0.8125 -1.75q0.8125 -0.703125 1.953125 -0.703125q1.0625 0 2.046875 0.640625l0 -0.75q0 -0.578125 -0.109375 -0.890625q-0.109375 -0.3125 -0.515625 -0.5625q-0.390625 -0.25 -1.046875 -0.25q-1.109375 0 -1.609375 0.890625l-1.421875 -0.375q0.9375 -1.765625 3.265625 -1.765625q0.84375 0 1.46875 0.234375q0.625 0.234375 0.921875 0.59375q0.3125 0.359375 0.40625 0.78125q0.109375 0.421875 0.109375 1.34375l0 3.5l1.28125 0zm-2.75 -1.484375q-0.953125 -0.75 -1.9375 -0.75q-0.625 0 -1.046875 0.359375q-0.40625 0.359375 -0.40625 0.921875q0 0.53125 0.359375 0.890625q0.375 0.359375 1.0 0.359375q1.078125 0 2.03125 -0.90625l0 -0.875zm4.8203125 1.484375l0 -4.921875l-1.515625 0l0 -1.3125l2.703125 0l0 1.703125q0.25 -0.671875 0.6875 -1.109375q0.453125 -0.4375 0.953125 -0.578125q0.5 -0.140625 1.359375 -0.140625l0.390625 0l0 1.5l-0.296875 0q-1.140625 0 -1.703125 0.234375q-0.546875 0.21875 -0.828125 0.828125q-0.265625 0.59375 -0.265625 2.140625l0 1.65625l1.65625 0l0 1.328125l-4.65625 0l0 -1.328125l1.515625 0zm14.1484375 -6.234375l0 1.3125l-1.359375 0l0 5.640625q0 1.140625 -0.125 1.6875q-0.109375 0.5625 -0.5625 1.125q-0.453125 0.578125 -1.359375 0.96875q-0.890625 0.390625 -2.0 0.390625q-1.671875 0 -2.984375 -1.0l0.96875 -1.078125q0.984375 0.765625 2.140625 0.765625q0.640625 0 1.1875 -0.25q0.546875 -0.25 0.8125 -0.609375q0.28125 -0.34375 0.359375 -0.65625q0.078125 -0.3125 0.078125 -1.078125l0 -0.6875q-0.359375 0.453125 -1.109375 0.859375q-0.75 0.390625 -1.640625 0.390625q-1.625 0 -2.65625 -1.125q-1.015625 -1.125 -1.015625 -2.765625q0 -1.796875 1.125 -2.90625q1.140625 -1.109375 2.625 -1.109375q1.5 0 2.671875 1.203125l0 -1.078125l2.84375 0zm-7.6875 3.859375q0 1.140625 0.671875 1.875q0.671875 0.71875 1.703125 0.71875q1.015625 0 1.75 -0.71875q0.734375 -0.734375 0.734375 -1.890625q0 -1.15625 -0.734375 -1.859375q-0.734375 -0.71875 -1.703125 -0.71875q-0.96875 0 -1.703125 0.703125q-0.71875 0.703125 -0.71875 1.890625zm16.117188 0.296875l-6.359375 0q0.140625 1.046875 0.828125 1.703125q0.6875 0.640625 1.765625 0.640625q1.546875 0 2.453125 -1.25l1.3125 0.578125q-0.640625 0.984375 -1.671875 1.46875q-1.015625 0.484375 -2.125 0.484375q-1.734375 0 -2.96875 -1.078125q-1.234375 -1.09375 -1.234375 -2.921875q0 -1.75 1.203125 -2.875q1.203125 -1.125 2.75 -1.125q1.53125 0 2.765625 1.109375q1.234375 1.09375 1.28125 3.265625zm-1.53125 -1.078125q-0.15625 -0.796875 -0.828125 -1.4375q-0.671875 -0.65625 -1.640625 -0.65625q-0.890625 0 -1.53125 0.59375q-0.625 0.578125 -0.765625 1.5l4.765625 0zm2.609375 -1.765625l0 -1.3125l0.984375 0l0 -1.171875l1.484375 -1.359375l0 2.53125l1.40625 0l0 1.3125l-1.40625 0l0 3.671875q0 0.890625 0.09375 1.09375q0.109375 0.203125 0.5 0.203125q0.40625 0 0.8125 -0.15625l0 1.359375q-0.578125 0.203125 -1.140625 0.203125q-0.6875 0 -1.109375 -0.296875q-0.421875 -0.3125 -0.53125 -0.765625q-0.109375 -0.453125 -0.109375 -1.5625l0 -3.75l-0.984375 0zm16.03125 2.359375l-0.09375 3.890625l-6.953125 0q0 -1.125 0.40625 -2.140625q0.40625 -1.03125 1.125 -1.796875q0.734375 -0.765625 2.234375 -1.859375q0.953125 -0.703125 1.28125 -1.15625q0.34375 -0.46875 0.34375 -1.09375q0 -0.75 -0.484375 -1.234375q-0.46875 -0.484375 -1.3125 -0.484375q-0.96875 0 -1.421875 0.546875q-0.453125 0.546875 -0.453125 1.796875q0 0.3125 0.015625 0.59375l-1.453125 0q0 -0.28125 0 -0.453125q0 -1.765625 0.828125 -2.765625q0.84375 -1.0 2.453125 -1.0q1.640625 0 2.5 0.859375q0.875 0.84375 0.875 2.09375q0 1.03125 -0.578125 1.765625q-0.5625 0.734375 -2.171875 1.875q-1.5625 1.109375 -2.046875 1.8125q-0.484375 0.6875 -0.5625 1.21875l4.09375 0l0.0625 -2.46875l1.3125 0z" fill-rule="nonzero"/><path fill="#000000" fill-opacity="0.0" d="m206.41733 209.11548l174.36221 -54.83464" fill-rule="evenodd"/><path stroke="#000000" stroke-width="1.0" stroke-linejoin="round" stroke-linecap="butt" d="m206.41733 209.11548l168.63858 -53.034622" fill-rule="evenodd"/><path fill="#000000" stroke="#000000" stroke-width="1.0" stroke-linecap="butt" d="m375.55142 157.6565l3.8335266 -2.937088l-4.824585 -0.21420288z" fill-rule="evenodd"/><path fill="#000000" fill-opacity="0.0" d="m206.41733 209.11548l187.24408 2.9606323" fill-rule="evenodd"/><path stroke="#000000" stroke-width="1.0" stroke-linejoin="round" stroke-linecap="butt" d="m206.41733 209.11548l181.24484 2.8657837" fill-rule="evenodd"/><path fill="#000000" stroke="#000000" stroke-width="1.0" stroke-linecap="butt" d="m387.63605 213.63278l4.5636597 -1.579773l-4.5114136 -1.7232819z" fill-rule="evenodd"/><path fill="#cfe2f3" d="m404.96588 231.25984l120.06299 0l0 61.448807l-120.06299 0z" fill-rule="evenodd"/><path stroke="#000000" stroke-width="1.0" stroke-linejoin="round" stroke-linecap="butt" d="m404.96588 231.25984l120.06299 0l0 61.448807l-120.06299 0z" fill-rule="evenodd"/><path fill="#000000" d="m437.49347 266.48486l0 -8.15625l-2.25 0l0 2.78125l-1.34375 0l0 -4.140625l8.8125 0l0 4.140625l-1.34375 0l0 -2.78125l-2.234375 0l0 8.15625l1.40625 0l0 1.359375l-4.4375 0l0 -1.359375l1.390625 0zm13.2109375 0.03125l0 1.328125l-2.59375 0l0 -0.921875q-1.078125 1.046875 -2.40625 1.046875q-1.03125 0 -1.796875 -0.671875q-0.765625 -0.671875 -0.765625 -1.71875q0 -1.0625 0.8125 -1.75q0.8125 -0.703125 1.953125 -0.703125q1.0625 0 2.046875 0.640625l0 -0.75q0 -0.578125 -0.109375 -0.890625q-0.109375 -0.3125 -0.515625 -0.5625q-0.390625 -0.25 -1.046875 -0.25q-1.109375 0 -1.609375 0.890625l-1.421875 -0.375q0.9375 -1.765625 3.265625 -1.765625q0.84375 0 1.46875 0.234375q0.625 0.234375 0.921875 0.59375q0.3125 0.359375 0.40625 0.78125q0.109375 0.421875 0.109375 1.34375l0 3.5l1.28125 0zm-2.75 -1.484375q-0.953125 -0.75 -1.9375 -0.75q-0.625 0 -1.046875 0.359375q-0.40625 0.359375 -0.40625 0.921875q0 0.53125 0.359375 0.890625q0.375 0.359375 1.0 0.359375q1.078125 0 2.03125 -0.90625l0 -0.875zm4.8203125 1.484375l0 -4.921875l-1.515625 0l0 -1.3125l2.703125 0l0 1.703125q0.25 -0.671875 0.6875 -1.109375q0.453125 -0.4375 0.953125 -0.578125q0.5 -0.140625 1.359375 -0.140625l0.390625 0l0 1.5l-0.296875 0q-1.140625 0 -1.703125 0.234375q-0.546875 0.21875 -0.828125 0.828125q-0.265625 0.59375 -0.265625 2.140625l0 1.65625l1.65625 0l0 1.328125l-4.65625 0l0 -1.328125l1.515625 0zm14.1484375 -6.234375l0 1.3125l-1.359375 0l0 5.640625q0 1.140625 -0.125 1.6875q-0.109375 0.5625 -0.5625 1.125q-0.453125 0.578125 -1.359375 0.96875q-0.890625 0.390625 -2.0 0.390625q-1.671875 0 -2.984375 -1.0l0.96875 -1.078125q0.984375 0.765625 2.140625 0.765625q0.640625 0 1.1875 -0.25q0.546875 -0.25 0.8125 -0.609375q0.28125 -0.34375 0.359375 -0.65625q0.078125 -0.3125 0.078125 -1.078125l0 -0.6875q-0.359375 0.453125 -1.109375 0.859375q-0.75 0.390625 -1.640625 0.390625q-1.625 0 -2.65625 -1.125q-1.015625 -1.125 -1.015625 -2.765625q0 -1.796875 1.125 -2.90625q1.140625 -1.109375 2.625 -1.109375q1.5 0 2.671875 1.203125l0 -1.078125l2.84375 0zm-7.6875 3.859375q0 1.140625 0.671875 1.875q0.671875 0.71875 1.703125 0.71875q1.015625 0 1.75 -0.71875q0.734375 -0.734375 0.734375 -1.890625q0 -1.15625 -0.734375 -1.859375q-0.734375 -0.71875 -1.703125 -0.71875q-0.96875 0 -1.703125 0.703125q-0.71875 0.703125 -0.71875 1.890625zm16.117188 0.296875l-6.359375 0q0.140625 1.046875 0.828125 1.703125q0.6875 0.640625 1.765625 0.640625q1.546875 0 2.453125 -1.25l1.3125 0.578125q-0.640625 0.984375 -1.671875 1.46875q-1.015625 0.484375 -2.125 0.484375q-1.734375 0 -2.96875 -1.078125q-1.234375 -1.09375 -1.234375 -2.921875q0 -1.75 1.203125 -2.875q1.203125 -1.125 2.75 -1.125q1.53125 0 2.765625 1.109375q1.234375 1.09375 1.28125 3.265625zm-1.53125 -1.078125q-0.15625 -0.796875 -0.828125 -1.4375q-0.671875 -0.65625 -1.640625 -0.65625q-0.890625 0 -1.53125 0.59375q-0.625 0.578125 -0.765625 1.5l4.765625 0zm2.609375 -1.765625l0 -1.3125l0.984375 0l0 -1.171875l1.484375 -1.359375l0 2.53125l1.40625 0l0 1.3125l-1.40625 0l0 3.671875q0 0.890625 0.09375 1.09375q0.109375 0.203125 0.5 0.203125q0.40625 0 0.8125 -0.15625l0 1.359375q-0.578125 0.203125 -1.140625 0.203125q-0.6875 0 -1.109375 -0.296875q-0.421875 -0.3125 -0.53125 -0.765625q-0.109375 -0.453125 -0.109375 -1.5625l0 -3.75l-0.984375 0zm9.984375 4.890625l0 -8.15625l-1.5625 0l0 -1.359375l3.71875 0l4.765625 8.453125l0 -7.09375l-1.546875 0l0 -1.359375l4.46875 0l0 1.359375l-1.609375 0l0 9.625l-1.6875 0l-5.203125 -9.28125l0 7.8125l1.546875 0l0 1.359375l-4.453125 0l0 -1.359375l1.5625 0z" fill-rule="nonzero"/><path fill="#000000" fill-opacity="0.0" d="m206.41733 209.11548l198.55118 52.881897" fill-rule="evenodd"/><path stroke="#000000" stroke-width="1.0" stroke-linejoin="round" stroke-linecap="butt" d="m206.41733 209.11548l192.75327 51.337677" fill-rule="evenodd"/><path fill="#000000" stroke="#000000" stroke-width="1.0" stroke-linecap="butt" d="m398.7455 262.04926l4.8103333 -0.4281311l-3.9601135 -2.764038z" fill-rule="evenodd"/><path fill="#d9d2e9" d="m233.68504 156.21796l0 0c0 -2.9223938 2.369049 -5.291443 5.291443 -5.291443l21.165146 0l0 0c1.4033813 0 2.7492676 0.55747986 3.7416077 1.54982c0.9923401 0.9923401 1.5498352 2.3382416 1.5498352 3.741623l0 105.795074c0 2.9223633 -2.3690796 5.291443 -5.291443 5.291443l-21.165146 0c-2.9223938 0 -5.291443 -2.3690796 -5.291443 -5.291443z" fill-rule="evenodd"/><path stroke="#000000" stroke-width="1.0" stroke-linejoin="round" stroke-linecap="butt" d="m233.68504 156.21796l0 0c0 -2.9223938 2.369049 -5.291443 5.291443 -5.291443l21.165146 0l0 0c1.4033813 0 2.7492676 0.55747986 3.7416077 1.54982c0.9923401 0.9923401 1.5498352 2.3382416 1.5498352 3.741623l0 105.795074c0 2.9223633 -2.3690796 5.291443 -5.291443 5.291443l-21.165146 0c-2.9223938 0 -5.291443 -2.3690796 -5.291443 -5.291443z" fill-rule="evenodd"/><path fill="#000000" d="m244.71922 162.65349l0 -1.3125l0.984375 0l0 -1.171875l1.484375 -1.359375l0 2.53125l1.40625 0l0 1.3125l-1.40625 0l0 3.671875q0 0.890625 0.09375 1.09375q0.109375 0.203125 0.5 0.203125q0.40625 0 0.8125 -0.15625l0 1.359375q-0.578125 0.203125 -1.140625 0.203125q-0.6875 0 -1.109375 -0.296875q-0.421875 -0.3125 -0.53125 -0.765625q-0.109375 -0.453125 -0.109375 -1.5625l0 -3.75l-0.984375 0z" fill-rule="nonzero"/><path fill="#000000" d="m252.53172 182.57536l0 1.328125l-2.59375 0l0 -0.921875q-1.078125 1.046875 -2.40625 1.046875q-1.03125 0 -1.796875 -0.671875q-0.765625 -0.671875 -0.765625 -1.71875q0 -1.0625 0.8125 -1.75q0.8125 -0.703125 1.953125 -0.703125q1.0625 0 2.046875 0.640625l0 -0.75q0 -0.578125 -0.109375 -0.890625q-0.109375 -0.3125 -0.515625 -0.5625q-0.390625 -0.25 -1.046875 -0.25q-1.109375 0 -1.609375 0.890625l-1.421875 -0.375q0.9375 -1.765625 3.265625 -1.765625q0.84375 0 1.46875 0.234375q0.625 0.234375 0.921875 0.59375q0.3125 0.359375 0.40625 0.78125q0.109375 0.421875 0.109375 1.34375l0 3.5l1.28125 0zm-2.75 -1.484375q-0.953125 -0.75 -1.9375 -0.75q-0.625 0 -1.046875 0.359375q-0.40625 0.359375 -0.40625 0.921875q0 0.53125 0.359375 0.890625q0.375 0.359375 1.0 0.359375q1.078125 0 2.03125 -0.90625l0 -0.875z" fill-rule="nonzero"/><path fill="#000000" d="m246.10985 197.57536l0 -4.921875l-1.515625 0l0 -1.3125l2.703125 0l0 1.703125q0.25 -0.671875 0.6875 -1.109375q0.453125 -0.4375 0.953125 -0.578125q0.5 -0.140625 1.359375 -0.140625l0.390625 0l0 1.5l-0.296875 0q-1.140625 0 -1.703125 0.234375q-0.546875 0.21875 -0.828125 0.828125q-0.265625 0.59375 -0.265625 2.140625l0 1.65625l1.65625 0l0 1.328125l-4.65625 0l0 -1.328125l1.515625 0z" fill-rule="nonzero"/><path fill="#000000" d="m254.06297 206.34099l0 1.3125l-1.359375 0l0 5.640625q0 1.140625 -0.125 1.6875q-0.109375 0.5625 -0.5625 1.125q-0.453125 0.578125 -1.359375 0.96875q-0.890625 0.390625 -2.0 0.390625q-1.671875 0 -2.984375 -1.0l0.96875 -1.078125q0.984375 0.765625 2.140625 0.765625q0.640625 0 1.1875 -0.25q0.546875 -0.25 0.8125 -0.609375q0.28125 -0.34375 0.359375 -0.65625q0.078125 -0.3125 0.078125 -1.078125l0 -0.6875q-0.359375 0.453125 -1.109375 0.859375q-0.75 0.390625 -1.640625 0.390625q-1.625 0 -2.65625 -1.125q-1.015625 -1.125 -1.015625 -2.765625q0 -1.796875 1.125 -2.90625q1.140625 -1.109375 2.625 -1.109375q1.5 0 2.671875 1.203125l0 -1.078125l2.84375 0zm-7.6875 3.859375q0 1.140625 0.671875 1.875q0.671875 0.71875 1.703125 0.71875q1.015625 0 1.75 -0.71875q0.734375 -0.734375 0.734375 -1.890625q0 -1.15625 -0.734375 -1.859375q-0.734375 -0.71875 -1.703125 -0.71875q-0.96875 0 -1.703125 0.703125q-0.71875 0.703125 -0.71875 1.890625z" fill-rule="nonzero"/><path fill="#000000" d="m252.81297 225.49724l-6.359375 0q0.140625 1.046875 0.828125 1.703125q0.6875 0.640625 1.765625 0.640625q1.546875 0 2.453125 -1.25l1.3125 0.578125q-0.640625 0.984375 -1.671875 1.46875q-1.015625 0.484375 -2.125 0.484375q-1.734375 0 -2.96875 -1.078125q-1.234375 -1.09375 -1.234375 -2.921875q0 -1.75 1.203125 -2.875q1.203125 -1.125 2.75 -1.125q1.53125 0 2.765625 1.109375q1.234375 1.09375 1.28125 3.265625zm-1.53125 -1.078125q-0.15625 -0.796875 -0.828125 -1.4375q-0.671875 -0.65625 -1.640625 -0.65625q-0.890625 0 -1.53125 0.59375q-0.625 0.578125 -0.765625 1.5l4.765625 0z" fill-rule="nonzero"/><path fill="#000000" d="m244.71922 237.65349l0 -1.3125l0.984375 0l0 -1.171875l1.484375 -1.359375l0 2.53125l1.40625 0l0 1.3125l-1.40625 0l0 3.671875q0 0.890625 0.09375 1.09375q0.109375 0.203125 0.5 0.203125q0.40625 0 0.8125 -0.15625l0 1.359375q-0.578125 0.203125 -1.140625 0.203125q-0.6875 0 -1.109375 -0.296875q-0.421875 -0.3125 -0.53125 -0.765625q-0.109375 -0.453125 -0.109375 -1.5625l0 -3.75l-0.984375 0z" fill-rule="nonzero"/><path fill="#000000" d="m244.8911 258.9035l0 -2.59375l1.328125 0l0 0.25q0.078125 0.53125 0.578125 0.875q0.5 0.34375 1.1875 0.34375q0.71875 0 1.140625 -0.25q0.4375 -0.25 0.4375 -0.703125q0 -0.421875 -0.359375 -0.625q-0.34375 -0.20314026 -1.40625 -0.37501526q-1.5625 -0.265625 -2.234375 -0.859375q-0.65625 -0.59375 -0.65625 -1.53125q0 -0.9375 0.71875 -1.578125q0.734375 -0.640625 1.921875 -0.640625q1.0625 0 1.84375 0.4375l0 -0.3125l1.3125 0l0 2.5l-1.3125 0l0 -0.453125q-0.609375 -0.9375 -1.75 -0.9375q-0.59375 0 -0.96875 0.265625q-0.375 0.25 -0.375 0.671875q0 0.421875 0.34375 0.59375q0.34375 0.15625 1.5 0.328125q1.09375 0.171875 1.65625 0.40625q0.5625 0.234375 0.9375 0.765625q0.375 0.53126526 0.375 1.2500153q0 1.046875 -0.8125 1.671875q-0.8125 0.625 -2.09375 0.625q-1.21875 0 -1.984375 -0.546875l0 0.421875l-1.328125 0z" fill-rule="nonzero"/><path fill="#000000" fill-opacity="0.0" d="m320.7034 345.91864l-52.0 -65.38583" fill-rule="evenodd"/><path stroke="#000000" stroke-width="1.0" stroke-linejoin="round" stroke-linecap="butt" stroke-dasharray="4.0,3.0,1.0,3.0" d="m320.7034 345.91864l-48.26535 -60.68982" fill-rule="evenodd"/><path fill="#000000" stroke="#000000" stroke-width="1.0" stroke-linecap="butt" d="m273.7308 284.2007l-4.1174316 -2.5237122l1.5319214 4.5799255z" fill-rule="evenodd"/><path fill="#fff2cc" d="m346.955 13.748032l94.4144 0c2.0062256 0 3.9302673 0.7969675 5.348877 2.215578c1.4186096 1.4186096 2.2155762 3.342659 2.2155762 5.348877l0 37.821373c0 5.0354004E-4 -3.9672852E-4 9.1171265E-4 -9.1552734E-4 9.1171265E-4l-109.54239 -9.1171265E-4l0 0c-5.187988E-4 0 -9.1552734E-4 -4.081726E-4 -9.1552734E-4 -9.1171265E-4l9.1552734E-4 -37.820457l0 0c0 -4.1777325 3.3867188 -7.564455 7.564453 -7.564455z" fill-rule="evenodd"/><path stroke="#000000" stroke-width="1.0" stroke-linejoin="round" stroke-linecap="butt" d="m346.955 13.748032l94.4144 0c2.0062256 0 3.9302673 0.7969675 5.348877 2.215578c1.4186096 1.4186096 2.2155762 3.342659 2.2155762 5.348877l0 37.821373c0 5.0354004E-4 -3.9672852E-4 9.1171265E-4 -9.1552734E-4 9.1171265E-4l-109.54239 -9.1171265E-4l0 0c-5.187988E-4 0 -9.1552734E-4 -4.081726E-4 -9.1552734E-4 -9.1171265E-4l9.1552734E-4 -37.820457l0 0c0 -4.1777325 3.3867188 -7.564455 7.564453 -7.564455z" fill-rule="evenodd"/><path fill="#000000" d="m366.8731 43.408722l0 -11.453125l1.515625 0l0 5.671875l5.6875 -5.671875l2.0625 0l-4.8125 4.640625l5.015625 6.8125l-2.0 0l-4.078125 -5.796875l-1.875 1.828125l0 3.96875l-1.515625 0zm12.328125 -6.21875q-0.875 -0.3125 -1.296875 -0.90625q-0.421875 -0.59375 -0.421875 -1.421875q0 -1.25 0.890625 -2.09375q0.90625 -0.859375 2.40625 -0.859375q1.5 0 2.40625 0.875q0.921875 0.859375 0.921875 2.109375q0 0.796875 -0.421875 1.390625q-0.421875 0.59375 -1.265625 0.90625q1.046875 0.34375 1.59375 1.109375q0.5625 0.765625 0.5625 1.828125q0 1.46875 -1.046875 2.484375q-1.03125 1.0 -2.734375 1.0q-1.6875 0 -2.734375 -1.0q-1.03125 -1.015625 -1.03125 -2.515625q0 -1.125 0.5625 -1.875q0.5625 -0.75 1.609375 -1.03125zm-0.28125 -2.375q0 0.8125 0.515625 1.328125q0.53125 0.515625 1.375 0.515625q0.8125 0 1.328125 -0.515625q0.515625 -0.515625 0.515625 -1.25q0 -0.78125 -0.53125 -1.296875q-0.53125 -0.53125 -1.328125 -0.53125q-0.8125 0 -1.34375 0.515625q-0.53125 0.515625 -0.53125 1.234375zm-0.453125 5.28125q0 0.609375 0.28125 1.171875q0.296875 0.5625 0.859375 0.875q0.5625 0.296875 1.203125 0.296875q1.015625 0 1.671875 -0.640625q0.65625 -0.65625 0.65625 -1.65625q0 -1.015625 -0.6875 -1.671875q-0.671875 -0.671875 -1.6875 -0.671875q-0.984375 0 -1.640625 0.65625q-0.65625 0.65625 -0.65625 1.640625zm7.3046875 0.828125l1.390625 -0.21875q0.109375 0.84375 0.640625 1.296875q0.546875 0.4375 1.5 0.4375q0.96875 0 1.4375 -0.390625q0.46875 -0.40625 0.46875 -0.9375q0 -0.46875 -0.40625 -0.75q-0.296875 -0.1875 -1.4375 -0.46875q-1.546875 -0.390625 -2.15625 -0.671875q-0.59375 -0.296875 -0.90625 -0.796875q-0.296875 -0.5 -0.296875 -1.109375q0 -0.5625 0.25 -1.03125q0.25 -0.46875 0.6875 -0.78125q0.328125 -0.25 0.890625 -0.40625q0.578125 -0.171875 1.21875 -0.171875q0.984375 0 1.71875 0.28125q0.734375 0.28125 1.078125 0.765625q0.359375 0.46875 0.5 1.28125l-1.375 0.1875q-0.09375 -0.640625 -0.546875 -1.0q-0.453125 -0.359375 -1.265625 -0.359375q-0.96875 0 -1.390625 0.328125q-0.40625 0.3125 -0.40625 0.734375q0 0.28125 0.171875 0.5q0.171875 0.21875 0.53125 0.375q0.21875 0.078125 1.25 0.359375q1.484375 0.390625 2.078125 0.65625q0.59375 0.25 0.921875 0.734375q0.34375 0.484375 0.34375 1.203125q0 0.703125 -0.421875 1.328125q-0.40625 0.609375 -1.1875 0.953125q-0.765625 0.34375 -1.734375 0.34375q-1.625 0 -2.46875 -0.671875q-0.84375 -0.671875 -1.078125 -2.0zm11.03125 2.484375l4.40625 -11.453125l1.640625 0l4.6875 11.453125l-1.734375 0l-1.328125 -3.46875l-4.796875 0l-1.25 3.46875l-1.625 0zm3.3125 -4.703125l3.890625 0l-1.203125 -3.171875q-0.546875 -1.453125 -0.8125 -2.375q-0.21875 1.09375 -0.609375 2.1875l-1.265625 3.359375zm8.625 4.703125l0 -11.453125l4.328125 0q1.140625 0 1.734375 0.109375q0.84375 0.140625 1.40625 0.53125q0.578125 0.390625 0.921875 1.109375q0.359375 0.703125 0.359375 1.5625q0 1.453125 -0.9375 2.46875q-0.921875 1.015625 -3.359375 1.015625l-2.9375 0l0 4.65625l-1.515625 0zm1.515625 -6.015625l2.96875 0q1.46875 0 2.078125 -0.546875q0.625 -0.546875 0.625 -1.53125q0 -0.71875 -0.375 -1.234375q-0.359375 -0.515625 -0.953125 -0.671875q-0.375 -0.109375 -1.40625 -0.109375l-2.9375 0l0 4.09375zm9.421875 6.015625l0 -11.453125l1.515625 0l0 11.453125l-1.515625 0z" fill-rule="nonzero"/><path fill="#000000" fill-opacity="0.0" d="m249.55905 150.92651l0 -114.48819l89.82678 0" fill-rule="evenodd"/><path stroke="#000000" stroke-width="1.0" stroke-linejoin="round" stroke-linecap="butt" d="m249.55905 150.92651l0 -114.48819l86.39969 0" fill-rule="evenodd"/><path fill="#000000" stroke="#000000" stroke-width="1.0" stroke-linecap="butt" d="m335.95874 36.43832l-1.1245728 1.1245842l3.0897522 -1.1245842l-3.0897522 -1.1245842z" fill-rule="evenodd"/><path fill="#000000" fill-opacity="0.0" d="m319.06036 338.979l150.20471 0l0 72.724396l-150.20471 0z" fill-rule="evenodd"/><path fill="#000000" d="m331.85724 362.059l0 -9.25l-3.453125 0l0 -1.234375l8.3125 0l0 1.234375l-3.46875 0l0 9.25l-1.390625 0zm9.451965 -0.9375q-0.71875 0.609375 -1.375 0.859375q-0.65625 0.25 -1.421875 0.25q-1.25 0 -1.921875 -0.609375q-0.671875 -0.609375 -0.671875 -1.5625q0 -0.5625 0.25 -1.015625q0.25 -0.46875 0.65625 -0.75q0.421875 -0.28125 0.9375 -0.421875q0.375 -0.09375 1.140625 -0.1875q1.5625 -0.1875 2.296875 -0.453125q0.015625 -0.265625 0.015625 -0.328125q0 -0.796875 -0.375 -1.109375q-0.484375 -0.4375 -1.453125 -0.4375q-0.921875 0 -1.359375 0.328125q-0.421875 0.3125 -0.625 1.109375l-1.265625 -0.171875q0.171875 -0.796875 0.5625 -1.296875q0.390625 -0.5 1.140625 -0.765625q0.75 -0.265625 1.71875 -0.265625q0.984375 0 1.59375 0.234375q0.609375 0.21875 0.890625 0.5625q0.28125 0.34375 0.40625 0.875q0.0625 0.328125 0.0625 1.1875l0 1.71875q0 1.796875 0.078125 2.28125q0.078125 0.46875 0.328125 0.90625l-1.34375 0q-0.203125 -0.40625 -0.265625 -0.9375zm-0.109375 -2.875q-0.703125 0.28125 -2.09375 0.484375q-0.796875 0.109375 -1.125 0.265625q-0.328125 0.140625 -0.515625 0.421875q-0.171875 0.265625 -0.171875 0.59375q0 0.515625 0.390625 0.859375q0.390625 0.34375 1.140625 0.34375q0.734375 0 1.3125 -0.3125q0.59375 -0.328125 0.859375 -0.890625q0.203125 -0.4375 0.203125 -1.296875l0 -0.46875zm3.2917175 3.8125l0 -7.59375l1.15625 0l0 1.140625q0.453125 -0.796875 0.828125 -1.046875q0.375 -0.265625 0.8125 -0.265625q0.65625 0 1.328125 0.40625l-0.4375 1.203125q-0.46875 -0.28125 -0.953125 -0.28125q-0.421875 0 -0.765625 0.25q-0.328125 0.25 -0.46875 0.703125q-0.21875 0.6875 -0.21875 1.5l0 3.984375l-1.28125 0zm4.6618958 0.625l1.25 0.1875q0.078125 0.578125 0.4375 0.84375q0.46875 0.359375 1.3125 0.359375q0.890625 0 1.375 -0.359375q0.484375 -0.359375 0.65625 -1.0q0.109375 -0.390625 0.09375 -1.65625q-0.84375 1.0 -2.109375 1.0q-1.5625 0 -2.421875 -1.125q-0.859375 -1.140625 -0.859375 -2.71875q0 -1.09375 0.390625 -2.0q0.40625 -0.921875 1.140625 -1.421875q0.75 -0.5 1.765625 -0.5q1.34375 0 2.21875 1.078125l0 -0.90625l1.1875 0l0 6.5625q0 1.78125 -0.359375 2.515625q-0.359375 0.734375 -1.15625 1.15625q-0.78125 0.4375 -1.921875 0.4375q-1.359375 0 -2.203125 -0.609375q-0.828125 -0.609375 -0.796875 -1.84375zm1.0625 -4.5625q0 1.5 0.59375 2.1875q0.59375 0.6875 1.484375 0.6875q0.890625 0 1.484375 -0.6875q0.609375 -0.6875 0.609375 -2.140625q0 -1.390625 -0.625 -2.09375q-0.609375 -0.71875 -1.484375 -0.71875q-0.859375 0 -1.46875 0.703125q-0.59375 0.6875 -0.59375 2.0625zm12.526123 1.484375l1.328125 0.171875q-0.3125 1.171875 -1.171875 1.8125q-0.84375 0.640625 -2.171875 0.640625q-1.671875 0 -2.65625 -1.015625q-0.96875 -1.03125 -0.96875 -2.890625q0 -1.921875 0.984375 -2.96875q1.0 -1.0625 2.578125 -1.0625q1.515625 0 2.484375 1.03125q0.96875 1.03125 0.96875 2.921875q0 0.109375 -0.015625 0.34375l-5.65625 0q0.0625 1.25 0.703125 1.921875q0.640625 0.65625 1.59375 0.65625q0.703125 0 1.203125 -0.359375q0.5 -0.375 0.796875 -1.203125zm-4.234375 -2.078125l4.25 0q-0.09375 -0.953125 -0.484375 -1.4375q-0.625 -0.75 -1.609375 -0.75q-0.875 0 -1.484375 0.59375q-0.609375 0.59375 -0.671875 1.59375zm9.994843 3.375l0.1875 1.140625q-0.546875 0.109375 -0.984375 0.109375q-0.6875 0 -1.078125 -0.21875q-0.390625 -0.21875 -0.546875 -0.578125q-0.15625 -0.359375 -0.15625 -1.515625l0 -4.375l-0.953125 0l0 -1.0l0.953125 0l0 -1.890625l1.28125 -0.765625l0 2.65625l1.296875 0l0 1.0l-1.296875 0l0 4.4375q0 0.546875 0.0625 0.71875q0.078125 0.15625 0.21875 0.25q0.15625 0.078125 0.453125 0.078125q0.203125 0 0.5625 -0.046875zm0.74386597 -1.109375l1.265625 -0.203125q0.109375 0.765625 0.59375 1.171875q0.5 0.40625 1.375 0.40625q0.890625 0 1.3125 -0.359375q0.4375 -0.359375 0.4375 -0.84375q0 -0.4375 -0.375 -0.6875q-0.265625 -0.171875 -1.3125 -0.4375q-1.421875 -0.359375 -1.96875 -0.609375q-0.546875 -0.265625 -0.828125 -0.734375q-0.28125 -0.46875 -0.28125 -1.015625q0 -0.515625 0.21875 -0.9375q0.234375 -0.4375 0.640625 -0.734375q0.296875 -0.21875 0.8125 -0.359375q0.53125 -0.15625 1.125 -0.15625q0.890625 0 1.5625 0.265625q0.671875 0.25 1.0 0.6875q0.328125 0.4375 0.4375 1.171875l-1.25 0.171875q-0.09375 -0.578125 -0.5 -0.90625q-0.40625 -0.34375 -1.15625 -0.34375q-0.890625 0 -1.28125 0.296875q-0.375 0.296875 -0.375 0.6875q0 0.25 0.15625 0.453125q0.15625 0.203125 0.5 0.34375q0.1875 0.078125 1.140625 0.328125q1.359375 0.359375 1.890625 0.59375q0.546875 0.234375 0.859375 0.6875q0.3125 0.4375 0.3125 1.09375q0 0.640625 -0.375 1.21875q-0.375 0.5625 -1.09375 0.875q-0.703125 0.3125 -1.59375 0.3125q-1.484375 0 -2.265625 -0.609375q-0.765625 -0.625 -0.984375 -1.828125zm11.400085 0l1.265625 -0.203125q0.109375 0.765625 0.59375 1.171875q0.5 0.40625 1.375 0.40625q0.890625 0 1.3125 -0.359375q0.4375 -0.359375 0.4375 -0.84375q0 -0.4375 -0.375 -0.6875q-0.265625 -0.171875 -1.3125 -0.4375q-1.421875 -0.359375 -1.96875 -0.609375q-0.546875 -0.265625 -0.828125 -0.734375q-0.28125 -0.46875 -0.28125 -1.015625q0 -0.515625 0.21875 -0.9375q0.234375 -0.4375 0.640625 -0.734375q0.296875 -0.21875 0.8125 -0.359375q0.53125 -0.15625 1.125 -0.15625q0.890625 0 1.5625 0.265625q0.671875 0.25 1.0 0.6875q0.328125 0.4375 0.4375 1.171875l-1.25 0.171875q-0.09375 -0.578125 -0.5 -0.90625q-0.40625 -0.34375 -1.15625 -0.34375q-0.890625 0 -1.28125 0.296875q-0.375 0.296875 -0.375 0.6875q0 0.25 0.15625 0.453125q0.15625 0.203125 0.5 0.34375q0.1875 0.078125 1.140625 0.328125q1.359375 0.359375 1.890625 0.59375q0.546875 0.234375 0.859375 0.6875q0.3125 0.4375 0.3125 1.09375q0 0.640625 -0.375 1.21875q-0.375 0.5625 -1.09375 0.875q-0.703125 0.3125 -1.59375 0.3125q-1.484375 0 -2.265625 -0.609375q-0.765625 -0.625 -0.984375 -1.828125zm12.828125 2.265625l0 -1.109375q-0.890625 1.28125 -2.421875 1.28125q-0.671875 0 -1.25 -0.25q-0.578125 -0.265625 -0.875 -0.65625q-0.28125 -0.390625 -0.390625 -0.953125q-0.078125 -0.375 -0.078125 -1.203125l0 -4.703125l1.28125 0l0 4.203125q0 1.015625 0.078125 1.359375q0.125 0.515625 0.515625 0.8125q0.40625 0.28125 0.984375 0.28125q0.578125 0 1.078125 -0.296875q0.515625 -0.296875 0.71875 -0.8125q0.21875 -0.515625 0.21875 -1.484375l0 -4.0625l1.28125 0l0 7.59375l-1.140625 0zm4.354248 0l-1.203125 0l0 -10.484375l1.296875 0l0 3.734375q0.8125 -1.015625 2.078125 -1.015625q0.703125 0 1.328125 0.28125q0.625 0.28125 1.03125 0.796875q0.40625 0.5 0.625 1.234375q0.234375 0.71875 0.234375 1.53125q0 1.96875 -0.96875 3.03125q-0.953125 1.0625 -2.3125 1.0625q-1.34375 0 -2.109375 -1.125l0 0.953125zm-0.015625 -3.859375q0 1.375 0.375 1.984375q0.609375 0.984375 1.640625 0.984375q0.84375 0 1.453125 -0.734375q0.625 -0.734375 0.625 -2.1875q0 -1.484375 -0.59375 -2.1875q-0.59375 -0.71875 -1.421875 -0.71875q-0.84375 0 -1.46875 0.734375q-0.609375 0.734375 -0.609375 2.125zm6.4635925 1.59375l1.265625 -0.203125q0.109375 0.765625 0.59375 1.171875q0.5 0.40625 1.375 0.40625q0.890625 0 1.3125 -0.359375q0.4375 -0.359375 0.4375 -0.84375q0 -0.4375 -0.375 -0.6875q-0.265625 -0.171875 -1.3125 -0.4375q-1.421875 -0.359375 -1.96875 -0.609375q-0.546875 -0.265625 -0.828125 -0.734375q-0.28125 -0.46875 -0.28125 -1.015625q0 -0.515625 0.21875 -0.9375q0.234375 -0.4375 0.640625 -0.734375q0.296875 -0.21875 0.8125 -0.359375q0.53125 -0.15625 1.125 -0.15625q0.890625 0 1.5625 0.265625q0.671875 0.25 1.0 0.6875q0.328125 0.4375 0.4375 1.171875l-1.25 0.171875q-0.09375 -0.578125 -0.5 -0.90625q-0.40625 -0.34375 -1.15625 -0.34375q-0.890625 0 -1.28125 0.296875q-0.375 0.296875 -0.375 0.6875q0 0.25 0.15625 0.453125q0.15625 0.203125 0.5 0.34375q0.1875 0.078125 1.140625 0.328125q1.359375 0.359375 1.890625 0.59375q0.546875 0.234375 0.859375 0.6875q0.3125 0.4375 0.3125 1.09375q0 0.640625 -0.375 1.21875q-0.375 0.5625 -1.09375 0.875q-0.703125 0.3125 -1.59375 0.3125q-1.484375 0 -2.265625 -0.609375q-0.765625 -0.625 -0.984375 -1.828125zm7.78125 5.1875l-0.140625 -1.203125q0.421875 0.109375 0.734375 0.109375q0.4375 0 0.6875 -0.140625q0.265625 -0.140625 0.421875 -0.40625q0.125 -0.1875 0.390625 -0.953125q0.046875 -0.109375 0.125 -0.3125l-2.890625 -7.609375l1.390625 0l1.578125 4.390625q0.3125 0.84375 0.546875 1.765625q0.234375 -0.890625 0.53125 -1.734375l1.625 -4.421875l1.296875 0l-2.890625 7.71875q-0.46875 1.25 -0.734375 1.734375q-0.34375 0.625 -0.78125 0.921875q-0.4375 0.296875 -1.0625 0.296875q-0.375 0 -0.828125 -0.15625zm6.875 -5.1875l1.265625 -0.203125q0.109375 0.765625 0.59375 1.171875q0.5 0.40625 1.375 0.40625q0.890625 0 1.3125 -0.359375q0.4375 -0.359375 0.4375 -0.84375q0 -0.4375 -0.375 -0.6875q-0.265625 -0.171875 -1.3125 -0.4375q-1.421875 -0.359375 -1.96875 -0.609375q-0.546875 -0.265625 -0.828125 -0.734375q-0.28125 -0.46875 -0.28125 -1.015625q0 -0.515625 0.21875 -0.9375q0.234375 -0.4375 0.640625 -0.734375q0.296875 -0.21875 0.8125 -0.359375q0.53125 -0.15625 1.125 -0.15625q0.890625 0 1.5625 0.265625q0.671875 0.25 1.0 0.6875q0.328125 0.4375 0.4375 1.171875l-1.25 0.171875q-0.09375 -0.578125 -0.5 -0.90625q-0.40625 -0.34375 -1.15625 -0.34375q-0.890625 0 -1.28125 0.296875q-0.375 0.296875 -0.375 0.6875q0 0.25 0.15625 0.453125q0.15625 0.203125 0.5 0.34375q0.1875 0.078125 1.140625 0.328125q1.359375 0.359375 1.890625 0.59375q0.546875 0.234375 0.859375 0.6875q0.3125 0.4375 0.3125 1.09375q0 0.640625 -0.375 1.21875q-0.375 0.5625 -1.09375 0.875q-0.703125 0.3125 -1.59375 0.3125q-1.484375 0 -2.265625 -0.609375q-0.765625 -0.625 -0.984375 -1.828125zm10.65625 1.109375l0.1875 1.140625q-0.546875 0.109375 -0.984375 0.109375q-0.6875 0 -1.078125 -0.21875q-0.390625 -0.21875 -0.546875 -0.578125q-0.15625 -0.359375 -0.15625 -1.515625l0 -4.375l-0.953125 0l0 -1.0l0.953125 0l0 -1.890625l1.28125 -0.765625l0 2.65625l1.296875 0l0 1.0l-1.296875 0l0 4.4375q0 0.546875 0.0625 0.71875q0.078125 0.15625 0.21875 0.25q0.15625 0.078125 0.453125 0.078125q0.203125 0 0.5625 -0.046875zm6.462616 -1.296875l1.328125 0.171875q-0.3125 1.171875 -1.171875 1.8125q-0.84375 0.640625 -2.171875 0.640625q-1.671875 0 -2.65625 -1.015625q-0.96875 -1.03125 -0.96875 -2.890625q0 -1.921875 0.984375 -2.96875q1.0 -1.0625 2.578125 -1.0625q1.515625 0 2.484375 1.03125q0.96875 1.03125 0.96875 2.921875q0 0.109375 -0.015625 0.34375l-5.65625 0q0.0625 1.25 0.703125 1.921875q0.640625 0.65625 1.59375 0.65625q0.703125 0 1.203125 -0.359375q0.5 -0.375 0.796875 -1.203125zm-4.234375 -2.078125l4.25 0q-0.09375 -0.953125 -0.484375 -1.4375q-0.625 -0.75 -1.609375 -0.75q-0.875 0 -1.484375 0.59375q-0.609375 0.59375 -0.671875 1.59375zm7.1823425 4.53125l0 -7.59375l1.15625 0l0 1.0625q0.34375 -0.5625 0.9375 -0.890625q0.609375 -0.34375 1.359375 -0.34375q0.84375 0 1.375 0.34375q0.546875 0.34375 0.765625 0.984375q0.90625 -1.328125 2.359375 -1.328125q1.125 0 1.734375 0.625q0.609375 0.625 0.609375 1.921875l0 5.21875l-1.28125 0l0 -4.78125q0 -0.78125 -0.125 -1.109375q-0.125 -0.34375 -0.453125 -0.546875q-0.328125 -0.21875 -0.78125 -0.21875q-0.796875 0 -1.328125 0.53125q-0.53125 0.53125 -0.53125 1.703125l0 4.421875l-1.28125 0l0 -4.9375q0 -0.859375 -0.3125 -1.28125q-0.3125 -0.4375 -1.03125 -0.4375q-0.546875 0 -1.015625 0.296875q-0.453125 0.28125 -0.671875 0.828125q-0.203125 0.546875 -0.203125 1.59375l0 3.9375l-1.28125 0z" fill-rule="nonzero"/><path fill="#000000" d="m329.0135 379.659l0 -7.59375l1.15625 0l0 1.140625q0.453125 -0.796875 0.828125 -1.046875q0.375 -0.265625 0.8125 -0.265625q0.65625 0 1.328125 0.40625l-0.4375 1.203125q-0.46875 -0.28125 -0.953125 -0.28125q-0.421875 0 -0.765625 0.25q-0.328125 0.25 -0.46875 0.703125q-0.21875 0.6875 -0.21875 1.5l0 3.984375l-1.28125 0zm10.099396 -2.453125l1.328125 0.171875q-0.3125 1.171875 -1.171875 1.8125q-0.84375 0.640625 -2.171875 0.640625q-1.671875 0 -2.65625 -1.015625q-0.96875 -1.03125 -0.96875 -2.890625q0 -1.921875 0.984375 -2.96875q1.0 -1.0625 2.578125 -1.0625q1.515625 0 2.484375 1.03125q0.96875 1.03125 0.96875 2.921875q0 0.109375 -0.015625 0.34375l-5.65625 0q0.0625 1.25 0.703125 1.921875q0.640625 0.65625 1.59375 0.65625q0.703125 0 1.203125 -0.359375q0.5 -0.375 0.796875 -1.203125zm-4.234375 -2.078125l4.25 0q-0.09375 -0.953125 -0.484375 -1.4375q-0.625 -0.75 -1.609375 -0.75q-0.875 0 -1.484375 0.59375q-0.609375 0.59375 -0.671875 1.59375zm7.4948425 4.53125l0 -6.59375l-1.140625 0l0 -1.0l1.140625 0l0 -0.8125q0 -0.765625 0.125 -1.140625q0.1875 -0.5 0.65625 -0.8125q0.46875 -0.3125 1.3125 -0.3125q0.546875 0 1.203125 0.125l-0.1875 1.125q-0.40625 -0.0625 -0.765625 -0.0625q-0.578125 0 -0.828125 0.25q-0.234375 0.25 -0.234375 0.9375l0 0.703125l1.46875 0l0 1.0l-1.46875 0l0 6.59375l-1.28125 0zm3.743866 0l0 -7.59375l1.15625 0l0 1.140625q0.453125 -0.796875 0.828125 -1.046875q0.375 -0.265625 0.8125 -0.265625q0.65625 0 1.328125 0.40625l-0.4375 1.203125q-0.46875 -0.28125 -0.953125 -0.28125q-0.421875 0 -0.765625 0.25q-0.328125 0.25 -0.46875 0.703125q-0.21875 0.6875 -0.21875 1.5l0 3.984375l-1.28125 0zm10.099396 -2.453125l1.328125 0.171875q-0.3125 1.171875 -1.171875 1.8125q-0.84375 0.640625 -2.171875 0.640625q-1.671875 0 -2.65625 -1.015625q-0.96875 -1.03125 -0.96875 -2.890625q0 -1.921875 0.984375 -2.96875q1.0 -1.0625 2.578125 -1.0625q1.515625 0 2.484375 1.03125q0.96875 1.03125 0.96875 2.921875q0 0.109375 -0.015625 0.34375l-5.65625 0q0.0625 1.25 0.703125 1.921875q0.640625 0.65625 1.59375 0.65625q0.703125 0 1.203125 -0.359375q0.5 -0.375 0.796875 -1.203125zm-4.234375 -2.078125l4.25 0q-0.09375 -0.953125 -0.484375 -1.4375q-0.625 -0.75 -1.609375 -0.75q-0.875 0 -1.484375 0.59375q-0.609375 0.59375 -0.671875 1.59375zm6.6667175 2.265625l1.265625 -0.203125q0.109375 0.765625 0.59375 1.171875q0.5 0.40625 1.375 0.40625q0.890625 0 1.3125 -0.359375q0.4375 -0.359375 0.4375 -0.84375q0 -0.4375 -0.375 -0.6875q-0.265625 -0.171875 -1.3125 -0.4375q-1.421875 -0.359375 -1.96875 -0.609375q-0.546875 -0.265625 -0.828125 -0.734375q-0.28125 -0.46875 -0.28125 -1.015625q0 -0.515625 0.21875 -0.9375q0.234375 -0.4375 0.640625 -0.734375q0.296875 -0.21875 0.8125 -0.359375q0.53125 -0.15625 1.125 -0.15625q0.890625 0 1.5625 0.265625q0.671875 0.25 1.0 0.6875q0.328125 0.4375 0.4375 1.171875l-1.25 0.171875q-0.09375 -0.578125 -0.5 -0.90625q-0.40625 -0.34375 -1.15625 -0.34375q-0.890625 0 -1.28125 0.296875q-0.375 0.296875 -0.375 0.6875q0 0.25 0.15625 0.453125q0.15625 0.203125 0.5 0.34375q0.1875 0.078125 1.140625 0.328125q1.359375 0.359375 1.890625 0.59375q0.546875 0.234375 0.859375 0.6875q0.3125 0.4375 0.3125 1.09375q0 0.640625 -0.375 1.21875q-0.375 0.5625 -1.09375 0.875q-0.703125 0.3125 -1.59375 0.3125q-1.484375 0 -2.265625 -0.609375q-0.765625 -0.625 -0.984375 -1.828125zm7.84375 2.265625l0 -10.484375l1.28125 0l0 3.75q0.90625 -1.03125 2.28125 -1.03125q0.84375 0 1.46875 0.328125q0.625 0.328125 0.890625 0.921875q0.265625 0.578125 0.265625 1.703125l0 4.8125l-1.28125 0l0 -4.8125q0 -0.96875 -0.421875 -1.40625q-0.421875 -0.4375 -1.1875 -0.4375q-0.578125 0 -1.078125 0.296875q-0.5 0.296875 -0.71875 0.8125q-0.21875 0.5 -0.21875 1.390625l0 4.15625l-1.28125 0zm8.151123 -9.015625l0 -1.46875l1.296875 0l0 1.46875l-1.296875 0zm0 9.015625l0 -7.59375l1.296875 0l0 7.59375l-1.296875 0zm3.256134 0l0 -7.59375l1.15625 0l0 1.078125q0.84375 -1.25 2.421875 -1.25q0.6875 0 1.265625 0.25q0.578125 0.234375 0.859375 0.640625q0.28125 0.40625 0.40625 0.953125q0.0625 0.359375 0.0625 1.25l0 4.671875l-1.28125 0l0 -4.625q0 -0.78125 -0.15625 -1.171875q-0.15625 -0.390625 -0.546875 -0.625q-0.375 -0.234375 -0.890625 -0.234375q-0.8125 0 -1.421875 0.53125q-0.59375 0.515625 -0.59375 1.96875l0 4.15625l-1.28125 0zm7.916748 0.625l1.25 0.1875q0.078125 0.578125 0.4375 0.84375q0.46875 0.359375 1.3125 0.359375q0.890625 0 1.375 -0.359375q0.484375 -0.359375 0.65625 -1.0q0.109375 -0.390625 0.09375 -1.65625q-0.84375 1.0 -2.109375 1.0q-1.5625 0 -2.421875 -1.125q-0.859375 -1.140625 -0.859375 -2.71875q0 -1.09375 0.390625 -2.0q0.40625 -0.921875 1.140625 -1.421875q0.75 -0.5 1.765625 -0.5q1.34375 0 2.21875 1.078125l0 -0.90625l1.1875 0l0 6.5625q0 1.78125 -0.359375 2.515625q-0.359375 0.734375 -1.15625 1.15625q-0.78125 0.4375 -1.921875 0.4375q-1.359375 0 -2.203125 -0.609375q-0.828125 -0.609375 -0.796875 -1.84375zm1.0625 -4.5625q0 1.5 0.59375 2.1875q0.59375 0.6875 1.484375 0.6875q0.890625 0 1.484375 -0.6875q0.609375 -0.6875 0.609375 -2.140625q0 -1.390625 -0.625 -2.09375q-0.609375 -0.71875 -1.484375 -0.71875q-0.859375 0 -1.46875 0.703125q-0.59375 0.6875 -0.59375 2.0625zm14.2074585 2.78125l0.1875 1.140625q-0.546875 0.109375 -0.984375 0.109375q-0.6875 0 -1.078125 -0.21875q-0.390625 -0.21875 -0.546875 -0.578125q-0.15625 -0.359375 -0.15625 -1.515625l0 -4.375l-0.953125 0l0 -1.0l0.953125 0l0 -1.890625l1.28125 -0.765625l0 2.65625l1.296875 0l0 1.0l-1.296875 0l0 4.4375q0 0.546875 0.0625 0.71875q0.078125 0.15625 0.21875 0.25q0.15625 0.078125 0.453125 0.078125q0.203125 0 0.5625 -0.046875zm6.2125854 0.21875q-0.71875 0.609375 -1.375 0.859375q-0.65625 0.25 -1.421875 0.25q-1.25 0 -1.921875 -0.609375q-0.671875 -0.609375 -0.671875 -1.5625q0 -0.5625 0.25 -1.015625q0.25 -0.46875 0.65625 -0.75q0.421875 -0.28125 0.9375 -0.421875q0.375 -0.09375 1.140625 -0.1875q1.5625 -0.1875 2.296875 -0.453125q0.015625 -0.265625 0.015625 -0.328125q0 -0.796875 -0.375 -1.109375q-0.484375 -0.4375 -1.453125 -0.4375q-0.921875 0 -1.359375 0.328125q-0.421875 0.3125 -0.625 1.109375l-1.265625 -0.171875q0.171875 -0.796875 0.5625 -1.296875q0.390625 -0.5 1.140625 -0.765625q0.75 -0.265625 1.71875 -0.265625q0.984375 0 1.59375 0.234375q0.609375 0.21875 0.890625 0.5625q0.28125 0.34375 0.40625 0.875q0.0625 0.328125 0.0625 1.1875l0 1.71875q0 1.796875 0.078125 2.28125q0.078125 0.46875 0.328125 0.90625l-1.34375 0q-0.203125 -0.40625 -0.265625 -0.9375zm-0.109375 -2.875q-0.703125 0.28125 -2.09375 0.484375q-0.796875 0.109375 -1.125 0.265625q-0.328125 0.140625 -0.515625 0.421875q-0.171875 0.265625 -0.171875 0.59375q0 0.515625 0.390625 0.859375q0.390625 0.34375 1.140625 0.34375q0.734375 0 1.3125 -0.3125q0.59375 -0.328125 0.859375 -0.890625q0.203125 -0.4375 0.203125 -1.296875l0 -0.46875zm3.291748 3.8125l0 -7.59375l1.15625 0l0 1.140625q0.453125 -0.796875 0.828125 -1.046875q0.375 -0.265625 0.8125 -0.265625q0.65625 0 1.328125 0.40625l-0.4375 1.203125q-0.46875 -0.28125 -0.953125 -0.28125q-0.421875 0 -0.765625 0.25q-0.328125 0.25 -0.46875 0.703125q-0.21875 0.6875 -0.21875 1.5l0 3.984375l-1.28125 0zm4.6618958 0.625l1.25 0.1875q0.078125 0.578125 0.4375 0.84375q0.46875 0.359375 1.3125 0.359375q0.890625 0 1.375 -0.359375q0.484375 -0.359375 0.65625 -1.0q0.109375 -0.390625 0.09375 -1.65625q-0.84375 1.0 -2.109375 1.0q-1.5625 0 -2.421875 -1.125q-0.859375 -1.140625 -0.859375 -2.71875q0 -1.09375 0.390625 -2.0q0.40625 -0.921875 1.140625 -1.421875q0.75 -0.5 1.765625 -0.5q1.34375 0 2.21875 1.078125l0 -0.90625l1.1875 0l0 6.5625q0 1.78125 -0.359375 2.515625q-0.359375 0.734375 -1.15625 1.15625q-0.78125 0.4375 -1.921875 0.4375q-1.359375 0 -2.203125 -0.609375q-0.828125 -0.609375 -0.796875 -1.84375zm1.0625 -4.5625q0 1.5 0.59375 2.1875q0.59375 0.6875 1.484375 0.6875q0.890625 0 1.484375 -0.6875q0.609375 -0.6875 0.609375 -2.140625q0 -1.390625 -0.625 -2.09375q-0.609375 -0.71875 -1.484375 -0.71875q-0.859375 0 -1.46875 0.703125q-0.59375 0.6875 -0.59375 2.0625zm12.526093 1.484375l1.328125 0.171875q-0.3125 1.171875 -1.171875 1.8125q-0.84375 0.640625 -2.171875 0.640625q-1.671875 0 -2.65625 -1.015625q-0.96875 -1.03125 -0.96875 -2.890625q0 -1.921875 0.984375 -2.96875q1.0 -1.0625 2.578125 -1.0625q1.515625 0 2.484375 1.03125q0.96875 1.03125 0.96875 2.921875q0 0.109375 -0.015625 0.34375l-5.65625 0q0.0625 1.25 0.703125 1.921875q0.640625 0.65625 1.59375 0.65625q0.703125 0 1.203125 -0.359375q0.5 -0.375 0.796875 -1.203125zm-4.234375 -2.078125l4.25 0q-0.09375 -0.953125 -0.484375 -1.4375q-0.625 -0.75 -1.609375 -0.75q-0.875 0 -1.484375 0.59375q-0.609375 0.59375 -0.671875 1.59375zm9.994873 3.375l0.1875 1.140625q-0.546875 0.109375 -0.984375 0.109375q-0.6875 0 -1.078125 -0.21875q-0.390625 -0.21875 -0.546875 -0.578125q-0.15625 -0.359375 -0.15625 -1.515625l0 -4.375l-0.953125 0l0 -1.0l0.953125 0l0 -1.890625l1.28125 -0.765625l0 2.65625l1.296875 0l0 1.0l-1.296875 0l0 4.4375q0 0.546875 0.0625 0.71875q0.078125 0.15625 0.21875 0.25q0.15625 0.078125 0.453125 0.078125q0.203125 0 0.5625 -0.046875zm0.74383545 -1.109375l1.265625 -0.203125q0.109375 0.765625 0.59375 1.171875q0.5 0.40625 1.375 0.40625q0.890625 0 1.3125 -0.359375q0.4375 -0.359375 0.4375 -0.84375q0 -0.4375 -0.375 -0.6875q-0.265625 -0.171875 -1.3125 -0.4375q-1.421875 -0.359375 -1.96875 -0.609375q-0.546875 -0.265625 -0.828125 -0.734375q-0.28125 -0.46875 -0.28125 -1.015625q0 -0.515625 0.21875 -0.9375q0.234375 -0.4375 0.640625 -0.734375q0.296875 -0.21875 0.8125 -0.359375q0.53125 -0.15625 1.125 -0.15625q0.890625 0 1.5625 0.265625q0.671875 0.25 1.0 0.6875q0.328125 0.4375 0.4375 1.171875l-1.25 0.171875q-0.09375 -0.578125 -0.5 -0.90625q-0.40625 -0.34375 -1.15625 -0.34375q-0.890625 0 -1.28125 0.296875q-0.375 0.296875 -0.375 0.6875q0 0.25 0.15625 0.453125q0.15625 0.203125 0.5 0.34375q0.1875 0.078125 1.140625 0.328125q1.359375 0.359375 1.890625 0.59375q0.546875 0.234375 0.859375 0.6875q0.3125 0.4375 0.3125 1.09375q0 0.640625 -0.375 1.21875q-0.375 0.5625 -1.09375 0.875q-0.703125 0.3125 -1.59375 0.3125q-1.484375 0 -2.265625 -0.609375q-0.765625 -0.625 -0.984375 -1.828125z" fill-rule="nonzero"/><path fill="#000000" d="m334.0135 397.259l0 -1.109375q-0.890625 1.28125 -2.421875 1.28125q-0.671875 0 -1.25 -0.25q-0.578125 -0.265625 -0.875 -0.65625q-0.28125 -0.390625 -0.390625 -0.953125q-0.078125 -0.375 -0.078125 -1.203125l0 -4.703125l1.28125 0l0 4.203125q0 1.015625 0.078125 1.359375q0.125 0.515625 0.515625 0.8125q0.40625 0.28125 0.984375 0.28125q0.578125 0 1.078125 -0.296875q0.515625 -0.296875 0.71875 -0.8125q0.21875 -0.515625 0.21875 -1.484375l0 -4.0625l1.28125 0l0 7.59375l-1.140625 0zm2.6510925 -2.265625l1.265625 -0.203125q0.109375 0.765625 0.59375 1.171875q0.5 0.40625 1.375 0.40625q0.890625 0 1.3125 -0.359375q0.4375 -0.359375 0.4375 -0.84375q0 -0.4375 -0.375 -0.6875q-0.265625 -0.171875 -1.3125 -0.4375q-1.421875 -0.359375 -1.96875 -0.609375q-0.546875 -0.265625 -0.828125 -0.734375q-0.28125 -0.46875 -0.28125 -1.015625q0 -0.515625 0.21875 -0.9375q0.234375 -0.4375 0.640625 -0.734375q0.296875 -0.21875 0.8125 -0.359375q0.53125 -0.15625 1.125 -0.15625q0.890625 0 1.5625 0.265625q0.671875 0.25 1.0 0.6875q0.328125 0.4375 0.4375 1.171875l-1.25 0.171875q-0.09375 -0.578125 -0.5 -0.90625q-0.40625 -0.34375 -1.15625 -0.34375q-0.890625 0 -1.28125 0.296875q-0.375 0.296875 -0.375 0.6875q0 0.25 0.15625 0.453125q0.15625 0.203125 0.5 0.34375q0.1875 0.078125 1.140625 0.328125q1.359375 0.359375 1.890625 0.59375q0.546875 0.234375 0.859375 0.6875q0.3125 0.4375 0.3125 1.09375q0 0.640625 -0.375 1.21875q-0.375 0.5625 -1.09375 0.875q-0.703125 0.3125 -1.59375 0.3125q-1.484375 0 -2.265625 -0.609375q-0.765625 -0.625 -0.984375 -1.828125zm7.84375 -6.75l0 -1.46875l1.296875 0l0 1.46875l-1.296875 0zm0 9.015625l0 -7.59375l1.296875 0l0 7.59375l-1.296875 0zm3.2561646 0l0 -7.59375l1.15625 0l0 1.078125q0.84375 -1.25 2.421875 -1.25q0.6875 0 1.265625 0.25q0.578125 0.234375 0.859375 0.640625q0.28125 0.40625 0.40625 0.953125q0.0625 0.359375 0.0625 1.25l0 4.671875l-1.28125 0l0 -4.625q0 -0.78125 -0.15625 -1.171875q-0.15625 -0.390625 -0.546875 -0.625q-0.375 -0.234375 -0.890625 -0.234375q-0.8125 0 -1.421875 0.53125q-0.59375 0.515625 -0.59375 1.96875l0 4.15625l-1.28125 0zm7.9167175 0.625l1.25 0.1875q0.078125 0.578125 0.4375 0.84375q0.46875 0.359375 1.3125 0.359375q0.890625 0 1.375 -0.359375q0.484375 -0.359375 0.65625 -1.0q0.109375 -0.390625 0.09375 -1.65625q-0.84375 1.0 -2.109375 1.0q-1.5625 0 -2.421875 -1.125q-0.859375 -1.140625 -0.859375 -2.71875q0 -1.09375 0.390625 -2.0q0.40625 -0.921875 1.140625 -1.421875q0.75 -0.5 1.765625 -0.5q1.34375 0 2.21875 1.078125l0 -0.90625l1.1875 0l0 6.5625q0 1.78125 -0.359375 2.515625q-0.359375 0.734375 -1.15625 1.15625q-0.78125 0.4375 -1.921875 0.4375q-1.359375 0 -2.203125 -0.609375q-0.828125 -0.609375 -0.796875 -1.84375zm1.0625 -4.5625q0 1.5 0.59375 2.1875q0.59375 0.6875 1.484375 0.6875q0.890625 0 1.484375 -0.6875q0.609375 -0.6875 0.609375 -2.140625q0 -1.390625 -0.625 -2.09375q-0.609375 -0.71875 -1.484375 -0.71875q-0.859375 0 -1.46875 0.703125q-0.59375 0.6875 -0.59375 2.0625zm11.3949585 3.9375l0 -10.484375l1.296875 0l0 5.96875l3.046875 -3.078125l1.671875 0l-2.90625 2.8125l3.1875 4.78125l-1.578125 0l-2.515625 -3.890625l-0.90625 0.875l0 3.015625l-1.296875 0zm8.953125 -5.6875q-0.796875 -0.296875 -1.1875 -0.84375q-0.390625 -0.546875 -0.390625 -1.296875q0 -1.140625 0.8125 -1.921875q0.828125 -0.78125 2.203125 -0.78125q1.375 0 2.203125 0.796875q0.84375 0.796875 0.84375 1.9375q0 0.734375 -0.390625 1.28125q-0.375 0.53125 -1.15625 0.828125q0.96875 0.3125 1.46875 1.015625q0.5 0.703125 0.5 1.671875q0 1.34375 -0.953125 2.265625q-0.9375 0.90625 -2.5 0.90625q-1.546875 0 -2.5 -0.90625q-0.953125 -0.921875 -0.953125 -2.296875q0 -1.03125 0.515625 -1.71875q0.515625 -0.6875 1.484375 -0.9375zm-0.265625 -2.1875q0 0.75 0.484375 1.21875q0.484375 0.46875 1.25 0.46875q0.734375 0 1.203125 -0.46875q0.484375 -0.46875 0.484375 -1.140625q0 -0.71875 -0.5 -1.1875q-0.484375 -0.484375 -1.203125 -0.484375q-0.734375 0 -1.234375 0.46875q-0.484375 0.46875 -0.484375 1.125zm-0.40625 4.84375q0 0.5625 0.25 1.078125q0.265625 0.5 0.78125 0.796875q0.515625 0.28125 1.109375 0.28125q0.921875 0 1.515625 -0.59375q0.609375 -0.59375 0.609375 -1.515625q0 -0.9375 -0.625 -1.53125q-0.609375 -0.609375 -1.546875 -0.609375q-0.90625 0 -1.5 0.609375q-0.59375 0.59375 -0.59375 1.484375zm6.682373 0.765625l1.265625 -0.203125q0.109375 0.765625 0.59375 1.171875q0.5 0.40625 1.375 0.40625q0.890625 0 1.3125 -0.359375q0.4375 -0.359375 0.4375 -0.84375q0 -0.4375 -0.375 -0.6875q-0.265625 -0.171875 -1.3125 -0.4375q-1.421875 -0.359375 -1.96875 -0.609375q-0.546875 -0.265625 -0.828125 -0.734375q-0.28125 -0.46875 -0.28125 -1.015625q0 -0.515625 0.21875 -0.9375q0.234375 -0.4375 0.640625 -0.734375q0.296875 -0.21875 0.8125 -0.359375q0.53125 -0.15625 1.125 -0.15625q0.890625 0 1.5625 0.265625q0.671875 0.25 1.0 0.6875q0.328125 0.4375 0.4375 1.171875l-1.25 0.171875q-0.09375 -0.578125 -0.5 -0.90625q-0.40625 -0.34375 -1.15625 -0.34375q-0.890625 0 -1.28125 0.296875q-0.375 0.296875 -0.375 0.6875q0 0.25 0.15625 0.453125q0.15625 0.203125 0.5 0.34375q0.1875 0.078125 1.140625 0.328125q1.359375 0.359375 1.890625 0.59375q0.546875 0.234375 0.859375 0.6875q0.3125 0.4375 0.3125 1.09375q0 0.640625 -0.375 1.21875q-0.375 0.5625 -1.09375 0.875q-0.703125 0.3125 -1.59375 0.3125q-1.484375 0 -2.265625 -0.609375q-0.765625 -0.625 -0.984375 -1.828125zm10.122101 2.265625l4.015625 -10.484375l1.5 0l4.296875 10.484375l-1.578125 0l-1.234375 -3.171875l-4.375 0l-1.15625 3.171875l-1.46875 0zm3.015625 -4.3125l3.5625 0l-1.09375 -2.90625q-0.5 -1.3125 -0.75 -2.171875q-0.203125 1.015625 -0.5625 2.0l-1.15625 3.078125zm7.9006042 4.3125l0 -10.484375l3.96875 0q1.046875 0 1.59375 0.09375q0.765625 0.125 1.28125 0.484375q0.53125 0.359375 0.84375 1.015625q0.328125 0.65625 0.328125 1.4375q0 1.328125 -0.859375 2.265625q-0.84375 0.921875 -3.078125 0.921875l-2.6875 0l0 4.265625l-1.390625 0zm1.390625 -5.5l2.71875 0q1.34375 0 1.90625 -0.5q0.5625 -0.5 0.5625 -1.40625q0 -0.671875 -0.328125 -1.140625q-0.328125 -0.46875 -0.875 -0.609375q-0.359375 -0.09375 -1.296875 -0.09375l-2.6875 0l0 3.75zm8.619354 5.5l0 -10.484375l1.390625 0l0 10.484375l-1.390625 0z" fill-rule="nonzero"/></g></svg>