<svg version="1.1" viewBox="0.0 0.0 453.12335958005247 241.41207349081364" fill="none" stroke="none" stroke-linecap="square" stroke-miterlimit="10" xmlns:xlink="http://www.w3.org/1999/xlink" xmlns="http://www.w3.org/2000/svg"><clipPath id="p.0"><path d="m0 0l453.12335 0l0 241.41208l-453.12335 0l0 -241.41208z" clip-rule="nonzero"/></clipPath><g clip-path="url(#p.0)"><path fill="#000000" fill-opacity="0.0" d="m0 0l453.12335 0l0 241.41208l-453.12335 0z" fill-rule="evenodd"/><path fill="#f3f3f3" d="m32.259842 63.13186l0 0c0 -17.232788 13.969936 -31.202724 31.202724 -31.202724l124.807144 0l0 0c8.275482 0 16.21202 3.2874184 22.06366 9.139065c5.851654 5.8516464 9.139069 13.788181 9.139069 22.06366l0 124.80715c0 17.232788 -13.96994 31.202728 -31.202728 31.202728l-124.807144 0c-17.232788 0 -31.202724 -13.96994 -31.202724 -31.202728z" fill-rule="evenodd"/><path stroke="#000000" stroke-width="1.0" stroke-linejoin="round" stroke-linecap="butt" d="m32.259842 63.13186l0 0c0 -17.232788 13.969936 -31.202724 31.202724 -31.202724l124.807144 0l0 0c8.275482 0 16.21202 3.2874184 22.06366 9.139065c5.851654 5.8516464 9.139069 13.788181 9.139069 22.06366l0 124.80715c0 17.232788 -13.96994 31.202728 -31.202728 31.202728l-124.807144 0c-17.232788 0 -31.202724 -13.96994 -31.202724 -31.202728z" fill-rule="evenodd"/><path fill="#000000" d="m81.310486 62.83185l1.640625 0.921875q-0.5625 2.109375 -2.25 3.28125q-1.6875 1.15625 -3.875 1.15625q-2.890625 0 -4.625 -1.859375q-1.734375 -1.875 -1.734375 -4.625q0 -3.015625 1.75 -4.796875q1.75 -1.796875 4.5625 -1.796875q2.484375 0 4.171875 1.359375l0 -1.15625l1.640625 0l0 4.078125l-1.640625 0q-0.546875 -1.25 -1.6875 -1.921875q-1.125 -0.6875 -2.390625 -0.6875q-1.890625 0 -3.109375 1.375q-1.21875 1.359375 -1.21875 3.453125q0 2.140625 1.296875 3.5q1.3125 1.359375 3.09375 1.359375q1.46875 0 2.671875 -0.9375q1.203125 -0.953125 1.703125 -2.703125zm4.4712524 3.609375l0 -9.578125l-1.5625 0l0 -1.546875l3.296875 0l0 11.125l1.34375 0l0 1.546875l-4.640625 0l0 -1.546875l1.5625 0zm4.2131042 -2.859375q0 -2.046875 1.34375 -3.34375q1.359375 -1.3125 3.296875 -1.3125q1.90625 0 3.265625 1.296875q1.375 1.28125 1.375 3.359375q0 2.078125 -1.359375 3.375q-1.359375 1.28125 -3.28125 1.28125q-1.96875 0 -3.3125 -1.3125q-1.328125 -1.3125 -1.328125 -3.34375zm1.84375 0q0 1.296875 0.8125 2.140625q0.8125 0.828125 1.984375 0.828125q1.203125 0 2.0 -0.84375q0.8125 -0.84375 0.8125 -2.125q0 -1.296875 -0.828125 -2.125q-0.8125 -0.84375 -1.984375 -0.84375q-1.21875 0 -2.015625 0.859375q-0.78125 0.84375 -0.78125 2.109375zm18.4758 2.859375l0 1.546875l-3.265625 0l0 -1.015625q-1.515625 1.15625 -2.90625 1.15625q-0.890625 0 -1.46875 -0.375q-0.578125 -0.390625 -0.765625 -1.0q-0.1875 -0.625 -0.1875 -1.984375l0 -4.0625l-1.25 0l0 -1.53125l2.984375 0l0 5.375q0 0.96875 0.046875 1.3125q0.0625 0.328125 0.3125 0.546875q0.265625 0.21875 0.671875 0.21875q1.203125 0 2.5625 -1.140625l0 -4.78125l-1.546875 0l0 -1.53125l3.28125 0l0 7.265625l1.53125 0zm11.7845 0l0 1.546875l-3.3125 0l0 -1.296875q-1.296875 1.4375 -3.15625 1.4375q-1.71875 0 -3.03125 -1.171875q-1.296875 -1.171875 -1.296875 -3.34375q0 -2.171875 1.34375 -3.421875q1.34375 -1.265625 3.03125 -1.265625q1.78125 0 3.109375 1.421875l0 -3.484375l-1.6875 0l0 -1.546875l3.421875 0l0 11.125l1.578125 0zm-8.9375 -2.875q0 1.46875 0.8125 2.25q0.828125 0.78125 1.984375 0.78125q1.109375 0 1.96875 -0.828125q0.859375 -0.828125 0.859375 -2.28125q0 -1.46875 -0.875 -2.203125q-0.875 -0.75 -1.96875 -0.75q-1.1875 0 -1.984375 0.875q-0.796875 0.875 -0.796875 2.15625zm10.722656 6.828125l0 -9.6875l-1.484375 0l0 -1.53125l3.21875 0l0 1.375q1.296875 -1.515625 3.140625 -1.515625q1.859375 0 3.0625 1.28125q1.21875 1.265625 1.21875 3.3125q0 2.140625 -1.328125 3.375q-1.3125 1.234375 -3.0 1.234375q-1.75 0 -3.09375 -1.34375l0 3.5l1.71875 0l0 1.546875l-5.0625 0l0 -1.546875l1.609375 0zm1.703125 -6.6875q0 0.734375 0.296875 1.40625q0.3125 0.65625 0.96875 1.109375q0.65625 0.4375 1.53125 0.4375q1.25 0 2.046875 -0.828125q0.8125 -0.828125 0.8125 -2.265625q0 -1.421875 -0.84375 -2.203125q-0.84375 -0.796875 -1.921875 -0.796875q-1.140625 0 -2.015625 0.859375q-0.875 0.859375 -0.875 2.28125zm10.410156 2.734375l0 -5.734375l-1.78125 0l0 -1.53125l3.171875 0l0 1.984375q0.28125 -0.78125 0.796875 -1.28125q0.53125 -0.515625 1.109375 -0.671875q0.578125 -0.171875 1.578125 -0.171875l0.453125 0l0 1.75l-0.34375 0q-1.328125 0 -1.984375 0.265625q-0.640625 0.265625 -0.953125 0.96875q-0.3125 0.6875 -0.3125 2.484375l0 1.9375l1.921875 0l0 1.546875l-5.4375 0l0 -1.546875l1.78125 0zm5.5477448 -2.859375q0 -2.046875 1.34375 -3.34375q1.359375 -1.3125 3.296875 -1.3125q1.90625 0 3.265625 1.296875q1.375 1.28125 1.375 3.359375q0 2.078125 -1.359375 3.375q-1.359375 1.28125 -3.28125 1.28125q-1.96875 0 -3.3125 -1.3125q-1.328125 -1.3125 -1.328125 -3.34375zm1.84375 0q0 1.296875 0.8125 2.140625q0.8125 0.828125 1.984375 0.828125q1.203125 0 2.0 -0.84375q0.8125 -0.84375 0.8125 -2.125q0 -1.296875 -0.828125 -2.125q-0.8125 -0.84375 -1.984375 -0.84375q-1.21875 0 -2.015625 0.859375q-0.78125 0.84375 -0.78125 2.109375zm8.63205 4.40625l0 -1.546875l1.578125 0l0 -9.578125l-1.578125 0l0 -1.546875l3.265625 0l0 5.109375q1.3125 -1.5 3.203125 -1.5q1.8125 0 3.046875 1.25q1.234375 1.25 1.234375 3.296875q0 1.96875 -1.203125 3.3125q-1.203125 1.34375 -3.09375 1.34375q-1.046875 0 -1.921875 -0.453125q-0.875 -0.453125 -1.265625 -1.015625l0 1.328125l-3.265625 0zm3.328125 -4.390625q0 1.375 0.84375 2.1875q0.84375 0.796875 1.9375 0.796875q1.15625 0 1.984375 -0.84375q0.84375 -0.859375 0.84375 -2.3125q0 -1.390625 -0.828125 -2.15625q-0.828125 -0.765625 -1.953125 -0.765625q-1.109375 0 -1.96875 0.796875q-0.859375 0.796875 -0.859375 2.296875zm18.23935 0.421875l-7.4062347 0q0.15625 1.21875 0.953125 1.984375q0.8125 0.75 2.0625 0.75q1.8124847 0 2.8593597 -1.46875l1.53125 0.6875q-0.75 1.15625 -1.9375 1.71875q-1.1875 0.546875 -2.4999847 0.546875q-2.015625 0 -3.453125 -1.25q-1.4375 -1.265625 -1.4375 -3.40625q0 -2.03125 1.390625 -3.34375q1.40625 -1.3125 3.21875 -1.3125q1.7812347 0 3.2187347 1.28125q1.453125 1.28125 1.5 3.8125zm-1.78125 -1.265625q-0.1875 -0.921875 -0.96875 -1.671875q-0.78125 -0.75 -1.9218597 -0.75q-1.03125 0 -1.78125 0.6875q-0.734375 0.671875 -0.890625 1.734375l5.5624847 0zm4.6632996 3.6875l0 -5.734375l-1.78125 0l0 -1.53125l3.171875 0l0 1.984375q0.28125 -0.78125 0.796875 -1.28125q0.53125 -0.515625 1.109375 -0.671875q0.578125 -0.171875 1.578125 -0.171875l0.453125 0l0 1.75l-0.34375 0q-1.328125 0 -1.984375 0.265625q-0.640625 0.265625 -0.953125 0.96875q-0.3125 0.6875 -0.3125 2.484375l0 1.9375l1.921875 0l0 1.546875l-5.4375 0l0 -1.546875l1.78125 0z" fill-rule="nonzero"/><path fill="#ead1dc" d="m93.51706 92.98228l115.55905 0l0 43.90551l-115.55905 0z" fill-rule="evenodd"/><path stroke="#000000" stroke-width="1.0" stroke-linejoin="round" stroke-linecap="butt" d="m93.51706 92.98228l115.55905 0l0 43.90551l-115.55905 0z" fill-rule="evenodd"/><path fill="#000000" d="m123.45674 119.43565l0 -8.15625l-1.359375 0l0 -1.359375l3.875 0q1.71875 0 2.5625 0.25q0.859375 0.234375 1.421875 1.09375q0.578125 0.859375 0.578125 2.015625q0 0.9375 -0.375 1.671875q-0.375 0.734375 -0.9375 1.09375q-0.5625 0.34375 -1.265625 0.46875q-0.6875 0.125 -2.109375 0.125l-0.75 0l0 2.796875l1.40625 0l0 1.359375l-4.40625 0l0 -1.359375l1.359375 0zm1.640625 -4.109375l0.9375 0q1.609375 0 2.21875 -0.453125q0.625 -0.46875 0.625 -1.625q0 -0.734375 -0.328125 -1.21875q-0.328125 -0.484375 -0.8125 -0.609375q-0.484375 -0.140625 -1.625 -0.140625l-1.015625 0l0 4.046875zm7.71875 4.140625l0 -4.921875l-1.515625 0l0 -1.3125l2.703125 0l0 1.703125q0.25 -0.671875 0.6875 -1.109375q0.453125 -0.4375 0.953125 -0.578125q0.5 -0.140625 1.359375 -0.140625l0.390625 0l0 1.5l-0.296875 0q-1.140625 0 -1.703125 0.234375q-0.546875 0.21875 -0.828125 0.828125q-0.265625 0.59375 -0.265625 2.140625l0 1.65625l1.65625 0l0 1.328125l-4.65625 0l0 -1.328125l1.515625 0zm4.765625 -2.453125q0 -1.75 1.15625 -2.875q1.15625 -1.125 2.828125 -1.125q1.625 0 2.796875 1.109375q1.171875 1.109375 1.171875 2.890625q0 1.78125 -1.171875 2.890625q-1.15625 1.109375 -2.796875 1.109375q-1.6875 0 -2.84375 -1.125q-1.140625 -1.125 -1.140625 -2.875zm1.578125 0q0 1.109375 0.6875 1.828125q0.703125 0.71875 1.71875 0.71875q1.015625 0 1.703125 -0.71875q0.703125 -0.734375 0.703125 -1.828125q0 -1.109375 -0.703125 -1.828125q-0.703125 -0.71875 -1.703125 -0.71875q-1.046875 0 -1.734375 0.734375q-0.671875 0.734375 -0.671875 1.8125zm7.40625 3.78125l0 -1.328125l1.34375 0l0 -8.21875l-1.34375 0l0 -1.328125l2.796875 0l0 4.375q1.125 -1.28125 2.75 -1.28125q1.5625 0 2.609375 1.078125q1.0625 1.078125 1.0625 2.828125q0 1.6875 -1.03125 2.84375q-1.03125 1.15625 -2.65625 1.15625q-0.90625 0 -1.65625 -0.390625q-0.75 -0.390625 -1.078125 -0.875l0 1.140625l-2.796875 0zm2.84375 -3.765625q0 1.171875 0.71875 1.875q0.734375 0.6875 1.671875 0.6875q1.0 0 1.71875 -0.734375q0.71875 -0.734375 0.71875 -1.96875q0 -1.203125 -0.71875 -1.859375q-0.71875 -0.65625 -1.671875 -0.65625q-0.953125 0 -1.703125 0.6875q-0.734375 0.671875 -0.734375 1.96875zm15.6484375 0.359375l-6.359375 0q0.140625 1.046875 0.828125 1.703125q0.6875 0.640625 1.765625 0.640625q1.546875 0 2.453125 -1.25l1.3125 0.578125q-0.640625 0.984375 -1.671875 1.46875q-1.015625 0.484375 -2.125 0.484375q-1.734375 0 -2.96875 -1.078125q-1.234375 -1.09375 -1.234375 -2.921875q0 -1.75 1.203125 -2.875q1.203125 -1.125 2.75 -1.125q1.53125 0 2.765625 1.109375q1.234375 1.09375 1.28125 3.265625zm-1.53125 -1.078125q-0.15625 -0.796875 -0.828125 -1.4375q-0.671875 -0.65625 -1.640625 -0.65625q-0.890625 0 -1.53125 0.59375q-0.625 0.578125 -0.765625 1.5l4.765625 0zm13.703125 0.65625l-3.90625 0l-0.828125 2.46875l1.3125 0l0 1.359375l-4.28125 0l0 -1.359375l1.3125 0l2.96875 -8.28125l-1.3125 0l0 -1.234375l5.546875 0l0 1.234375l-1.34375 0l3.03125 8.28125l1.21875 0l0 1.359375l-4.25 0l0 -1.359375l1.34375 0l-0.8125 -2.46875zm-0.40625 -1.265625l-1.4375 -4.546875l-0.15625 0l-1.5 4.546875l3.09375 0z" fill-rule="nonzero"/><path fill="#cfe2f3" d="m312.32285 45.812336l104.0 0l0 51.999996l-104.0 0z" fill-rule="evenodd"/><path stroke="#000000" stroke-width="1.0" stroke-linejoin="round" stroke-linecap="butt" d="m312.32285 45.812336l104.0 0l0 51.999996l-104.0 0z" fill-rule="evenodd"/><path fill="#000000" d="m338.2369 76.31296l0 -8.15625l-2.25 0l0 2.78125l-1.34375 0l0 -4.140625l8.8125 0l0 4.140625l-1.34375 0l0 -2.78125l-2.234375 0l0 8.15625l1.40625 0l0 1.359375l-4.4375 0l0 -1.359375l1.390625 0zm13.2109375 0.03125l0 1.328125l-2.59375 0l0 -0.921875q-1.078125 1.046875 -2.40625 1.046875q-1.03125 0 -1.796875 -0.671875q-0.765625 -0.671875 -0.765625 -1.71875q0 -1.0625 0.8125 -1.75q0.8125 -0.703125 1.953125 -0.703125q1.0625 0 2.046875 0.640625l0 -0.75q0 -0.578125 -0.109375 -0.890625q-0.109375 -0.3125 -0.515625 -0.5625q-0.390625 -0.25 -1.046875 -0.25q-1.109375 0 -1.609375 0.890625l-1.421875 -0.375q0.9375 -1.765625 3.265625 -1.765625q0.84375 0 1.46875 0.234375q0.625 0.234375 0.921875 0.59375q0.3125 0.359375 0.40625 0.78125q0.109375 0.421875 0.109375 1.34375l0 3.5l1.28125 0zm-2.75 -1.484375q-0.953125 -0.75 -1.9375 -0.75q-0.625 0 -1.046875 0.359375q-0.40625 0.359375 -0.40625 0.921875q0 0.53125 0.359375 0.890625q0.375 0.359375 1.0 0.359375q1.078125 0 2.03125 -0.90625l0 -0.875zm4.8203125 1.484375l0 -4.921875l-1.515625 0l0 -1.3125l2.703125 0l0 1.703125q0.25 -0.671875 0.6875 -1.109375q0.453125 -0.4375 0.953125 -0.578125q0.5 -0.140625 1.359375 -0.140625l0.390625 0l0 1.5l-0.296875 0q-1.140625 0 -1.703125 0.234375q-0.546875 0.21875 -0.828125 0.828125q-0.265625 0.59375 -0.265625 2.140625l0 1.65625l1.65625 0l0 1.328125l-4.65625 0l0 -1.328125l1.515625 0zm14.1484375 -6.234375l0 1.3125l-1.359375 0l0 5.640625q0 1.140625 -0.125 1.6875q-0.109375 0.5625 -0.5625 1.125q-0.453125 0.578125 -1.359375 0.96875q-0.890625 0.390625 -2.0 0.390625q-1.671875 0 -2.984375 -1.0l0.96875 -1.078125q0.984375 0.765625 2.140625 0.765625q0.640625 0 1.1875 -0.25q0.546875 -0.25 0.8125 -0.609375q0.28125 -0.34375 0.359375 -0.65625q0.078125 -0.3125 0.078125 -1.078125l0 -0.6875q-0.359375 0.453125 -1.109375 0.859375q-0.75 0.390625 -1.640625 0.390625q-1.625 0 -2.65625 -1.125q-1.015625 -1.125 -1.015625 -2.765625q0 -1.796875 1.125 -2.90625q1.140625 -1.109375 2.625 -1.109375q1.5 0 2.671875 1.203125l0 -1.078125l2.84375 0zm-7.6875 3.859375q0 1.140625 0.671875 1.875q0.671875 0.71875 1.703125 0.71875q1.015625 0 1.75 -0.71875q0.734375 -0.734375 0.734375 -1.890625q0 -1.15625 -0.734375 -1.859375q-0.734375 -0.71875 -1.703125 -0.71875q-0.96875 0 -1.703125 0.703125q-0.71875 0.703125 -0.71875 1.890625zm16.117188 0.296875l-6.359375 0q0.140625 1.046875 0.828125 1.703125q0.6875 0.640625 1.765625 0.640625q1.546875 0 2.453125 -1.25l1.3125 0.578125q-0.640625 0.984375 -1.671875 1.46875q-1.015625 0.484375 -2.125 0.484375q-1.734375 0 -2.96875 -1.078125q-1.234375 -1.09375 -1.234375 -2.921875q0 -1.75 1.203125 -2.875q1.203125 -1.125 2.75 -1.125q1.53125 0 2.765625 1.109375q1.234375 1.09375 1.28125 3.265625zm-1.53125 -1.078125q-0.15625 -0.796875 -0.828125 -1.4375q-0.671875 -0.65625 -1.640625 -0.65625q-0.890625 0 -1.53125 0.59375q-0.625 0.578125 -0.765625 1.5l4.765625 0zm2.609375 -1.765625l0 -1.3125l0.984375 0l0 -1.171875l1.484375 -1.359375l0 2.53125l1.40625 0l0 1.3125l-1.40625 0l0 3.671875q0 0.890625 0.09375 1.09375q0.109375 0.203125 0.5 0.203125q0.40625 0 0.8125 -0.15625l0 1.359375q-0.578125 0.203125 -1.140625 0.203125q-0.6875 0 -1.109375 -0.296875q-0.421875 -0.3125 -0.53125 -0.765625q-0.109375 -0.453125 -0.109375 -1.5625l0 -3.75l-0.984375 0zm12.140625 4.921875l0 -8.21875l-1.484375 0l0 -1.3125l2.96875 0l0 9.53125l1.40625 0l0 1.328125l-4.375 0l0 -1.328125l1.484375 0z" fill-rule="nonzero"/><path fill="#cfe2f3" d="m322.71652 87.41601l104.0 0l0 52.000008l-104.0 0z" fill-rule="evenodd"/><path stroke="#000000" stroke-width="1.0" stroke-linejoin="round" stroke-linecap="butt" d="m322.71652 87.41601l104.0 0l0 52.000008l-104.0 0z" fill-rule="evenodd"/><path fill="#000000" d="m348.63058 117.91663l0 -8.15625l-2.25 0l0 2.78125l-1.34375 0l0 -4.140625l8.8125 0l0 4.140625l-1.34375 0l0 -2.78125l-2.234375 0l0 8.15625l1.40625 0l0 1.359375l-4.4375 0l0 -1.359375l1.390625 0zm13.2109375 0.03125l0 1.328125l-2.59375 0l0 -0.921875q-1.078125 1.046875 -2.40625 1.046875q-1.03125 0 -1.796875 -0.671875q-0.765625 -0.671875 -0.765625 -1.71875q0 -1.0625 0.8125 -1.75q0.8125 -0.703125 1.953125 -0.703125q1.0625 0 2.046875 0.640625l0 -0.75q0 -0.578125 -0.109375 -0.890625q-0.109375 -0.3125 -0.515625 -0.5625q-0.390625 -0.25 -1.046875 -0.25q-1.109375 0 -1.609375 0.890625l-1.421875 -0.375q0.9375 -1.765625 3.265625 -1.765625q0.84375 0 1.46875 0.234375q0.625 0.234375 0.921875 0.59375q0.3125 0.359375 0.40625 0.78125q0.109375 0.421875 0.109375 1.34375l0 3.5l1.28125 0zm-2.75 -1.484375q-0.953125 -0.75 -1.9375 -0.75q-0.625 0 -1.046875 0.359375q-0.40625 0.359375 -0.40625 0.921875q0 0.53125 0.359375 0.890625q0.375 0.359375 1.0 0.359375q1.078125 0 2.03125 -0.90625l0 -0.875zm4.8203125 1.484375l0 -4.921875l-1.515625 0l0 -1.3125l2.703125 0l0 1.703125q0.25 -0.671875 0.6875 -1.109375q0.453125 -0.4375 0.953125 -0.578125q0.5 -0.140625 1.359375 -0.140625l0.390625 0l0 1.5l-0.296875 0q-1.140625 0 -1.703125 0.234375q-0.546875 0.21875 -0.828125 0.828125q-0.265625 0.59375 -0.265625 2.140625l0 1.65625l1.65625 0l0 1.328125l-4.65625 0l0 -1.328125l1.515625 0zm14.1484375 -6.234375l0 1.3125l-1.359375 0l0 5.640625q0 1.140625 -0.125 1.6875q-0.109375 0.5625 -0.5625 1.125q-0.453125 0.578125 -1.359375 0.96875q-0.890625 0.390625 -2.0 0.390625q-1.671875 0 -2.984375 -1.0l0.96875 -1.078125q0.984375 0.765625 2.140625 0.765625q0.640625 0 1.1875 -0.25q0.546875 -0.25 0.8125 -0.609375q0.28125 -0.34375 0.359375 -0.65625q0.078125 -0.3125 0.078125 -1.078125l0 -0.6875q-0.359375 0.453125 -1.109375 0.859375q-0.75 0.390625 -1.640625 0.390625q-1.625 0 -2.65625 -1.125q-1.015625 -1.125 -1.015625 -2.765625q0 -1.796875 1.125 -2.90625q1.140625 -1.109375 2.625 -1.109375q1.5 0 2.671875 1.203125l0 -1.078125l2.84375 0zm-7.6875 3.859375q0 1.140625 0.671875 1.875q0.671875 0.71875 1.703125 0.71875q1.015625 0 1.75 -0.71875q0.734375 -0.734375 0.734375 -1.890625q0 -1.15625 -0.734375 -1.859375q-0.734375 -0.71875 -1.703125 -0.71875q-0.96875 0 -1.703125 0.703125q-0.71875 0.703125 -0.71875 1.890625zm16.117188 0.296875l-6.359375 0q0.140625 1.046875 0.828125 1.703125q0.6875 0.640625 1.765625 0.640625q1.546875 0 2.453125 -1.25l1.3125 0.578125q-0.640625 0.984375 -1.671875 1.46875q-1.015625 0.484375 -2.125 0.484375q-1.734375 0 -2.96875 -1.078125q-1.234375 -1.09375 -1.234375 -2.921875q0 -1.75 1.203125 -2.875q1.203125 -1.125 2.75 -1.125q1.53125 0 2.765625 1.109375q1.234375 1.09375 1.28125 3.265625zm-1.53125 -1.078125q-0.15625 -0.796875 -0.828125 -1.4375q-0.671875 -0.65625 -1.640625 -0.65625q-0.890625 0 -1.53125 0.59375q-0.625 0.578125 -0.765625 1.5l4.765625 0zm2.609375 -1.765625l0 -1.3125l0.984375 0l0 -1.171875l1.484375 -1.359375l0 2.53125l1.40625 0l0 1.3125l-1.40625 0l0 3.671875q0 0.890625 0.09375 1.09375q0.109375 0.203125 0.5 0.203125q0.40625 0 0.8125 -0.15625l0 1.359375q-0.578125 0.203125 -1.140625 0.203125q-0.6875 0 -1.109375 -0.296875q-0.421875 -0.3125 -0.53125 -0.765625q-0.109375 -0.453125 -0.109375 -1.5625l0 -3.75l-0.984375 0zm16.03125 2.359375l-0.09375 3.890625l-6.953125 0q0 -1.125 0.40625 -2.140625q0.40625 -1.03125 1.125 -1.796875q0.734375 -0.765625 2.234375 -1.859375q0.953125 -0.703125 1.28125 -1.15625q0.34375 -0.46875 0.34375 -1.09375q0 -0.75 -0.484375 -1.234375q-0.46875 -0.484375 -1.3125 -0.484375q-0.96875 0 -1.421875 0.546875q-0.453125 0.546875 -0.453125 1.796875q0 0.3125 0.015625 0.59375l-1.453125 0q0 -0.28125 0 -0.453125q0 -1.765625 0.828125 -2.765625q0.84375 -1.0 2.453125 -1.0q1.640625 0 2.5 0.859375q0.875 0.84375 0.875 2.09375q0 1.03125 -0.578125 1.765625q-0.5625 0.734375 -2.171875 1.875q-1.5625 1.109375 -2.046875 1.8125q-0.484375 0.6875 -0.5625 1.21875l4.09375 0l0.0625 -2.46875l1.3125 0z" fill-rule="nonzero"/><path fill="#000000" fill-opacity="0.0" d="m209.07611 114.93503l103.24411 -43.118103" fill-rule="evenodd"/><path stroke="#000000" stroke-width="1.0" stroke-linejoin="round" stroke-linecap="butt" d="m209.07611 114.93503l97.70755 -40.805862" fill-rule="evenodd"/><path fill="#000000" stroke="#000000" stroke-width="1.0" stroke-linecap="butt" d="m307.4202 75.65332l3.5510254 -3.273018l-4.8240967 0.22470856z" fill-rule="evenodd"/><path fill="#000000" fill-opacity="0.0" d="m209.07611 114.93503l113.63779 -1.5118103" fill-rule="evenodd"/><path stroke="#000000" stroke-width="1.0" stroke-linejoin="round" stroke-linecap="butt" d="m209.07611 114.93503l107.638336 -1.4319916" fill-rule="evenodd"/><path fill="#000000" stroke="#000000" stroke-width="1.0" stroke-linecap="butt" d="m316.73642 115.15462l4.5157166 -1.7119522l-4.559662 -1.591217z" fill-rule="evenodd"/><path fill="#cfe2f3" d="m332.937 133.62862l104.0 0l0 52.0l-104.0 0z" fill-rule="evenodd"/><path stroke="#000000" stroke-width="1.0" stroke-linejoin="round" stroke-linecap="butt" d="m332.937 133.62862l104.0 0l0 52.0l-104.0 0z" fill-rule="evenodd"/><path fill="#000000" d="m357.4331 164.12924l0 -8.15625l-2.25 0l0 2.78125l-1.34375 0l0 -4.140625l8.8125 0l0 4.140625l-1.34375 0l0 -2.78125l-2.234375 0l0 8.15625l1.40625 0l0 1.359375l-4.4375 0l0 -1.359375l1.390625 0zm13.2109375 0.03125l0 1.328125l-2.59375 0l0 -0.921875q-1.078125 1.046875 -2.40625 1.046875q-1.03125 0 -1.796875 -0.671875q-0.765625 -0.671875 -0.765625 -1.71875q0 -1.0625 0.8125 -1.75q0.8125 -0.703125 1.953125 -0.703125q1.0625 0 2.046875 0.640625l0 -0.75q0 -0.578125 -0.109375 -0.890625q-0.109375 -0.3125 -0.515625 -0.5625q-0.390625 -0.25 -1.046875 -0.25q-1.109375 0 -1.609375 0.890625l-1.421875 -0.375q0.9375 -1.765625 3.265625 -1.765625q0.84375 0 1.46875 0.234375q0.625 0.234375 0.921875 0.59375q0.3125 0.359375 0.40625 0.78125q0.109375 0.421875 0.109375 1.34375l0 3.5l1.28125 0zm-2.75 -1.484375q-0.953125 -0.75 -1.9375 -0.75q-0.625 0 -1.046875 0.359375q-0.40625 0.359375 -0.40625 0.921875q0 0.53125 0.359375 0.890625q0.375 0.359375 1.0 0.359375q1.078125 0 2.03125 -0.90625l0 -0.875zm4.8203125 1.484375l0 -4.921875l-1.515625 0l0 -1.3125l2.703125 0l0 1.703125q0.25 -0.671875 0.6875 -1.109375q0.453125 -0.4375 0.953125 -0.578125q0.5 -0.140625 1.359375 -0.140625l0.390625 0l0 1.5l-0.296875 0q-1.140625 0 -1.703125 0.234375q-0.546875 0.21875 -0.828125 0.828125q-0.265625 0.59375 -0.265625 2.140625l0 1.65625l1.65625 0l0 1.328125l-4.65625 0l0 -1.328125l1.515625 0zm14.1484375 -6.234375l0 1.3125l-1.359375 0l0 5.640625q0 1.140625 -0.125 1.6875q-0.109375 0.5625 -0.5625 1.125q-0.453125 0.578125 -1.359375 0.96875q-0.890625 0.390625 -2.0 0.390625q-1.671875 0 -2.984375 -1.0l0.96875 -1.078125q0.984375 0.765625 2.140625 0.765625q0.640625 0 1.1875 -0.25q0.546875 -0.25 0.8125 -0.609375q0.28125 -0.34375 0.359375 -0.65625q0.078125 -0.3125 0.078125 -1.078125l0 -0.6875q-0.359375 0.453125 -1.109375 0.859375q-0.75 0.390625 -1.640625 0.390625q-1.625 0 -2.65625 -1.125q-1.015625 -1.125 -1.015625 -2.765625q0 -1.796875 1.125 -2.90625q1.140625 -1.109375 2.625 -1.109375q1.5 0 2.671875 1.203125l0 -1.078125l2.84375 0zm-7.6875 3.859375q0 1.140625 0.671875 1.875q0.671875 0.71875 1.703125 0.71875q1.015625 0 1.75 -0.71875q0.734375 -0.734375 0.734375 -1.890625q0 -1.15625 -0.734375 -1.859375q-0.734375 -0.71875 -1.703125 -0.71875q-0.96875 0 -1.703125 0.703125q-0.71875 0.703125 -0.71875 1.890625zm16.117188 0.296875l-6.359375 0q0.140625 1.046875 0.828125 1.703125q0.6875 0.640625 1.765625 0.640625q1.546875 0 2.453125 -1.25l1.3125 0.578125q-0.640625 0.984375 -1.671875 1.46875q-1.015625 0.484375 -2.125 0.484375q-1.734375 0 -2.96875 -1.078125q-1.234375 -1.09375 -1.234375 -2.921875q0 -1.75 1.203125 -2.875q1.203125 -1.125 2.75 -1.125q1.53125 0 2.765625 1.109375q1.234375 1.09375 1.28125 3.265625zm-1.53125 -1.078125q-0.15625 -0.796875 -0.828125 -1.4375q-0.671875 -0.65625 -1.640625 -0.65625q-0.890625 0 -1.53125 0.59375q-0.625 0.578125 -0.765625 1.5l4.765625 0zm2.609375 -1.765625l0 -1.3125l0.984375 0l0 -1.171875l1.484375 -1.359375l0 2.53125l1.40625 0l0 1.3125l-1.40625 0l0 3.671875q0 0.890625 0.09375 1.09375q0.109375 0.203125 0.5 0.203125q0.40625 0 0.8125 -0.15625l0 1.359375q-0.578125 0.203125 -1.140625 0.203125q-0.6875 0 -1.109375 -0.296875q-0.421875 -0.3125 -0.53125 -0.765625q-0.109375 -0.453125 -0.109375 -1.5625l0 -3.75l-0.984375 0zm9.984375 4.890625l0 -8.15625l-1.5625 0l0 -1.359375l3.71875 0l4.765625 8.453125l0 -7.09375l-1.546875 0l0 -1.359375l4.46875 0l0 1.359375l-1.609375 0l0 9.625l-1.6875 0l-5.203125 -9.28125l0 7.8125l1.546875 0l0 1.359375l-4.453125 0l0 -1.359375l1.5625 0z" fill-rule="nonzero"/><path fill="#000000" fill-opacity="0.0" d="m209.07611 114.93503l123.87402 44.692917" fill-rule="evenodd"/><path stroke="#000000" stroke-width="1.0" stroke-linejoin="round" stroke-linecap="butt" d="m209.07611 114.93503l118.2301 42.65663" fill-rule="evenodd"/><path fill="#000000" stroke="#000000" stroke-width="1.0" stroke-linecap="butt" d="m326.74567 159.14537l4.829315 -0.0135650635l-3.708191 -3.0938416z" fill-rule="evenodd"/></g></svg>