<?xml version="1.0" encoding="UTF-8" standalone="no"?>
<svg
   version="1.2"
   viewBox="0 0 1594 527"
   width="1594"
   height="527"
   id="svg3"
   sodipodi:docname="NET_BIG.svg"
   xmlns:inkscape="http://www.inkscape.org/namespaces/inkscape"
   xmlns:sodipodi="http://sodipodi.sourceforge.net/DTD/sodipodi-0.dtd"
   xmlns="http://www.w3.org/2000/svg"
   xmlns:svg="http://www.w3.org/2000/svg">
  <defs
     id="defs3" />
  <sodipodi:namedview
     id="namedview3"
     pagecolor="#ffffff"
     bordercolor="#000000"
     borderopacity="0.25"
     inkscape:showpageshadow="2"
     inkscape:pageopacity="0.0"
     inkscape:pagecheckerboard="0"
     inkscape:deskcolor="#d1d1d1" />
  <title
     id="title1">Cloudflare-logo-vector-svg</title>
  <style
     id="style1">
		.s0 { fill: #ffffff } 
		.s1 { fill: #f48120 } 
		.s2 { fill: #faad3f } 
		.s3 { fill: #404041 } 
	</style>
  <path
     id="Layer"
     class="s0"
     d="M 1488.3,339.2 981,337.7 V 142.9 l 403.7,-3.1 15.7,6.3 87.9,20.4 z" />
  <path
     id="path1"
     class="s1"
     d="m 1318.7,337.7 c 0,3.1 -3.1,4.7 -6.3,4.7 H 808.3 q -0.9,-0.1 -1.8,-0.4 -0.8,-0.4 -1.5,-1.1 -0.6,-0.6 -1,-1.5 -0.4,-0.8 -0.4,-1.7 -0.5,-2.1 -0.9,-4.3 -0.3,-2.1 -0.5,-4.3 -0.2,-2.2 -0.2,-4.4 -0.1,-2.1 0,-4.3 c 0,-14.8 2.9,-29.5 8.4,-43.2 5.6,-13.7 13.8,-26.2 24.1,-36.8 10.3,-10.6 22.6,-19.1 36.1,-25 13.6,-6 28.1,-9.2 42.9,-9.7 q -0.8,-3.4 -1.3,-6.9 -0.5,-3.6 -0.6,-7.1 -0.2,-3.6 -0.1,-7.1 0,-3.6 0.4,-7.1 c 1.1,-9.2 3.6,-18.1 7.6,-26.4 4,-8.3 9.4,-15.9 15.9,-22.4 6.5,-6.5 14.1,-11.9 22.4,-15.9 8.3,-4 17.2,-6.5 26.4,-7.6 q 7.5,-0.6 14.9,0.2 7.5,0.7 14.7,2.7 7.3,2 14,5.2 6.8,3.3 12.9,7.6 c 12.7,-36.8 37,-68.6 69.3,-90.4 32.4,-21.7 70.9,-32.4 109.8,-30.2 39,2.1 76.1,16.9 105.9,42.1 29.7,25.1 50.4,59.3 59,97.4 1.6,1.6 0,3.1 0,4.7 l -15.7,40.8 c -3.4,8.1 -7.9,15.6 -13.3,22.5 -5.4,6.9 -11.7,13 -18.7,18.2 -7,5.3 -14.6,9.5 -22.8,12.7 -8.1,3.2 -16.6,5.3 -25.3,6.3 l -274.9,3.2 c -3.1,0 -4.7,1.5 -6.3,4.7 q -0.5,0.4 -0.8,1 -0.3,0.6 -0.3,1.3 0,0.7 0.3,1.3 0.3,0.7 0.8,1.1 c 1.6,0 3.2,1.5 4.8,1.5 l 273.2,3.2 q 4.8,0.4 9.4,1.8 4.6,1.3 8.9,3.5 4.2,2.3 7.9,5.3 3.8,3 6.8,6.7 c 2,2.9 3.6,6.1 4.9,9.5 1.2,3.3 2,6.8 2.4,10.3 0.4,3.5 0.4,7.1 0,10.7 -0.4,3.5 -1.3,7 -2.6,10.3 z" />
  <path
     id="path2"
     class="s2"
     d="m 1466.8,156.1 c 18,7.5 34.4,18.5 48.2,32.4 13.9,13.8 24.9,30.2 32.4,48.2 7.6,18.1 11.5,37.4 11.6,57 q -0.1,5.2 -0.6,10.3 -0.5,5.2 -1.3,10.3 -0.8,5.1 -1.9,10.2 -1.1,5 -2.5,10 0.2,1 -0.1,1.9 -0.3,1 -1,1.7 -0.7,0.7 -1.7,1 -0.9,0.3 -1.9,0.1 h -207.3 c -3.1,0 -4.7,-3.1 -3.1,-4.7 l 3.1,-14.1 c 3.4,-8 7.9,-15.6 13.3,-22.5 5.4,-6.9 11.7,-13 18.7,-18.2 7,-5.2 14.6,-9.5 22.8,-12.7 8.1,-3.2 16.6,-5.3 25.3,-6.3 l 59.7,-3.1 c 3.1,0 4.7,-1.6 6.3,-4.7 q 0.5,-0.5 0.8,-1.1 0.4,-0.6 0.4,-1.3 0,-0.7 -0.4,-1.3 -0.3,-0.6 -0.8,-1 c -1.6,0 -3.2,-1.6 -4.7,-1.6 l -58.1,-3.2 q -4.8,-0.4 -9.4,-1.7 -4.6,-1.4 -8.9,-3.6 -4.2,-2.2 -7.9,-5.2 -3.8,-3.1 -6.8,-6.7 c -2,-3 -3.6,-6.2 -4.9,-9.5 -1.2,-3.4 -2,-6.8 -2.4,-10.4 -0.4,-3.5 -0.4,-7.1 0,-10.6 0.4,-3.6 1.3,-7 2.6,-10.4 l 11,-37.7 c 1.5,-1.5 3.1,-3.1 4.7,-3.1 h 7.8 c 19.6,0.1 38.9,4.1 57,11.6 z" />
  <path
     id="path3"
     fill-rule="evenodd"
     class="s3"
     d="m 1579.4,427.2 c -5.7,0 -10.8,-3.4 -13,-8.7 -2.2,-5.3 -1,-11.4 3,-15.4 4.1,-4.1 10.2,-5.3 15.5,-3.1 5.2,2.2 8.7,7.3 8.7,13.1 0,1.8 -0.4,3.7 -1.1,5.4 -0.7,1.7 -1.7,3.3 -3,4.6 -1.4,1.3 -2.9,2.3 -4.6,3 -1.8,0.7 -3.6,1.1 -5.5,1.1 z m 0,-25.1 c -4.4,0 -8.4,2.6 -10.1,6.8 -1.7,4.1 -0.8,8.8 2.4,11.9 3.1,3.2 7.8,4.1 11.9,2.4 4.2,-1.7 6.8,-5.7 6.8,-10.1 0.1,-1.5 -0.2,-2.9 -0.7,-4.3 -0.6,-1.3 -1.4,-2.6 -2.4,-3.6 -1,-1 -2.3,-1.8 -3.6,-2.4 -1.4,-0.5 -2.8,-0.8 -4.3,-0.7 z m 6.3,18.8 h -3.1 l -3.2,-4.7 h -3.1 v 4.7 h -3.1 v -14.1 h 7.8 q 1,-0.2 1.9,0.2 0.9,0.3 1.6,1 0.7,0.7 1.1,1.6 0.3,0.9 0.1,1.9 c 0,1.6 -1.5,3.1 -3.1,4.7 z m -4.7,-7.8 c 1.5,0 1.5,0 1.5,-1.6 q 0,-0.3 -0.1,-0.6 -0.1,-0.3 -0.3,-0.5 -0.2,-0.3 -0.5,-0.4 -0.3,-0.1 -0.6,-0.1 h -4.7 v 4.7 h 4.7 z M 172.2,399 h 34.5 v 94.2 h 59.7 v 29.9 h -94.2 z m 130.3,61.2 c 0,-8.7 1.8,-17.3 5.2,-25.4 3.5,-8 8.5,-15.2 14.8,-21.2 6.3,-6.1 13.8,-10.7 22,-13.8 8.1,-3 16.8,-4.4 25.5,-4 8.7,-0.4 17.3,1 25.4,4.1 8.1,3.1 15.4,7.8 21.6,13.8 6.2,6.1 11.1,13.3 14.3,21.3 3.3,8 4.9,16.6 4.7,25.2 0,8.7 -1.8,17.4 -5.2,25.4 -3.4,8 -8.5,15.3 -14.8,21.3 -6.3,6 -13.8,10.7 -21.9,13.7 -8.2,3.1 -16.9,4.4 -25.6,4 -8.6,0.3 -17.2,-1.2 -25.2,-4.3 -8,-3.2 -15.3,-7.9 -21.5,-13.9 -6.1,-6 -11,-13.2 -14.3,-21.1 -3.4,-8 -5,-16.5 -5,-25.1 z m 99,0 c 0.3,-4.3 -0.3,-8.7 -1.7,-12.8 -1.5,-4.2 -3.7,-7.9 -6.7,-11.2 -2.9,-3.2 -6.5,-5.8 -10.4,-7.6 -4,-1.8 -8.3,-2.8 -12.7,-2.9 -8.4,0.4 -16.4,4 -22.3,10.2 -5.8,6.1 -9.1,14.3 -9.1,22.7 0,8.5 3.3,16.7 9.1,22.8 5.9,6.2 13.9,9.8 22.3,10.2 18.9,3.2 31.5,-12.5 31.5,-31.4 z m 76.9,7.9 V 399 H 513 v 69.1 c 0,17.2 9.4,26.7 23.5,26.7 3.3,0.2 6.7,-0.2 9.7,-1.4 3.1,-1.2 5.9,-3.1 8.2,-5.5 2.2,-2.4 3.9,-5.3 4.9,-8.5 1,-3.1 1.3,-6.5 0.8,-9.8 V 399 h 34.5 v 69.1 c 0,40.8 -23.5,58.1 -58.1,58.1 -36.1,-1.6 -58.1,-18.9 -58.1,-58.1 z M 695.2,399 c 43.9,0 70.6,25.1 70.6,61.2 0,36.1 -26.7,62.8 -70.6,62.8 H 648 V 399 Z m 0,92.6 c 8.9,0.9 17.7,-2.1 24.3,-8 6.5,-6 10.3,-14.5 10.3,-23.4 0,-8.9 -3.8,-17.4 -10.3,-23.3 -6.6,-6 -15.4,-8.9 -24.3,-8.1 h -14.1 v 62.8 z M 814.6,399 h 98.9 v 29.8 h -64.4 v 20.4 h 58.1 v 28.3 H 849.1 V 523 h -34.5 z m 147.6,0 h 34.6 v 94.3 h 59.6 v 29.8 h -94.2 z m 183.8,-1.6 h 34.5 l 53.4,125.7 h -37.7 l -9.4,-22 h -48.7 l -9.4,22 h -36.1 z m 31.4,77 -14.2,-34.6 -14.1,34.6 z M 1277.9,399 h 58.1 q 5.6,-0.5 11.1,0.2 5.6,0.7 10.8,2.5 5.3,1.9 10.1,4.7 4.8,2.9 8.9,6.7 c 4.5,4.9 7.7,10.7 9.5,17.1 1.7,6.4 1.9,13.1 0.6,19.6 -1.4,6.4 -4.4,12.5 -8.6,17.6 -4.2,5.1 -9.6,9.1 -15.7,11.7 l 29.9,43.9 h -39.3 l -25.1,-37.7 h -15.7 V 523 h -34.6 z m 56.6,59.7 c 11,0 18.8,-6.3 18.8,-14.1 0,-9.4 -7.8,-14.1 -18.8,-14.1 h -22 v 29.8 h 22 z M 1436.6,399 h 100.5 v 28.3 h -66 v 18.8 h 59.7 v 28.3 h -59.7 v 18.8 h 67.5 v 29.9 h -102 z M 133,475.9 c -2,7.2 -5.1,14.1 -9.2,20.3 -4.2,6.2 -9.3,11.6 -15.2,16.1 -6,4.6 -12.6,8.1 -19.7,10.4 -7,2.4 -14.4,3.6 -21.9,3.5 C 58.4,526.5 49.8,525 41.8,521.9 33.8,518.7 26.5,514 20.3,508 14.2,502 9.3,494.8 6,486.9 c -3.3,-8 -5,-16.5 -5,-25.1 0.2,-8.7 2,-17.2 5.5,-25.2 3.5,-8 8.5,-15.2 14.8,-21.1 6.3,-6 13.7,-10.7 21.8,-13.8 8.1,-3.1 16.8,-4.6 25.5,-4.3 7.6,-0.3 15.2,0.8 22.4,3.2 7.3,2.3 14.1,5.9 20,10.7 6,4.7 11.2,10.4 15.2,16.9 4,6.4 6.8,13.6 8.3,21 H 98.4 c -1.2,-2.9 -2.8,-5.7 -4.9,-8.2 -2,-2.4 -4.3,-4.6 -7,-6.4 -2.6,-1.8 -5.5,-3.2 -8.5,-4.2 -3.1,-1 -6.2,-1.5 -9.4,-1.6 -8.5,0.4 -16.5,4.1 -22.3,10.2 -5.9,6.2 -9.1,14.3 -9.1,22.8 0,8.5 3.2,16.6 9.1,22.8 5.8,6.1 13.8,9.8 22.3,10.2 3,0 6,-0.5 8.8,-1.4 2.9,-0.9 5.6,-2.2 8.1,-3.8 2.5,-1.7 4.8,-3.7 6.7,-6 1.9,-2.3 3.5,-4.9 4.6,-7.7 z" />
</svg>
