<?xml version="1.0" encoding="UTF-8" standalone="no"?>
<svg
   version="1.2"
   viewBox="0 0 1590 267"
   width="1590"
   height="267"
   id="svg1"
   sodipodi:docname="DOCN_BIG.svg"
   xmlns:inkscape="http://www.inkscape.org/namespaces/inkscape"
   xmlns:sodipodi="http://sodipodi.sourceforge.net/DTD/sodipodi-0.dtd"
   xmlns="http://www.w3.org/2000/svg"
   xmlns:svg="http://www.w3.org/2000/svg">
  <defs
     id="defs1" />
  <sodipodi:namedview
     id="namedview1"
     pagecolor="#ffffff"
     bordercolor="#000000"
     borderopacity="0.25"
     inkscape:showpageshadow="2"
     inkscape:pageopacity="0.0"
     inkscape:pagecheckerboard="0"
     inkscape:deskcolor="#d1d1d1" />
  <title
     id="title1">logo</title>
  <style
     id="style1">
		.s0 { fill: #0069ff } 
	</style>
  <path
     id="Layer"
     fill-rule="evenodd"
     class="s0"
     d="m 134.1,267 v -51.7 c 55.1,0 97.5,-54.2 76.4,-112 C 202.9,82.1 185.7,65 164.4,57.3 106.4,36.4 51.9,78.9 51.9,133.5 H 0 C 0,46.2 84.7,-22 176.5,6.6 216.6,19 248.4,51 261.2,91 289.8,182.6 221.7,267 134.1,267 Z M 82.5,164.2 h 51.6 v 51.4 H 82.5 Z m -39.8,51.4 h 39.8 v 39.6 H 42.7 Z m -33.5,0 v -32.9 h 33.2 v 32.9 z" />
  <path
     id="path1"
     fill-rule="evenodd"
     class="s0"
     d="m 496.2,101.7 c 4.8,10.2 7.1,22.2 7.1,35.9 0,13.6 -2.6,25.7 -7.1,36.1 -4.4,10.5 -11.1,18.8 -19.4,24.8 -15.3,11.1 -34.4,16.8 -56.7,16.8 H 371.7 V 61.8 h 48.4 c 22.3,0 41.4,5.4 56.7,15.8 8.6,5.4 15,13.7 19.4,24.1 z M 400.4,87.5 V 189 h 15.3 c 17.2,0 30.9,-3.5 41.1,-10.2 11.8,-7.6 17.8,-21.5 17.8,-41.5 0,-19.4 -6,-33 -17.8,-40 -10.5,-6.7 -24.6,-9.8 -41.4,-9.8 z m 149,-23.2 c 3.2,3.2 4.8,7 4.8,11.8 0,4.7 -1.6,8.8 -4.8,12 -3.5,3.2 -7.3,4.8 -12.1,4.8 -4.8,0 -8.9,-1.6 -12.1,-4.8 -3.2,-3.5 -4.8,-7.3 -4.8,-12 0,-4.8 1.9,-8.6 5.1,-11.8 3.2,-3.2 7,-4.7 11.8,-4.7 4.5,0 8.6,1.9 12.1,4.7 z m -26.1,42.5 h 27.4 V 215 h -27.4 z m 126.4,0 h 26.8 v 98.3 c 0,16.2 -5.1,29.5 -14.7,39.3 -9.5,9.9 -22.6,14.9 -38.8,14.9 -11.8,0 -22.3,-2.8 -30.3,-7.9 q -11.9,-7.6 -18.2,-16.2 l -0.6,-0.6 18.5,-17.8 c 9.9,12.7 17.5,17.8 30.2,17.8 8,0 14.7,-2.5 19.5,-7.3 4.4,-4.7 7,-11.7 7,-20.6 v -2.5 c -7.7,5.7 -16.6,8.5 -27.1,8.5 -15,0 -27.7,-5.1 -37.3,-15.2 -9.5,-10.5 -14.3,-23.5 -14.3,-38.7 0,-15.5 4.8,-28.5 14.7,-38.7 9.5,-10.5 22.3,-15.5 37.2,-15.5 9.9,0 19.1,4.1 27.4,11.4 z m -0.3,51.7 c 0,-8.6 -2.2,-15.9 -7,-21.3 -4.8,-5.4 -10.8,-7.9 -18.8,-7.9 -7.6,0 -13.7,2.5 -18.5,7.9 -4.7,5.4 -7,12.4 -7,21.3 0,8.9 2.3,15.8 7,21.2 4.5,5.4 10.5,8 18.5,8 8,0 14,-2.6 18.8,-8 4.8,-5.4 7.3,-12.3 7,-21.2 z m 50.3,-51.7 h 27.4 v 108.1 h -27.4 z m 26.2,-42.5 c 3.2,3.2 4.7,7 4.7,11.8 0,4.7 -1.5,8.9 -4.7,12 -3.5,3.2 -7.4,4.8 -12.1,4.8 -4.8,0 -9,-1.6 -12.1,-4.8 -3.2,-3.5 -4.8,-7.3 -4.8,-12 0,-4.8 1.9,-8.6 5.1,-11.8 3.2,-3.1 7,-4.7 11.8,-4.7 4.7,0 8.6,1.9 12.1,4.7 z m 61.1,42.9 h 25.5 v 24.7 H 787 v 40.9 c 0,7.3 1,12.1 3.2,14.3 2.2,2.2 6.7,3.5 13.1,3.5 l 9.2,-0.7 v 24.8 h -1.3 c -4.4,0.3 -8.9,0.3 -13.4,0.3 -13.7,0 -23.5,-3.2 -29.3,-8.9 -5.4,-5.7 -8.2,-15.8 -8.2,-29.8 v -44.7 h -15.6 v -24.8 h 15.6 V 77.7 H 787 Z M 940.5,61.5 h 27.4 V 215 h -27.4 z m 321.1,131.9 c -10.8,15.6 -26.8,24.2 -46.5,24.2 -15,0 -28,-5.4 -38.5,-16.2 -10.6,-10.5 -16,-24.1 -16,-40.3 0,-16.2 5.4,-29.5 16,-40.3 10.5,-10.8 23.5,-16.2 38.5,-16.2 17.8,0 32.8,7 44.6,22.2 l -18.2,17.2 c -7.9,-9.5 -17.2,-14.9 -26.1,-14.9 -8,0 -14.6,2.8 -19.7,8.8 q -7.7,9.1 -7.7,22.9 c 0,9.2 2.9,16.8 8,22.8 5.1,6 11.8,8.9 19.7,8.9 5.4,0 10.2,-1 14,-3.5 3.9,-2.5 9,-7.3 13.7,-12.7 z m 103.2,-53.6 q 2.9,9.5 2.9,20 l -0.3,9.8 h -72.3 c 0.6,7 3.2,12.4 7.6,16.5 4.8,4.5 10.9,6.7 18.5,6.7 5.1,0 9.6,-1.3 13.7,-3.2 2.9,-1.3 5.4,-3.2 8,-5.7 1.9,-2.2 4.4,-4.4 6,-6.3 l 17.8,17.1 -0.6,0.6 q -17.2,21.9 -44.9,21.9 c -16.2,0 -29.6,-5.4 -39.5,-15.5 -9.9,-10.5 -15,-23.8 -15,-40.3 0,-15.9 4.5,-29.5 13.7,-40.6 9.3,-10.8 21.7,-16.5 37,-16.5 8.6,0 16.2,1.6 22.6,4.8 6.4,3.1 11.8,7.6 15.6,13 3.8,5.3 6.7,11.1 9.2,17.7 z m -68.8,7.9 h 42.1 c -0.3,-5 -2.2,-9.2 -5.4,-12.6 q -5.3,-5.7 -15.3,-5.7 c -5.8,0 -10.5,1.9 -14.4,5.3 -3.1,3.2 -5.7,7.7 -7,12.7 z m 177.1,-2.2 V 215 h -26.7 v -8.9 c -8.9,7.3 -18.5,11.4 -29,11.4 -10.5,0 -19.4,-2.8 -26.4,-8.9 -7,-6 -10.5,-14.2 -10.5,-24.4 0,-11.4 4.1,-20.6 12.4,-27 8.3,-6.3 19.1,-9.5 32.8,-9.5 6.7,0 13.4,1.3 20,3.2 v -5.4 c 0,-5.1 -1.9,-8.9 -5.4,-11.7 -3.5,-2.9 -8.2,-4.5 -14,-4.5 -10.5,0 -18.5,4.2 -25.8,15.6 l -17.5,-16.8 -0.3,-0.4 c 4.4,-7.9 11.5,-13.9 18.5,-17.4 7.6,-3.8 15.9,-5.7 25.1,-5.7 14.4,0 25.8,3.5 34.1,10.5 8.3,6.9 12.4,17.1 12.7,30.4 z m -65.6,36.5 c 0,3.5 1.3,6 3.8,7.9 2.6,2.2 6.1,3.2 10.9,3.2 9.5,0 17.5,-2.9 23.5,-8.3 v -10.4 c -7,-2.6 -14,-3.8 -20.7,-3.8 -5.7,0 -9.8,0.9 -13,3.1 -3.2,1.9 -4.5,4.8 -4.5,8.3 z m 181.9,-29.8 v 62.5 H 1562 v -62.5 c 0,-7.3 -1.6,-13 -5.1,-17.2 -3.5,-4.1 -8.3,-6 -14.3,-6 -7,0 -12.5,2.2 -16.3,7 -3.8,4.8 -5.7,11.1 -5.7,19.3 V 215 h -27.4 V 106.8 h 26.8 v 6.7 c 6.3,-6.1 15.2,-9.2 26.1,-9.2 13.7,0 24.2,4.1 31.8,12.7 q 11.5,12.8 11.5,35.2 z M 918.9,145.5 V 215 h -26.7 v -8.9 c -8.9,7.3 -18.5,11.4 -29,11.4 -10.5,0 -19.4,-2.8 -26.4,-8.9 -7,-6 -10.5,-14.2 -10.5,-24.4 0,-11.4 4.1,-20.6 12.4,-27 8.3,-6.3 19.1,-9.5 32.8,-9.5 6.7,0 13.4,1.3 20.1,3.2 v -5.4 c 0,-5.1 -2,-8.9 -5.5,-11.7 -3.5,-2.9 -8.2,-4.5 -14,-4.5 -10.5,0 -18.4,4.2 -25.8,15.6 l -17.5,-16.8 -0.3,-0.4 c 4.4,-7.9 11.5,-13.9 18.5,-17.4 7.6,-3.8 15.9,-5.7 25.1,-5.7 14.4,0 25.8,3.5 34.1,10.5 8.3,6.9 12.4,17.1 12.7,30.4 z M 853.3,182 c 0,3.5 1.3,6 3.9,7.9 2.5,2.2 6,3.2 10.8,3.2 9.5,0 17.5,-2.9 23.5,-8.3 v -10.4 c -7,-2.6 -14,-3.8 -20.7,-3.8 -5.7,0 -9.8,0.9 -13,3.1 -3.2,1.9 -4.5,4.8 -4.5,8.3 z m 213.4,35.2 c -43.8,0 -79.3,-35.3 -79.3,-79 0,-43.7 35.5,-79 79.3,-79 43.9,0 79.3,35.3 79.3,79 0,43.7 -35.4,79 -79.3,79 z m 51.3,-79.3 c 0,-28.2 -22.9,-51.1 -51.3,-51.1 -28.4,0 -51.3,22.9 -51.3,51.1 0,28.2 22.9,51.1 51.3,51.1 28.4,0 51.3,-22.9 51.3,-51.1 z" />
</svg>
