<?xml version="1.0" encoding="UTF-8" standalone="no"?>
<svg
   version="1.2"
   viewBox="0 0 1559 514"
   width="1559"
   height="514"
   id="svg5"
   xmlns="http://www.w3.org/2000/svg"
   xmlns:svg="http://www.w3.org/2000/svg">
  <defs
     id="defs5" />
  <title
     id="title1">Google_2015_logo-svg</title>
  <style
     id="style1">
		tspan { white-space:pre }
		.shp0 { fill: #ea4335 } 
		.shp1 { fill: #fbbc05 } 
		.shp2 { fill: #4285f4 } 
		.shp3 { fill: #34a853 } 
	</style>
  <path
     id="Layer"
     fill-rule="evenodd"
     class="shp0"
     d="m 666.97,270.82 c 0,73.85 -57.74,128.26 -128.59,128.26 -70.86,0 -128.6,-54.41 -128.6,-128.26 0,-74.36 57.74,-128.25 128.6,-128.25 70.85,0 128.59,53.89 128.59,128.25 z m -56.29,0 c 0,-46.14 -33.47,-77.71 -72.3,-77.71 -38.84,0 -72.31,31.57 -72.31,77.71 0,45.69 33.47,77.72 72.31,77.72 38.83,0 72.3,-32.09 72.3,-77.72 z" />
  <path
     id="path1"
     fill-rule="evenodd"
     class="shp1"
     d="m 944.38,270.82 c 0,73.85 -57.74,128.26 -128.59,128.26 -70.86,0 -128.6,-54.41 -128.6,-128.26 0,-74.3 57.74,-128.25 128.6,-128.25 70.85,0 128.59,53.89 128.59,128.25 z m -56.29,0 c 0,-46.14 -33.47,-77.71 -72.3,-77.71 -38.84,0 -72.3,31.57 -72.3,77.71 0,45.69 33.46,77.72 72.3,77.72 38.83,0 72.3,-32.09 72.3,-77.72 z" />
  <path
     id="path2"
     fill-rule="evenodd"
     class="shp2"
     d="m 1210.23,380.58 c 0,94.72 -55.83,133.4 -121.83,133.4 -62.13,0 -99.52,-41.57 -113.62,-75.58 l 49.01,-20.41 c 8.72,20.88 30.11,45.51 64.55,45.51 42.25,0 68.43,-26.08 68.43,-75.17 v -18.45 h -1.96 c -12.6,15.55 -36.88,29.14 -67.51,29.14 -64.09,0 -122.81,-55.86 -122.81,-127.73 0,-72.4 58.72,-128.72 122.81,-128.72 30.58,0 54.85,13.58 67.51,28.68 h 1.96 v -20.88 h 53.46 z m -49.47,-109.29 c 0,-45.17 -30.11,-78.18 -68.43,-78.18 -38.84,0 -71.37,33.01 -71.37,78.18 0,44.7 32.53,77.25 71.37,77.25 38.32,0 68.43,-32.55 68.43,-77.25 z" />
  <path
     id="path3"
     class="shp3"
     d="m 1298.37,15.35 v 375.87 h -54.91 V 15.35 Z" />
  <path
     id="path4"
     fill-rule="evenodd"
     class="shp0"
     d="m 1512.32,313.04 43.69,29.14 c -14.1,20.88 -48.08,56.84 -106.8,56.84 -72.82,0 -127.2,-56.32 -127.2,-128.25 0,-76.28 54.84,-128.26 120.9,-128.26 66.52,0 99.06,52.97 109.69,81.59 l 5.84,14.57 -171.36,71.01 c 13.12,25.74 33.52,38.86 62.13,38.86 28.67,0 48.55,-14.11 63.11,-35.5 z m -19.94,-93.74 c -6.3,-16.02 -25.25,-27.18 -47.56,-27.18 -28.61,0 -68.43,25.27 -66.99,74.77 z" />
  <path
     id="path5"
     class="shp2"
     d="m 201.96,237.46 v -54.42 h 183.26 c 1.79,9.49 2.72,20.71 2.72,32.85 0,40.82 -11.16,91.31 -47.11,127.27 -34.96,36.43 -79.64,55.86 -138.82,55.86 C 92.32,399.02 0.08,309.62 0.08,199.87 0.08,90.12 92.32,0.72 202.01,0.72 c 60.69,0 103.92,23.82 136.4,54.87 l -38.38,38.4 C 276.74,72.13 245.19,55.13 201.96,55.13 121.85,55.13 59.2,119.72 59.2,199.87 c 0,80.15 62.65,144.74 142.76,144.74 51.95,0 81.54,-20.88 100.5,-39.84 15.37,-15.38 25.49,-37.36 29.47,-67.37 z" />
</svg>
