<?xml version="1.0" encoding="UTF-8" standalone="no"?>
<svg
   version="1.2"
   viewBox="0 0 1528 641"
   width="1528"
   height="641"
   id="svg1"
   sodipodi:docname="GS_BIG.svg"
   xmlns:inkscape="http://www.inkscape.org/namespaces/inkscape"
   xmlns:sodipodi="http://sodipodi.sourceforge.net/DTD/sodipodi-0.dtd"
   xmlns="http://www.w3.org/2000/svg"
   xmlns:svg="http://www.w3.org/2000/svg">
  <defs
     id="defs1" />
  <sodipodi:namedview
     id="namedview1"
     pagecolor="#ffffff"
     bordercolor="#000000"
     borderopacity="0.25"
     inkscape:showpageshadow="2"
     inkscape:pageopacity="0.0"
     inkscape:pagecheckerboard="0"
     inkscape:deskcolor="#d1d1d1" />
  <title
     id="title1">GS</title>
  <style
     id="style1">
		.s0 { opacity: .95;fill: #000000 } 
	</style>
  <path
     class="s0"
     d="m 344.9,63 c -58.6,0 -94.8,44.4 -94.8,119.9 0,74.9 36.2,119.8 94.8,119.8 58.6,0 94.8,-44.3 94.8,-119.8 C 439.7,107.4 404.1,63 344.9,63 Z m 0,226 c -22.5,0 -29.3,-24.4 -29.3,-106.7 0,-82.4 6.8,-106.8 29.3,-106.8 22.4,0 29.3,25 29.3,107.4 0,81.7 -6.9,106.1 -29.3,106.1 z m 432.2,113 c -25,0 -43,9.3 -53.6,25.5 v -82.3 h -63 v 152.9 c 0,83 -47.4,122.3 -90.5,122.3 -31.8,0 -44.9,-21.8 -44.9,-96.7 0,-74.9 8.1,-108.6 33.7,-108.6 16.8,0 31.2,16.2 45.5,53.6 h 15.6 V 413.2 C 601.2,405.7 578.1,402 560.1,402 c -64.3,0 -100.5,46.1 -100.5,121.7 0,74.9 36.2,117.3 97.3,117.3 50.6,0 86.7,-26.8 103.6,-72.4 v 66.8 h 63 V 465.6 c 0,-26.2 14.3,-39.3 29.3,-39.3 14.3,0 19.3,11.9 19.3,30 V 636 h 63 V 468.1 C 835.1,421.3 812,402 777.1,402 Z M 478.4,6.2 v 290.9 h 62.9 V 6.2 Z m 227.1,0 V 85.5 C 699.8,71.8 686.1,63 664.3,63 615,63 582,107.4 582,181.6 c 0,76.2 29.3,120.5 79.8,120.5 23.7,0 39.9,-11.2 47.4,-34.3 v 28.7 h 58.6 V 6.2 Z M 674.3,284 c -19.9,0 -26.8,-20 -26.8,-103 0,-78 6.9,-101.1 28.1,-101.1 23.1,0 31.2,27.5 31.2,101.1 0,74.3 -10.6,103 -32.5,103 z M 1039.8,63 c -28,0 -48.6,15 -57.4,35.6 C 973.7,74.9 956.2,63 931.3,63 904.5,63 885.1,74.9 875.8,94.2 V 68.7 h -58.6 v 228.4 h 62.3 V 126.7 c 0,-26.2 12.5,-39.3 28.1,-39.3 13.1,0 18.7,10.6 18.7,28.7 v 181 h 63 V 126.7 c 0,-26.2 12.5,-39.3 28.1,-39.3 13.1,0 18.7,10.6 18.7,28.7 v 181 h 63 V 129.2 C 1099.1,82.4 1075.4,63 1039.8,63 Z M 988.1,501.8 951.9,480 c -24.3,-14.4 -33.1,-23.1 -33.1,-38.1 0,-16.9 11.9,-27.5 31.8,-27.5 23.7,0 41.2,15.6 51.8,53.7 h 15.6 v -58.7 c -20,-4.3 -42.4,-8.1 -62.4,-8.1 -50.5,0 -81.1,25 -81.1,65.6 0,28.1 15.6,47.4 47.4,66.7 l 30,18.1 c 24.9,15 33.7,25.6 33.7,42.5 0,21.8 -13.8,33.1 -37.5,33.1 -29.3,0 -46.1,-18.8 -57.3,-59.9 h -15.6 v 64.2 c 23,6.3 47.4,8.8 67.3,8.8 57.4,0 90.5,-26.9 90.5,-71.8 -0.7,-30.6 -15.6,-49.3 -44.9,-66.8 z M 1228.2,63 c -23.7,0 -51.8,4.4 -78,12.5 v 53.7 h 15.6 c 13.1,-33.7 30.6,-52.4 55.5,-52.4 15.6,0 21.8,7.5 21.8,24.9 v 29.4 c 0,14.3 -3.7,18.7 -19.9,24.3 l -16.9,5.6 c -49.9,16.9 -72.3,38.7 -72.3,78 0,41.9 24.9,63.7 61.1,63.7 25.6,0 47.4,-11.2 54.3,-33.1 v 27.5 h 57.3 v -166 C 1306.1,86.1 1279.3,63 1228.2,63 Z m 14.9,172.9 c 0,30 -9.9,43.7 -25.5,43.7 -15,0 -20,-11.8 -20,-42.4 v -6.3 c 0,-35.5 7.5,-49.9 28.1,-60.5 l 17.4,-8.7 z M 1470.1,63 c -27.4,0 -47.4,11.8 -57.3,31.2 V 68.6 h -59.3 V 297 h 63 V 126 c 0,-26.2 14.4,-39.3 29.3,-39.3 14.4,0 19.4,11.8 19.4,29.9 v 179.8 h 62.9 V 129.1 c 0,-46.8 -23,-66.1 -58,-66.1 z M 223.4,537.9 c 0,58.7 -42.4,98 -110.4,98 H 13.3 V 531.7 h 14.9 c 13.7,61.8 39.3,89.3 82.3,89.3 35,0 53.7,-18.8 53.7,-49.4 0,-32.4 -20,-47.4 -49.3,-64.2 L 70.6,481.1 C 33.2,459.3 12,432.5 12,395 12,353.2 36.3,326.4 75.6,315.1 20.1,300.1 0.2,249.6 0.2,159.7 0.2,57.3 42.6,-0.1 129.3,-0.1 h 80.4 V 86.1 H 194.1 C 175.4,31.1 159.2,14.3 129.9,14.3 86.8,14.3 75,60.5 75,162.2 c 0,117.3 10.6,143.6 42.4,143.6 24.3,0 36.2,-15.6 36.2,-52.5 v -44.9 c 0,-27.5 -8.7,-37.5 -37.4,-41.8 v -14.4 h 96 V 397.5 H 197.9 C 176,335.7 148,322 116.8,322 c -30.6,0 -49.3,14.3 -49.3,42.4 0,26.2 15.6,38.7 44.9,56.2 l 48,28.7 c 38.1,23.7 63,45.6 63,88.6 z m 121,-136 c -23.7,0 -51.7,4.3 -77.9,12.5 V 468 h 15.6 c 13.1,-33.7 30.5,-52.4 55.5,-52.4 15.6,0 21.8,7.5 21.8,25 v 28.7 c 0,14.3 -3.7,18.7 -20,24.3 l -16.8,5.6 c -49.9,16.9 -72.3,38.7 -72.3,78.1 0,41.8 24.9,63.6 61.1,63.6 25.5,0 47.4,-11.2 54.2,-33.1 v 27.5 h 56.8 V 470.5 c 0,-45.5 -27.5,-68.6 -78,-68.6 z m 15,172.9 c 0,29.9 -10,43.7 -25.6,43.7 -14.9,0 -19.9,-11.9 -19.9,-42.5 v -6.2 c 0,-35.6 7.4,-50 28,-60.6 l 17.5,-8.7 z"
     id="path1" />
</svg>
