<?xml version="1.0" encoding="UTF-8" standalone="no"?>
<svg
   version="1.2"
   viewBox="0 0 1552 220"
   width="1552"
   height="220"
   id="svg1"
   sodipodi:docname="JPM_BIG.svg"
   xmlns:inkscape="http://www.inkscape.org/namespaces/inkscape"
   xmlns:sodipodi="http://sodipodi.sourceforge.net/DTD/sodipodi-0.dtd"
   xmlns="http://www.w3.org/2000/svg"
   xmlns:svg="http://www.w3.org/2000/svg">
  <defs
     id="defs1" />
  <sodipodi:namedview
     id="namedview1"
     pagecolor="#ffffff"
     bordercolor="#000000"
     borderopacity="0.25"
     inkscape:showpageshadow="2"
     inkscape:pageopacity="0.0"
     inkscape:pagecheckerboard="0"
     inkscape:deskcolor="#d1d1d1" />
  <title
     id="title1">jpmc-logo-svg</title>
  <style
     id="style1">
		.s0 { fill: #000000 } 
	</style>
  <path
     id="Layer"
     fill-rule="evenodd"
     class="s0"
     d="m 415.2,161.5 q 5.8,2.4 17.3,3.1 v 3.2 h -86.3 v -3.2 q 11.4,-0.7 17.3,-3.1 5.8,-2.3 8,-7.5 2.3,-5.1 2.3,-15.1 V 34.7 h -0.7 l -59.2,136.2 h -0.7 L 249.7,35.1 H 249 v 103.8 q 0,10 2.4,15.1 2.3,5.2 8,7.5 5.8,2.4 17.2,3.1 v 3.2 h -65.8 v -3.2 q 11.4,-0.7 17.2,-3.1 5.7,-2.3 8,-7.5 2.4,-5.1 2.4,-15.1 V 34.4 q 0,-10 -2.4,-15.2 -2.3,-5.1 -8,-7.4 -5.8,-2.4 -17.2,-3.1 V 5.5 h 59.1 L 323.8,123.1 376.2,5.5 h 56.3 v 3.2 q -11.5,0.7 -17.3,3.1 -5.9,2.3 -8.2,7.6 -2.4,5.2 -2.3,15 v 104.5 q -0.1,10 2.3,15.1 2.3,5.2 8.2,7.5 z M 532.5,82.8 q 7.3,13.3 7.3,30.1 0,16.8 -7.3,30.2 -7.2,13.3 -20.2,20.5 -13,7.3 -29.6,7.3 -16.6,0 -29.5,-7.3 -12.9,-7.2 -20.3,-20.5 -7.3,-13.4 -7.3,-30.2 0,-16.8 7.3,-30.1 7.4,-13.3 20.3,-20.6 12.9,-7.2 29.5,-7.2 16.6,0 29.6,7.2 13,7.3 20.2,20.6 z m -23.4,30.1 q 0,-16.6 -3.1,-28.5 -3.2,-11.9 -9.2,-18.1 -5.9,-6.2 -14.1,-6.2 -8.2,0 -14.2,6.2 -5.9,6.2 -9.1,18.1 -3.2,11.9 -3.2,28.5 0,16.6 3.2,28.5 3.2,11.9 9.1,18.1 6,6.2 14.2,6.2 8.2,0 14.1,-6.2 6,-6.1 9.2,-18.1 3.1,-11.9 3.1,-28.5 z M 589.4,100 v 45.9 q 0,7.2 1.7,10.9 1.6,3.6 5.7,5.3 4.1,1.8 12.3,2.5 v 3.3 H 544 v -3.3 q 8.2,-1 12,-2.7 3.7,-1.7 5.1,-5.3 1.4,-3.5 1.4,-10.7 V 88 q 0,-5.9 -1.9,-9.3 -1.8,-3.4 -6.2,-4.9 -4.3,-1.5 -12.3,-1.5 v -3 l 46.4,-13.4 h 0.9 v 36.6 h 0.5 c 4.1,-14.5 8.4,-21.7 13.9,-28 q 8.3,-9.5 19.1,-9.5 4.2,0 7.2,1.4 V 82.1 Q 625.2,80 619.1,80 c -14,0 -24.8,8.5 -29.7,20 z m 376.3,61.9 q 3.6,1.7 11.3,2.7 v 3.2 h -60.1 v -3.2 q 6.5,-1 9.7,-2.7 3.2,-1.8 4.5,-5.4 1.2,-3.6 1.2,-10.9 V 93.1 c 0,-12.1 -4.3,-22.7 -18.4,-22.7 -10.3,0 -16.7,6.3 -22,12.8 v 62.4 q 0,7.3 1.1,10.9 1.2,3.6 4.6,5.4 3.4,1.7 9.7,2.7 v 3.2 h -60.9 v -3.2 q 8.2,-1 12,-2.7 3.7,-1.8 5.1,-5.4 1.4,-3.6 1.4,-10.9 V 87.7 q 0,-5.8 -1.8,-9.1 -1.9,-3.3 -6.4,-4.8 -4.4,-1.5 -12.1,-1.5 v -3 l 46.3,-13.4 h 0.9 v 18.8 h 0.5 c 5,-6.9 16.7,-19.7 34.9,-19.7 18.2,0 32,12.3 32,37.4 v 53.2 q 0,7.3 1.4,10.9 c 1,2.4 2.6,4.2 5.1,5.4 z M 1552,135.6 c -5.2,11.3 -19.6,35.3 -48.9,35.3 -27.9,0 -51,-22.8 -51,-57 q 0,-16.2 7,-29.7 7,-13.5 19.1,-21.4 12,-7.8 26.5,-7.8 c 28.1,0 42.1,19.8 42.1,40.4 v 4.6 h -69.7 q 0,0.6 0,1.3 c 0,24.8 11.1,48.6 38.8,48.6 21.2,0 30,-11.7 33.5,-15.9 z m -74.4,-43.5 h 43.7 c -0.3,-16.9 -5.3,-31.7 -19.1,-31.8 -13,0 -22.4,12.1 -24.6,31.8 z m -230.9,69.8 q 3.6,1.7 11.3,2.6 v 3.3 h -60.1 v -3.3 q 6.5,-0.9 9.7,-2.6 3.1,-1.8 4.4,-5.4 1.3,-3.6 1.3,-10.9 V 93 q 0,-11.2 -4.9,-16.9 -4.9,-5.7 -13.6,-5.7 c -10.3,0 -16.6,6.2 -22,12.8 v 62.4 q 0,7.3 1.2,10.9 1.1,3.6 4.5,5.4 3.4,1.7 9.8,2.6 v 3.3 h -60.9 v -3.3 q 8.2,-0.9 11.9,-2.6 3.8,-1.8 5.2,-5.4 1.4,-3.6 1.4,-10.9 V 31.8 q 0,-5.9 -1.9,-9.1 -1.9,-3.3 -6.3,-4.8 -4.5,-1.5 -12.2,-1.6 v -3 L 1171.9,0 h 0.9 v 76.2 h 0.5 q 7.5,-10.2 15.8,-15.7 8.3,-5.5 19,-5.5 9.4,0 16.7,4.2 7.2,4.2 11.3,12.6 4.1,8.4 4.1,20.6 v 53.2 q 0,7.3 1.4,10.9 c 0.9,2.4 2.6,4.2 5.1,5.4 z m -128.9,-26 3.2,3.4 c -10,13.8 -31,31.7 -61.1,31.9 -54.5,0.3 -86.3,-36.7 -86.3,-83.5 0,-49.2 38.1,-86 88.4,-86 26.2,0 44.1,6.9 55.1,12.9 V 62 l -4.7,0.1 c -6.4,-25.7 -18.9,-52 -48,-52 -29.2,0 -54.7,27.7 -54.7,75.2 0,45 27.4,72.7 61.9,72.4 25.9,-0.2 39.4,-14.2 46.2,-21.8 z m 324.9,-1.5 c 0,21.4 -17.2,36.5 -41.9,36.5 -12.7,0 -26.6,-4.4 -33.9,-9.1 v -30.2 h 4.9 c 2.5,14.7 11.6,32.9 30.9,32.9 13.2,0 20.1,-6.7 20.1,-15.4 0,-7.8 -4.6,-12.9 -16.1,-18.2 l -16.9,-8.4 q -11.4,-5.8 -17.2,-13.9 -5.7,-8 -5.7,-18.8 c 0,-18.7 15.7,-34.8 41.4,-34.8 13,0 25.8,4.4 30.7,6.3 v 29.4 h -4.9 c -3.5,-20.2 -12.1,-29.3 -28.6,-29.3 -11.3,0 -19.4,6 -19.4,14.8 0,7.8 6.1,14.2 16.8,19 l 16.2,7.7 c 15.4,6.5 23.6,16.1 23.6,31.5 z M 139.7,97 v 41.9 q 0,9.8 2.8,15 2.9,5.3 9.4,7.6 6.6,2.4 19.9,3.1 v 3.2 H 81.2 v -3.2 q 11.5,-0.7 17.2,-3.1 5.8,-2.3 8.1,-7.5 2.3,-5.1 2.3,-15.1 V 35.1 c 0,-21.3 -9.6,-25.7 -24.3,-25.7 -16.1,0 -26,4.3 -26,25 v 116.1 c 0,26.2 -17.1,51.2 -50.8,51.2 q -3.9,0 -7.7,-0.5 v -2.8 c 8,-0.5 14.5,-3.2 19.4,-8.2 q 8.2,-8.3 8.2,-27.2 V 34.4 Q 27.6,24.6 25.3,19.3 22.9,14.1 17.1,11.7 11.3,9.4 0,8.7 V 5.4 h 159.9 c 36.4,0 58.9,18.2 58.9,45.6 0,31.4 -30.8,46 -58.4,46 z m 0,-6.2 h 11.1 c 19,0 35,-11.1 35,-39.6 0,-34.7 -23,-39.5 -34.4,-39.5 h -11.7 z m 695.4,67.8 c 3.8,0 7.2,-1.7 9.4,-3.2 v 5.6 c -4.3,4 -12.3,9.8 -24.4,9.8 -10.1,0 -18.6,-6.4 -20.9,-16.2 h -0.6 c -4,7.5 -16.1,16.9 -29.2,16.9 -15.9,0 -27.5,-10.5 -27.5,-26.6 0,-12.5 8.6,-20.8 22.8,-25.9 l 33.9,-12.1 V 91.2 c 0,-14.3 -10.3,-20.9 -21.5,-20.9 -11.5,0 -22,4.9 -33,16 l -3.3,-3 c 9.7,-15.6 25,-28.3 47.3,-28.3 21.1,0 38,13.8 37.8,36.2 l -0.5,55.9 c 0,7.9 3.3,11.5 9.7,11.5 z m -36.5,-44.4 -13.6,5.5 c -10.6,4.2 -17.4,9 -17.4,20.2 0,9.4 6.6,16 15.8,16 4.9,0 11.9,-3.7 15.2,-7.9 0,0 0,-33.8 0,-33.8 z m 553.2,44.4 c 3.8,0 7.2,-1.8 9.4,-3.2 v 5.6 c -4.3,4 -12.3,9.9 -24.4,9.9 -10.1,0 -18.7,-6.5 -20.9,-16.3 h -0.6 c -4,7.5 -16.1,16.9 -29.3,16.9 -15.8,0 -27.5,-10.5 -27.5,-26.5 0,-12.6 8.6,-20.9 22.9,-25.9 l 33.9,-12.2 V 91.2 c 0,-14.3 -10.4,-20.9 -21.6,-20.9 -11.4,0 -22,4.9 -33,16 l -3.3,-3 c 9.7,-15.6 25.1,-28.3 47.3,-28.3 21.1,0 38.1,13.8 37.8,36.2 l -0.4,55.9 c 0,7.9 3.3,11.5 9.7,11.5 z m -36.5,-44.4 -13.7,5.5 c -10.5,4.2 -17.3,9 -17.3,20.2 0,9.4 6.6,16 15.8,16 4.8,0 11.9,-3.7 15.2,-7.9 0,0 0,-33.8 0,-33.8 z M 714.1,62.7 c 10,7.8 14.4,19 14.4,28.6 0,25.1 -21.5,38.2 -46,38.2 -6.5,0 -12.7,-0.9 -18.4,-2.7 -3.2,2.4 -5.9,5.6 -5.9,9.3 0,8 13.1,9.6 20.8,10 l 26.6,1.9 c 21.3,1.3 34.8,8.9 34.8,27.9 0,24 -28.4,43.8 -69.8,43.8 -24.1,0 -41.3,-8.2 -41.3,-22.8 0,-12.7 7.1,-20 25.1,-28.7 -11.8,-3.4 -14.5,-10.4 -14.5,-17.3 0,-9.4 8.4,-17.8 19.7,-25.8 -13.6,-5.7 -23.2,-17.1 -23.2,-33.8 0,-25.2 21.6,-38.2 46.1,-38.2 11.2,0 20.2,2.5 27.1,6.6 5.2,-10.4 15.3,-22.4 33.6,-22.4 v 21.5 c -9.8,-3 -21.6,-1.5 -29.1,3.9 z m -65.5,124.2 c 0,13.2 15.1,19.2 34.8,19.2 18.8,0 44.2,-8.5 44.2,-22 0,-7.8 -4.4,-9.6 -15.8,-10.5 l -46,-3.4 q -4.1,-0.3 -7.4,-1 c -6.6,5.2 -9.8,10.5 -9.8,17.7 z m 51.5,-95.6 c 0,-21.5 -7.1,-31.8 -17.6,-31.8 -10.6,0 -17.7,10.3 -17.7,31.8 0,21.5 7.1,31.8 17.7,31.8 10.5,0 17.6,-10.3 17.6,-31.8 z" />
</svg>
