<?xml version="1.0" encoding="UTF-8" standalone="no"?>
<svg
   version="1.2"
   viewBox="0 0 1500 495"
   width="1500"
   height="495"
   id="svg1"
   sodipodi:docname="OKTA_BIG.svg"
   xmlns:inkscape="http://www.inkscape.org/namespaces/inkscape"
   xmlns:sodipodi="http://sodipodi.sourceforge.net/DTD/sodipodi-0.dtd"
   xmlns="http://www.w3.org/2000/svg"
   xmlns:svg="http://www.w3.org/2000/svg">
  <defs
     id="defs1" />
  <sodipodi:namedview
     id="namedview1"
     pagecolor="#ffffff"
     bordercolor="#000000"
     borderopacity="0.25"
     inkscape:showpageshadow="2"
     inkscape:pageopacity="0.0"
     inkscape:pagecheckerboard="0"
     inkscape:deskcolor="#d1d1d1" />
  <title
     id="title1">oktaddd-svg</title>
  <style
     id="style1">
		.s0 { fill: #000000 } 
	</style>
  <path
     id="Layer"
     fill-rule="evenodd"
     class="s0"
     d="m 1351.9,369.7 c -58.7,0 -112.7,-49.3 -112.7,-120.5 0,-71.2 53.9,-120.5 112.7,-120.5 32.9,0 61.6,14.6 76.8,38.7 V 133 h 44.8 v 167.7 c 0,15.7 3.4,22.5 17.3,22.5 h 8.4 v 42.4 h -19.5 c -24.5,0 -43.8,-9.8 -47.3,-36.5 -18.1,27.5 -46.8,40.7 -80.5,40.7 z m 77.2,-120.5 c 0,-41.8 -31.7,-75.6 -70.9,-75.6 -39.3,0 -71,33.8 -71,75.6 0,41.8 31.7,75.6 71,75.6 39.2,0 70.9,-33.8 70.9,-75.6 z M 1121.4,54.9 h 46.8 V 133 h 59.6 v 42.4 h -59.6 v 125.3 c 0,16.2 3.4,22.5 19.9,22.5 h 39.7 v 42.4 h -54.5 c -28.3,0 -51.9,-15.8 -51.9,-53.9 z m -213.2,0 H 955 v 167.7 h 14.4 l 63.9,-89.7 h 52.7 l -78.1,106.1 101.7,126.5 h -59.2 L 970.7,265.8 H 955 v 99.7 h -46.8 z m -152,314.8 c -66,0 -119.4,-53.8 -119.4,-120.5 0,-66.6 53.4,-120.4 119.4,-120.4 66.1,0 119.5,53.8 119.5,120.4 0,66.7 -53.4,120.5 -119.5,120.5 z m 71.4,-120.5 c 0,-41.8 -31.9,-75.6 -71.4,-75.6 -39.4,0 -71.3,33.8 -71.3,75.6 0,41.9 31.9,75.7 71.3,75.7 39.5,0 71.4,-33.8 71.4,-75.7 z" />
  <path
     id="path1"
     fill-rule="evenodd"
     class="s0"
     d="m 271.8,3.6 -10.2,125.1 c -4.8,-0.5 -9.6,-0.8 -14.5,-0.8 -6.2,0 -12.2,0.4 -18.1,1.4 l -5.8,-60.7 c -0.1,-1.9 1.4,-3.6 3.3,-3.6 h 10.3 L 231.9,3.7 c -0.2,-1.9 1.3,-3.6 3.1,-3.6 h 33.6 c 2,0 3.5,1.7 3.2,3.5 z m -51.5,127.2 c -10.8,2.4 -21.1,6.4 -30.6,11.6 l -26.2,-55 c -0.8,-1.6 0,-3.7 1.8,-4.4 l 9.7,-3.5 -25.6,-56 c -0.9,-1.7 0,-3.7 1.7,-4.4 L 182.7,7.5 c 1.8,-0.6 3.7,0.5 4.3,2.2 0.1,0 33.3,121.1 33.3,121.1 z M 109.5,44.6 182.2,147 c -9.2,6 -17.6,13.1 -24.7,21.4 l -43.6,-42.8 c -1.3,-1.4 -1.2,-3.6 0.2,-4.8 L 122,114.2 78.8,70.4 C 77.4,69 77.6,66.8 79.1,65.6 L 104.7,44 c 1.5,-1.2 3.6,-0.9 4.7,0.6 z m 42.4,130.6 c -6.6,8.7 -11.9,18.3 -15.9,28.6 L 80.5,178.4 c -1.7,-0.7 -2.4,-2.9 -1.5,-4.5 l 5.2,-9 -55.7,-26.3 c -1.6,-0.8 -2.3,-2.9 -1.4,-4.5 L 43.9,105 c 1,-1.7 3.1,-2.2 4.7,-1.1 z M 7.4,182.9 c 0.3,-2 2.2,-3.1 4,-2.6 L 132.9,212 c -3.1,10.2 -4.9,21.1 -5.2,32.3 L 66.9,239.4 C 65,239.3 63.6,237.5 64,235.6 L 65.8,225.4 4.4,219.6 C 2.5,219.5 1.3,217.7 1.5,215.8 L 7.3,182.7 Z M 2.7,265 127.8,253.5 c 0.5,11.1 2.7,21.9 6.2,32.1 l -58.8,16.2 c -1.8,0.4 -3.7,-0.7 -4,-2.6 L 69.5,289 9.9,304.5 c -1.8,0.4 -3.7,-0.7 -4,-2.6 L 0,268.8 c -0.3,-1.9 1,-3.7 2.9,-3.8 z m 19.6,87 c -1,-1.7 -0.3,-3.7 1.4,-4.5 l 113.4,-53.8 c 4.2,10.1 10,19.6 16.9,28.1 l -49.7,35.4 c -1.5,1.1 -3.7,0.7 -4.7,-1 l -5.2,-9 -50.7,35 c -1.5,1.1 -3.7,0.5 -4.6,-1.1 0,0 -16.9,-29.1 -16.8,-29.1 z m 163,-2.9 -34.6,50.2 c -1.1,1.7 -3.3,1.9 -4.8,0.7 l -8,-6.7 -35.7,50.2 c -1.1,1.5 -3.2,1.8 -4.7,0.6 L 71.7,422.5 c -1.5,-1.2 -1.6,-3.4 -0.2,-4.8 l 88.2,-89.3 c 7.6,7.9 16.2,14.9 25.6,20.7 z m -43,122.7 c -1.8,-0.7 -2.6,-2.8 -1.8,-4.4 l 52.3,-114.2 c 9.6,5 20,8.7 30.9,10.7 l -15.4,59 c -0.4,1.8 -2.5,2.9 -4.2,2.2 L 194.3,421.6 178,481 c -0.6,1.8 -2.5,2.9 -4.3,2.2 L 142.1,471.6 Z M 246.9,366.5 c 6.2,0 12.3,-0.5 18.2,-1.4 l 5.7,60.6 c 0.2,2 -1.3,3.6 -3.3,3.6 h -10.3 l 5,61.3 c 0.3,2 -1.2,3.6 -3.2,3.6 h -33.6 c -1.8,0 -3.3,-1.6 -3.2,-3.6 l 10.2,-125.1 c 4.8,0.7 9.6,1 14.5,1 z M 301,140.7 c -9.6,-4.8 -19.9,-8.5 -30.9,-10.7 l 15.4,-59 c 0.6,-1.8 2.5,-2.9 4.3,-2.2 l 9.7,3.6 16.4,-59.4 c 0.5,-1.8 2.4,-2.9 4.2,-2.2 l 31.6,11.5 c 1.8,0.7 2.6,2.6 1.8,4.4 z m 121.3,-64.2 -88.2,89.3 c -7.5,-8 -16,-15 -25.4,-20.7 l 34.6,-50.2 c 1.1,-1.6 3.2,-2 4.8,-0.7 l 7.9,6.7 35.7,-50.2 c 1.1,-1.5 3.3,-1.8 4.7,-0.6 l 25.8,21.6 c 1.5,1.2 1.5,3.4 0.1,4.8 z M 470,146.9 356.6,200.7 C 352.2,190.5 346.5,181 339.7,172.5 l 49.7,-35.4 c 1.5,-1.2 3.7,-0.7 4.6,1 l 5.3,8.9 50.6,-35 c 1.5,-0.9 3.7,-0.5 4.7,1.1 l 16.9,29.1 c 0.9,1.6 0.4,3.7 -1.4,4.5 z m 18,45.4 5.7,33.1 c 0.3,1.9 -0.9,3.6 -2.8,3.9 l -125.1,11.6 c -0.5,-11.2 -2.7,-21.9 -6.2,-32.1 l 58.8,-16.2 c 1.8,-0.5 3.7,0.7 4,2.6 l 1.7,10.2 59.6,-15.5 c 1.8,-0.4 3.7,0.7 4,2.6 z m -5.8,121.3 -121.5,-31.7 c 3.2,-10.3 5,-21.1 5.3,-32.4 l 60.8,4.9 c 1.9,0.3 3.1,2 2.9,3.9 l -1.8,10.1 61.3,5.8 c 2,0.3 3.2,1.9 2.9,3.9 l -5.7,33 c -0.3,1.9 -2.2,3 -4,2.6 z m -32.3,75.6 c -0.9,1.7 -3.1,2.1 -4.7,1.1 L 341.9,319 c 6.6,-8.7 11.9,-18.3 15.9,-28.6 l 55.5,25.4 c 1.7,0.8 2.4,2.9 1.5,4.6 l -5.2,8.9 55.7,26.3 c 1.6,0.8 2.3,2.9 1.4,4.5 z M 311.5,347.1 c 9.2,-5.9 17.4,-13.2 24.7,-21.4 l 43.5,42.8 c 1.4,1.4 1.4,3.6 -0.1,4.8 l -8,6.6 43.3,43.8 c 1.2,1.4 1.2,3.6 -0.3,4.8 L 388.9,450 c -1.4,1.3 -3.6,1 -4.7,-0.5 L 311.6,347.1 Z M 311,486.5 c -1.8,0.7 -3.7,-0.4 -4.3,-2.2 l -33.2,-121 c 10.8,-2.5 21.1,-6.4 30.6,-11.7 l 26.2,55.1 c 0.9,1.8 0,3.8 -1.8,4.4 l -9.7,3.5 25.7,56 c 0.8,1.8 0,3.7 -1.8,4.4 l -31.6,11.5 z" />
</svg>
