<?xml version="1.0" encoding="UTF-8" standalone="no"?>
<svg
   version="1.2"
   viewBox="0 0 1626 368"
   width="1626"
   height="368"
   id="svg2"
   sodipodi:docname="SNOW_BIG.svg"
   xmlns:inkscape="http://www.inkscape.org/namespaces/inkscape"
   xmlns:sodipodi="http://sodipodi.sourceforge.net/DTD/sodipodi-0.dtd"
   xmlns="http://www.w3.org/2000/svg"
   xmlns:svg="http://www.w3.org/2000/svg">
  <sodipodi:namedview
     id="namedview2"
     pagecolor="#ffffff"
     bordercolor="#000000"
     borderopacity="0.25"
     inkscape:showpageshadow="2"
     inkscape:pageopacity="0.0"
     inkscape:pagecheckerboard="0"
     inkscape:deskcolor="#d1d1d1" />
  <defs
     id="defs1">
    <clipPath
       clipPathUnits="userSpaceOnUse"
       id="cp1">
      <path
         d="M 1,0 H 1625.47 V 367.11 H 1 Z"
         id="path1" />
    </clipPath>
  </defs>
  <style
     id="style1">.a{fill:#29b5e8}</style>
  <g
     clip-path="url(#cp1)"
     id="g2">
    <path
       fill-rule="evenodd"
       class="a"
       d="m 1005.9,114.9 c 3.6,1.5 5.8,5 5.8,8.7 q 0,1.8 -0.7,3.5 l -45.1,120.4 v 0.1 c -0.8,1.8 -2,3.4 -3.5,4.5 -0.7,0.5 -1.5,1 -2.5,1.4 -0.9,0.4 -2,0.6 -3.2,0.6 h -1.2 c -1.7,-0.3 -3.3,-0.9 -4.7,-2 -1.4,-1 -2.5,-2.4 -3.2,-4.2 l -28.8,-67.8 -28.8,68.1 -0.1,0.1 c -0.7,1.8 -1.9,3.2 -3.4,4.2 -1.5,0.9 -3.2,1.6 -5.1,1.6 -1.4,0 -2.5,-0.4 -3.3,-0.7 -0.5,-0.1 -1,-0.2 -1.4,-0.5 q -0.5,-0.3 -0.7,-0.5 c -0.8,-0.5 -1.6,-1 -2.1,-1.6 -0.7,-0.9 -1.2,-1.8 -1.6,-2.7 l -45.5,-121 h 0.1 q -0.7,-1.7 -0.7,-3.5 c 0,-3.7 2.1,-7.1 5.5,-8.7 l 0.1,-0.1 c 1.2,-0.5 2.4,-0.7 3.7,-0.7 1.9,0 3.7,0.6 5.3,1.6 1.6,1 2.9,2.5 3.5,4.4 h 0.1 l 36.9,99.7 28.4,-66.9 c 0.8,-1.9 2.2,-3.3 3.8,-4.3 1.6,-1 3.4,-1.6 5.3,-1.6 2,0 3.9,0.5 5.5,1.5 1.6,1.1 3.1,2.5 3.8,4.4 h 0.1 l 28.3,66.8 36.8,-99.7 c 0.8,-1.9 2.1,-3.3 3.7,-4.3 1.6,-1 3.4,-1.6 5.3,-1.6 1.2,0 2.4,0.2 3.5,0.7 q 0,0 0,0 z M 817.4,184 c 0,19 -7.4,36.5 -19.5,49.3 -12.1,12.8 -29,20.9 -47.7,20.9 -18.6,0 -35.5,-8.1 -47.6,-20.9 C 690.5,220.5 683,203 683,184 c 0,-19 7.5,-36.5 19.6,-49.3 12.1,-12.8 29,-20.8 47.6,-20.8 18.7,0 35.6,8 47.7,20.8 12.1,12.8 19.5,30.3 19.5,49.3 z m -33.6,-36.3 c -8.8,-9.4 -20.7,-15 -33.6,-15 -13,0 -24.9,5.6 -33.7,15 -8.8,9.2 -14.3,22.1 -14.3,36.3 0,14.2 5.5,27 14.3,36.2 8.8,9.3 20.7,14.9 33.7,14.9 12.9,0 24.9,-5.6 33.6,-14.9 8.8,-9.2 14.3,-22 14.3,-36.2 0,-14.2 -5.5,-27.1 -14.3,-36.3 z M 606.4,114.1 c 32.2,0.1 58.1,26 58.1,57.6 v 73 c 0,2.6 -1.1,5.1 -2.9,6.8 -1.7,1.7 -4.1,2.7 -6.7,2.7 -2.6,0 -5,-1 -6.8,-2.7 -1.7,-1.7 -2.8,-4.2 -2.8,-6.8 v -73 c 0,-10.6 -4.3,-20.2 -11.3,-27.2 -7.1,-7 -16.7,-11.3 -27.6,-11.3 -10.6,0 -20.3,4.3 -27.3,11.3 -7.1,7 -11.5,16.6 -11.8,27.3 v 74.3 0.3 c -0.2,0.6 -0.4,1.3 -0.6,2 -0.3,0.7 -0.7,1.3 -1.2,2 q -0.1,0.1 -0.2,0.1 c -0.1,0.1 -0.1,0.2 -0.2,0.3 -0.9,1.1 -1.9,1.9 -3,2.5 -1.3,0.6 -2.7,0.9 -4.1,0.9 h -2.1 l -0.4,-0.2 c -2.6,-0.7 -4.8,-2.5 -6.1,-4.7 -0.3,-0.5 -0.5,-0.9 -0.6,-1.4 h -0.1 l -0.3,-0.4 V 123.7 c 0,-2.6 1,-5 2.7,-6.7 1.7,-1.8 4.2,-2.9 6.9,-2.9 2.6,0 5.1,1.2 6.7,2.9 1.7,1.8 2.6,4.1 2.6,6.7 v 5.5 c 10.3,-9.3 24.1,-15.1 39.1,-15.1 z m 969.9,65.4 v 0.9 c 0,2.7 -1.2,5.1 -3,6.6 -1.8,1.6 -4.1,2.4 -6.6,2.4 h -108.1 c 2.8,26.2 23.8,45.5 49,45.7 h 6.3 c 8.3,0 16.4,-2.9 23.6,-7.6 7.1,-4.6 13.3,-11.2 17.6,-18.3 0.9,-1.6 2.2,-2.7 3.6,-3.4 1.4,-0.8 2.9,-1.2 4.5,-1.2 1.7,0 3.4,0.5 4.9,1.4 h 0.1 l 0.1,0.1 c 2.7,2 4.4,5 4.4,8.3 0,1.6 -0.4,3.3 -1.4,4.9 v 0.1 c -6.1,9.5 -14.3,18.2 -24.1,24.5 -9.7,6.3 -21.1,10.3 -33.3,10.3 h -6.4 c -19,-0.2 -36.1,-8.1 -48.5,-20.8 -12.3,-12.7 -19.9,-30 -19.9,-49.1 0,-19.4 7.7,-37.1 20.1,-49.8 12.4,-12.7 29.7,-20.6 48.8,-20.6 18.2,0 34.6,7.2 46.8,18.9 12.1,11.8 20.1,28.2 21.5,46.6 z m -21.1,-9.1 c -5.5,-22 -25,-37.7 -47.3,-37.6 -22.8,0 -42,15.3 -48,37.6 z M 1133.3,56.2 c 5.4,0 9.8,4.3 9.9,9.5 v 178.9 c -0.1,5.3 -4.5,9.5 -9.9,9.5 -2.7,0 -5.1,-1.1 -6.8,-2.8 -1.8,-1.7 -2.9,-4.1 -2.9,-6.7 V 65.7 c 0,-2.6 1.1,-5 2.9,-6.7 1.7,-1.7 4.1,-2.8 6.8,-2.8 z M 503.8,180.6 c 7.8,3.6 14.6,8.3 18.8,15.4 2.8,4.6 4.3,10.4 4.3,17.1 0,12.2 -6,23.1 -15.8,30.4 -10,7.3 -21.9,10.4 -35.6,10.4 -8.9,-0.1 -20.5,-2.4 -29.6,-6.6 q -6.1,-2.9 -10.6,-5.8 c -2.9,-2 -5.2,-4 -6.7,-6.3 -1.1,-1.5 -1.8,-3.2 -1.8,-5.1 q 0,-1.7 0.8,-3.2 c 0.5,-1.1 1.2,-2 2.1,-2.8 0.6,-0.6 1.3,-1 2.1,-1.4 0.8,-0.3 1.6,-0.4 2.4,-0.4 1.3,0 2.4,0.3 3.5,0.7 1.1,0.5 2.1,1 3.2,1.6 2.2,1.3 4.7,2.7 7.7,4.3 6.1,2.9 14.4,5.9 26.9,5.9 3.5,0 9,-0.8 14.3,-2.6 5.3,-1.9 10.3,-4.9 13.3,-8.9 2,-2.7 3.2,-5.9 3.2,-10 v -0.2 c 0,-2.8 -0.9,-5 -2.4,-7.1 -1.5,-2.1 -3.8,-4 -6.6,-5.8 -5.7,-3.4 -13.4,-6.1 -20.7,-8.5 -5.2,-1.7 -13.4,-3.5 -21.6,-6.5 -8.3,-3 -16.7,-7.2 -22.3,-14.3 -3.7,-4.7 -6.1,-10.7 -6.1,-18 q 0,-0.5 0,-1 c 0.2,-7.6 1.8,-13.3 4.7,-18 2.8,-4.7 6.8,-8.1 11.3,-11.2 8.7,-5.9 20.6,-9.1 34.9,-9.1 6.2,0 12.6,1.8 18.7,4.5 6,2.7 11.6,6.3 15.8,10 2.9,2.5 5.1,5 6.6,7.6 0.7,1.5 1.3,3.1 1.3,4.8 q 0,1.4 -0.6,2.8 c -0.4,0.8 -1,1.6 -1.7,2.3 -0.7,0.6 -1.5,1.1 -2.3,1.5 -0.9,0.3 -1.8,0.5 -2.7,0.5 -1.4,0 -2.7,-0.5 -3.8,-1 -1.1,-0.6 -2.1,-1.3 -3.2,-2.1 -2.1,-1.6 -4.3,-3.5 -6.9,-5.4 -5.3,-3.7 -12.2,-7.3 -23.2,-7.4 -3.6,0 -8.8,0.9 -13.6,2.8 -4.8,1.9 -9.2,4.8 -11.9,8.6 -1.7,2.5 -2.7,5.3 -2.7,8.8 0,2.6 0.7,4.5 2.3,6.3 1.4,1.9 3.7,3.5 6.7,5.1 5.8,3 14.1,5.3 22.1,8.1 8.8,2.8 17.7,5.5 25.4,9.2 z m 793.9,-57.3 v 121.3 c 0,2.6 -1.2,5 -2.9,6.7 -1.7,1.7 -4.1,2.8 -6.7,2.8 -2.7,0 -5.1,-1.1 -6.8,-2.8 -1.8,-1.7 -2.9,-4.1 -2.9,-6.7 v -11.8 c -12.1,12.9 -29.1,21.3 -47.9,21.3 -18.8,0 -35.6,-8 -47.7,-20.7 -12.1,-12.8 -19.6,-30.3 -19.6,-49.4 0,-19.2 7.5,-36.7 19.6,-49.4 12.1,-12.8 28.9,-20.8 47.7,-20.8 18.8,0 35.8,8.2 47.9,21.1 v -11.6 c 0,-2.6 1.1,-5.1 2.9,-6.8 1.8,-1.7 4.2,-2.7 6.8,-2.7 2.5,0 4.9,1 6.7,2.7 1.8,1.7 2.9,4.2 2.9,6.8 z m -33.5,24.2 c -8.7,-9.2 -20.6,-14.9 -33.7,-14.9 -13,0 -24.9,5.7 -33.7,14.9 -8.8,9.3 -14.3,22.1 -14.3,36.5 0,14.3 5.5,27.1 14.3,36.3 8.7,9.2 20.7,14.7 33.7,14.7 13.1,0 25,-5.5 33.8,-14.7 8.7,-9.2 14.1,-22 14.1,-36.3 0,-14.4 -5.4,-27.2 -14.2,-36.5 z m 166.4,-18.7 -50.3,48.2 50.8,61.3 c 1.6,1.9 2.4,4.1 2.4,6.4 0,2.6 -1.1,5.2 -3.1,7.2 l -0.1,0.1 -0.1,0.1 c -2.2,1.7 -4.6,2 -6.3,2 -1.3,0 -2.7,-0.2 -4.1,-0.7 -1.3,-0.5 -2.6,-1.5 -3.5,-2.8 l -50,-59.8 -24.5,24.3 v 29.5 c 0,5.3 -4.4,9.5 -9.9,9.5 -2.6,0 -5,-1.1 -6.7,-2.8 -1.8,-1.7 -2.9,-4.1 -2.9,-6.7 V 65.7 c 0,-2.6 1.1,-5 2.9,-6.7 1.7,-1.7 4.1,-2.8 6.7,-2.8 5.5,0 9.9,4.3 9.9,9.5 v 122.2 l 75.3,-72.7 c 1.8,-1.8 4.3,-2.8 6.7,-2.8 2.5,0 4.9,1 6.7,2.8 h 0.1 q 0,0 0,0 c 0,0 0.1,0 0.1,0.1 1.9,1.8 2.9,4.2 2.9,6.6 0,2.5 -1,5 -2.9,6.9 z M 1093.5,56.6 c 5.4,0 9.8,4.4 9.8,9.7 0,5.4 -4.4,9.8 -9.8,9.8 h -2.1 c -0.4,0 -0.6,-0.1 -0.9,-0.1 -0.3,0 -0.5,0.1 -0.8,0.1 h -0.5 c -4.2,0 -7.4,0.4 -9.6,1.2 -2.3,0.7 -3.7,1.7 -4.7,2.8 -1.1,1.3 -2.3,3.4 -3.2,6.7 -0.9,3.2 -1.5,7.7 -1.6,13.8 v 13.6 h 16.4 c 5.3,0 9.5,4.1 9.6,9.1 v 0.4 c 0,2.7 -1.1,5.1 -2.9,6.9 -1.7,1.8 -4.2,2.9 -6.8,3 h -16.3 v 111.5 c -0.1,5.3 -4.3,9.4 -9.4,9.4 -2.7,0 -5.2,-1 -6.9,-2.7 -1.8,-1.7 -2.9,-4.1 -2.9,-6.7 v -0.3 -111.2 h -15.1 c -2.6,-0.1 -5,-1.3 -6.8,-3.1 -1.7,-1.8 -2.8,-4.3 -2.8,-7 0,-5.1 4.2,-9.3 9.5,-9.3 h 15.2 v -13.7 c 0.1,-7 0.7,-13.3 2.1,-18.8 1.5,-5.5 3.9,-10.3 7.6,-14.3 v -0.1 0.1 c 3.6,-4.1 8.1,-6.8 13.1,-8.5 5,-1.6 10.4,-2.3 16,-2.3 q 0.4,0.1 0.8,0.1 c 0.3,0 0.6,-0.1 0.9,-0.1 z M 124.1,190.3 c -1.7,5.3 -5.3,10 -10.5,13 L 35.5,248 c -11,6.3 -25.1,2.6 -31.4,-8.3 -6.4,-10.9 -2.6,-24.8 8.4,-31.2 l 43.6,-24.9 -43.6,-25 c -11,-6.3 -14.8,-20.2 -8.4,-31.1 6.3,-11 20.4,-14.7 31.4,-8.4 l 78.1,44.7 c 5.5,3.1 9.1,8.1 10.7,13.7 0.5,1.8 0.7,3.6 0.8,5.4 0.1,2.4 -0.2,5 -1,7.4 z m 21.2,41.9 c 11.9,0.8 21.2,10.7 21.2,22.7 v 89.4 c 0,12.6 -10.3,22.8 -22.9,22.8 -12.8,0 -23.1,-10.2 -23.1,-22.8 v -50 l -43.7,25 c -11,6.4 -25.1,2.6 -31.4,-8.3 -6.4,-10.9 -2.6,-24.9 8.4,-31.2 l 78.1,-44.6 c 4.2,-2.5 8.9,-3.4 13.4,-3 z m 80,-97.2 C 213.4,134.1 204,124.2 204,112.2 V 22.8 C 204,10.2 214.3,0 227,0 c 12.7,0 23,10.2 23,22.8 v 50.1 l 43.8,-25.1 c 11,-6.3 25,-2.6 31.4,8.3 6.3,11 2.6,24.9 -8.4,31.2 L 238.6,132 c -4.2,2.4 -8.8,3.3 -13.3,3 z M 53.8,87.3 C 42.8,81 39,67.1 45.4,56.1 51.7,45.2 65.8,41.5 76.8,47.8 l 43.7,25.1 V 22.8 C 120.5,10.2 130.8,0 143.6,0 c 12.6,0 22.9,10.2 22.9,22.8 v 89.4 c 0,12 -9.3,21.9 -21.2,22.8 -4.5,0.3 -9.2,-0.6 -13.4,-3 z m 140.4,137.2 c -1,0.9 -2.8,1.7 -4.1,1.7 h -9.6 c -1.3,0 -3.1,-0.8 -4,-1.7 L 144,192.3 c -0.9,-0.9 -1.7,-2.7 -1.7,-4 v -9.5 c 0,-1.3 0.8,-3.1 1.7,-4 l 32.5,-32.2 c 0.9,-0.9 2.7,-1.7 4,-1.7 h 9.6 c 1.3,0 3.1,0.8 4.1,1.7 l 32.4,32.2 c 1,0.9 1.7,2.7 1.7,4 v 9.5 c 0,1.3 -0.7,3.1 -1.7,4 z m 6.6,-41 c 0,-1.3 -0.8,-3.1 -1.8,-4.1 l -9.4,-9.3 c -0.9,-0.9 -2.7,-1.7 -4,-1.7 h -0.4 c -1.3,0 -3.1,0.8 -4,1.7 l -9.4,9.3 c -1,1 -1.7,2.8 -1.7,4.1 v 0.3 c 0,1.3 0.7,3.1 1.7,4 l 9.4,9.3 c 0.9,1 2.7,1.7 4,1.7 h 0.4 c 1.3,0 3.1,-0.7 4,-1.7 l 9.4,-9.3 c 1,-0.9 1.8,-2.7 1.8,-4 z M 316.9,280 c 11,6.3 14.7,20.2 8.4,31.2 -6.3,10.8 -20.4,14.6 -31.4,8.3 l -43.7,-25.1 v 50 c 0,12.7 -10.3,22.9 -23.1,22.9 -12.7,0 -23,-10.2 -23,-22.9 V 255 c 0,-12 9.4,-21.8 21.3,-22.7 4.5,-0.4 9.2,0.6 13.4,3 z m -2.4,-96.2 43.7,24.9 c 11,6.3 14.7,20.2 8.4,31.2 -6.4,10.9 -20.4,14.6 -31.4,8.3 L 257,203.5 c -5.2,-3 -8.8,-7.8 -10.4,-13.1 -0.8,-2.4 -1.1,-4.9 -1,-7.4 q 0,-2.7 0.8,-5.4 c 1.5,-5.5 5.2,-10.5 10.6,-13.6 l 78.2,-44.7 c 11,-6.3 25,-2.6 31.4,8.3 6.3,10.9 2.6,24.8 -8.4,31.1 z m 1288.3,-46.6 c -14,0 -22.4,-10.6 -22.4,-23 0,-12.5 8.4,-23 22.4,-23 14.2,0 22.7,10.5 22.7,23 0,12.5 -8.5,23 -22.7,23 z m 0,-41.8 c -10.7,0 -17.9,7.7 -17.9,18.8 0,10.6 7.2,18.8 17.9,18.8 11,0 18.2,-8.1 18.2,-18.8 0,-10.7 -7.2,-18.8 -18.2,-18.8 z m -8.8,8.4 h 9.6 c 5.3,0 8.8,2.9 8.8,7.3 0,2.8 -1.4,4.9 -3.5,6.2 l 3.8,5.4 v 1.1 h -5.5 l -3.7,-5.3 h -4.2 v 5.3 h -5.3 z m 5.3,4.8 v 5.3 h 4.2 c 2,0 3.3,-0.9 3.3,-2.6 0,-1.8 -1.2,-2.7 -3.3,-2.7 z"
       id="path2" />
  </g>
</svg>
