<?xml version="1.0" encoding="UTF-8" standalone="no"?>
<svg
   version="1.2"
   viewBox="0 0 1550 160"
   width="1550"
   height="160"
   id="svg1"
   sodipodi:docname="TSLA_BIG.svg"
   xmlns:inkscape="http://www.inkscape.org/namespaces/inkscape"
   xmlns:sodipodi="http://sodipodi.sourceforge.net/DTD/sodipodi-0.dtd"
   xmlns="http://www.w3.org/2000/svg"
   xmlns:svg="http://www.w3.org/2000/svg">
  <defs
     id="defs1" />
  <sodipodi:namedview
     id="namedview1"
     pagecolor="#ffffff"
     bordercolor="#000000"
     borderopacity="0.25"
     inkscape:showpageshadow="2"
     inkscape:pageopacity="0.0"
     inkscape:pagecheckerboard="0"
     inkscape:deskcolor="#d1d1d1" />
  <title
     id="title1">TSLA</title>
  <style
     id="style1">
		.s0 { fill: #000000 } 
	</style>
  <path
     class="s0"
     d="m 0,1.5 c 1,3.8 2.5,7.4 4.4,10.9 1.9,3.4 4.3,6.5 7.1,9.3 2.8,2.8 6,5.2 9.4,7.1 3.4,2 7.1,3.5 10.9,4.5 h 49.9 l 2.3,0.4 v 125.4 h 30.8 V 34.2 l 3.2,-1.4 h 49.9 c 3.8,-1 7.5,-2.5 10.9,-4.4 3.4,-2 6.5,-4.4 9.3,-7.2 2.8,-2.8 5.2,-5.9 7.1,-9.3 2,-3.4 3.5,-7.1 4.5,-10.9 H 0 Z m 1082.8,0 h -30.9 v 158.1 h 141.6 c 3.3,-1.3 6.5,-2.9 9.5,-5 2.9,-2 5.6,-4.4 7.9,-7.1 2.4,-2.7 4.4,-5.6 6.1,-8.8 1.6,-3.2 2.9,-6.5 3.7,-10 H 1083.2 V 1 Z M 845.5,32.4 C 861.8,27.9 875.4,15.2 879.1,1.1 L 706.2,1.5 v 93.6 h 141.1 v 32.7 H 736.6 c -4.2,1.1 -8.3,2.7 -12.2,4.6 -3.9,2 -7.6,4.4 -11,7.1 -3.4,2.7 -6.5,5.8 -9.2,9.2 -2.8,3.4 -5.1,7.1 -7.1,10.9 H 878.2 V 64.2 H 736.6 V 32.4 Z m 527.3,127.2 h 30.4 V 96 h 111.6 v 63.6 h 30.4 V 64.2 H 1372.8 Z M 387.1,32.9 h 118 c 3.9,-0.9 7.6,-2.4 11.1,-4.3 3.5,-1.9 6.7,-4.3 9.5,-7.1 2.8,-2.8 5.2,-5.9 7.2,-9.4 2,-3.4 3.5,-7.2 4.4,-11 H 355.4 c 0.9,3.8 2.4,7.5 4.3,10.9 2,3.5 4.4,6.6 7.1,9.4 2.8,2.8 6,5.2 9.4,7.1 3.4,2 7.1,3.4 10.9,4.4 z m 0,62.7 h 118 c 3.9,-0.9 7.6,-2.4 11.1,-4.3 3.5,-1.9 6.7,-4.3 9.5,-7.1 2.8,-2.8 5.2,-6 7.2,-9.4 2,-3.5 3.5,-7.2 4.4,-11 H 355.4 c 0.9,3.8 2.4,7.5 4.3,10.9 2,3.5 4.4,6.6 7.1,9.4 2.8,2.8 6,5.2 9.4,7.1 3.4,2 7.1,3.4 10.9,4.4 z m 0,64 h 118 c 3.9,-0.9 7.6,-2.3 11.1,-4.2 3.5,-2 6.7,-4.4 9.5,-7.1 2.8,-2.8 5.2,-6 7.2,-9.5 2,-3.4 3.5,-7.1 4.4,-11 H 355.4 c 0.9,3.9 2.4,7.5 4.3,11 2,3.4 4.4,6.6 7.1,9.4 2.8,2.7 6,5.1 9.4,7.1 3.4,1.9 7.1,3.4 10.9,4.3 z M 1400,32.9 h 118 c 3.8,-1 7.5,-2.4 10.9,-4.4 3.5,-1.9 6.6,-4.3 9.4,-7.1 2.8,-2.8 5.2,-5.9 7.1,-9.4 2,-3.4 3.4,-7.1 4.4,-10.9 h -181.5 c 0.9,3.8 2.4,7.5 4.3,10.9 1.9,3.5 4.3,6.6 7.1,9.4 2.8,2.8 6,5.2 9.4,7.1 3.4,2 7.1,3.4 10.9,4.4 z"
     id="path1" />
</svg>
