<?xml version="1.0" encoding="UTF-8" standalone="no"?>
<svg
   version="1.2"
   viewBox="0 0 1627 565"
   width="1627"
   height="565"
   id="svg3"
   sodipodi:docname="UBER.svg"
   xmlns:inkscape="http://www.inkscape.org/namespaces/inkscape"
   xmlns:sodipodi="http://sodipodi.sourceforge.net/DTD/sodipodi-0.dtd"
   xmlns="http://www.w3.org/2000/svg"
   xmlns:svg="http://www.w3.org/2000/svg">
  <defs
     id="defs3" />
  <sodipodi:namedview
     id="namedview3"
     pagecolor="#ffffff"
     bordercolor="#000000"
     borderopacity="0.25"
     inkscape:showpageshadow="2"
     inkscape:pageopacity="0.0"
     inkscape:pagecheckerboard="0"
     inkscape:deskcolor="#d1d1d1" />
  <title
     id="title1">Uber_logo_2018-svg</title>
  <style
     id="style1">
		tspan { white-space:pre }
		.shp0 { fill: #010202 } 
	</style>
  <g
     id="g3">
    <path
       id="Layer"
       class="shp0"
       d="m 93.6,403.24 c 6.87,18.24 16.39,33.83 28.55,46.78 12.17,12.96 26.58,22.87 43.23,29.74 16.66,6.87 34.77,10.31 54.34,10.31 19.03,0 36.88,-3.57 53.54,-10.71 16.66,-7.14 31.2,-17.18 43.62,-30.13 12.43,-12.95 22.08,-28.42 28.96,-46.39 6.87,-17.97 10.31,-38.06 10.31,-60.27 V 0 h 83.28 v 555.09 h -82.49 v -51.54 c -18.51,19.56 -40.32,34.62 -65.44,45.2 -25.12,10.57 -52.22,15.86 -81.3,15.86 -29.62,0 -57.24,-5.16 -82.89,-15.47 C 101.66,538.84 79.45,524.17 60.68,505.13 41.91,486.1 27.1,463.24 16.26,436.54 5.42,409.84 0,380.11 0,347.33 V 0 h 83.29 v 342.57 c 0,22.21 3.43,42.43 10.31,60.67 z" />
    <path
       id="path1"
       fill-rule="evenodd"
       class="shp0"
       d="m 583,0 v 202.21 c 18.5,-18.5 39.92,-33.17 64.25,-44.01 24.32,-10.84 50.76,-16.26 79.32,-16.26 29.61,0 57.37,5.55 83.28,16.66 25.91,11.1 48.38,26.17 67.42,45.2 19.04,19.03 34.11,41.5 45.22,67.4 11.1,25.91 16.65,53.4 16.65,82.47 0,29.08 -5.55,56.44 -16.65,82.08 -11.11,25.64 -26.18,47.97 -45.22,67 -19.04,19.04 -41.51,34.1 -67.42,45.21 -25.91,11.1 -53.67,16.65 -83.28,16.65 -28.56,0 -55.13,-5.42 -79.72,-16.26 -24.59,-10.84 -46.14,-25.51 -64.65,-44.01 v 50.75 H 502.88 V 0 Z m 9.12,408.39 c 7.14,16.92 17.05,31.72 29.74,44.41 12.69,12.69 27.5,22.73 44.42,30.13 16.92,7.4 35.17,11.1 54.73,11.1 19.04,0 37.02,-3.7 53.94,-11.1 16.92,-7.4 31.59,-17.44 44.02,-30.13 12.43,-12.69 22.35,-27.49 29.75,-44.41 7.4,-16.92 11.1,-35.15 11.1,-54.72 0,-19.56 -3.7,-37.93 -11.1,-55.11 -7.4,-17.18 -17.32,-32.12 -29.75,-44.8 -12.42,-12.69 -27.1,-22.6 -44.02,-29.74 -16.92,-7.14 -34.9,-10.71 -53.94,-10.71 -19.03,0 -37.01,3.57 -53.93,10.71 -16.92,7.14 -31.73,17.05 -44.42,29.74 -12.69,12.68 -22.74,27.62 -30.14,44.8 -7.41,17.18 -11.11,35.55 -11.11,55.11 0,19.57 3.57,37.8 10.71,54.72 z" />
    <path
       id="path2"
       fill-rule="evenodd"
       class="shp0"
       d="m 984.35,272 c 10.57,-25.38 25.12,-47.71 43.62,-67.01 18.51,-19.3 40.46,-34.5 65.84,-45.6 25.38,-11.1 52.88,-16.65 82.49,-16.65 29.09,0 56.06,5.29 80.91,15.86 24.85,10.57 46.27,25.24 64.25,44.01 17.98,18.77 31.99,40.97 42.04,66.61 10.04,25.64 15.07,53.53 15.07,83.66 v 26.17 h -329.18 c 2.65,16.39 7.93,31.59 15.86,45.6 7.94,14.01 17.85,26.17 29.75,36.48 11.9,10.31 25.38,18.37 40.45,24.18 15.07,5.82 31.07,8.73 47.99,8.73 48.12,0 86.99,-19.83 116.6,-59.48 l 57.91,42.82 c -20.1,26.96 -44.95,48.11 -74.56,63.44 -29.62,15.33 -62.93,23 -99.95,23 -30.14,0 -58.3,-5.29 -84.47,-15.86 -26.18,-10.57 -48.92,-25.38 -68.22,-44.41 -19.3,-19.03 -34.5,-41.37 -45.61,-67.01 -11.1,-25.64 -16.65,-53.53 -16.65,-83.66 -0.01,-28.55 5.28,-55.51 15.86,-80.88 z m 111.44,-31.33 c -22.47,18.77 -37.41,43.75 -44.81,74.94 h 246.68 c -6.87,-31.19 -21.55,-56.17 -44.02,-74.94 -22.47,-18.76 -48.78,-28.15 -78.92,-28.15 -30.15,0 -56.45,9.39 -78.93,28.15 z" />
    <path
       id="path3"
       class="shp0"
       d="m 1528.48,249.79 c -16.92,18.5 -25.38,43.62 -25.38,75.34 v 229.96 h -80.12 V 150.67 h 79.32 v 49.96 c 10.05,-16.39 23.14,-29.34 39.26,-38.86 16.13,-9.52 35.3,-14.28 57.51,-14.28 h 27.76 v 74.55 h -33.31 c -26.44,0 -48.12,9.25 -65.04,27.75 z" />
  </g>
</svg>
