<?xml version="1.0" encoding="UTF-8" standalone="no"?>
<svg
   version="1.2"
   viewBox="0 0 1544 365"
   width="1544"
   height="365"
   id="svg2"
   sodipodi:docname="WMT_BIG.svg"
   xmlns:inkscape="http://www.inkscape.org/namespaces/inkscape"
   xmlns:sodipodi="http://sodipodi.sourceforge.net/DTD/sodipodi-0.dtd"
   xmlns="http://www.w3.org/2000/svg"
   xmlns:svg="http://www.w3.org/2000/svg">
  <sodipodi:namedview
     id="namedview2"
     pagecolor="#ffffff"
     bordercolor="#000000"
     borderopacity="0.25"
     inkscape:showpageshadow="2"
     inkscape:pageopacity="0.0"
     inkscape:pagecheckerboard="0"
     inkscape:deskcolor="#d1d1d1" />
  <title
     id="title1">Walmart_logo_(2025;_Alt)</title>
  <defs
     id="defs2">
    <clipPath
       clipPathUnits="userSpaceOnUse"
       id="cp1">
      <path
         d="M 1543.99,0.77 V 365.23 H 1220.54 V 0.77 Z"
         id="path1" />
    </clipPath>
    <clipPath
       clipPathUnits="userSpaceOnUse"
       id="cp2">
      <path
         d="M 1110.7,79.73 V 286.26 H 0 V 79.73 Z"
         id="path2" />
    </clipPath>
  </defs>
  <style
     id="style2">
		.s0 { fill: #ffc220 } 
		.s1 { fill: #0053e2 } 
	</style>
  <g
     id="layer1">
    <g
       id="g353">
      <g
         id="Clip-Path: g18"
         clip-path="url(#cp1)">
        <g
           id="g18">
          <path
             id="path6"
             class="s0"
             d="m 1448.8,166.5 c 7.6,-1.6 74.9,-32.3 80.9,-35.8 13.7,-7.9 18.4,-25.3 10.4,-39 -7.9,-13.7 -25.4,-18.4 -39.1,-10.5 -6,3.5 -66.3,46.2 -71.4,52 -5.9,6.6 -7,16.1 -2.6,23.6 4.4,7.6 13.1,11.5 21.8,9.7 z" />
          <path
             id="path8"
             class="s0"
             d="m 1529.7,234.5 c -6,-3.4 -73.3,-34.2 -80.9,-35.7 -8.7,-1.8 -17.4,2 -21.8,9.6 -4.4,7.5 -3.3,17 2.6,23.6 5.1,5.8 65.4,48.5 71.4,52 13.7,7.9 31.2,3.2 39.1,-10.5 8,-13.6 3.3,-31.1 -10.4,-39 z" />
          <path
             id="path10"
             class="s0"
             d="m 1382.3,234.2 c -8.8,0 -16.5,5.6 -19.3,14 -2.4,7.3 -9.4,80.8 -9.4,87.7 0,15.8 12.8,28.6 28.7,28.6 15.8,0 28.6,-12.8 28.6,-28.6 0,-6.9 -6.9,-80.4 -9.4,-87.7 -2.8,-8.4 -10.5,-14 -19.2,-14 z" />
          <path
             id="path12"
             class="s0"
             d="m 1315.7,198.8 c -7.6,1.5 -74.8,32.3 -80.8,35.7 -13.7,7.9 -18.4,25.4 -10.5,39 7.9,13.7 25.4,18.4 39.1,10.5 6,-3.5 66.3,-46.2 71.5,-52 5.9,-6.6 6.9,-16.1 2.5,-23.6 -4.3,-7.6 -13.1,-11.4 -21.8,-9.6 z" />
          <path
             id="path14"
             class="s0"
             d="m 1263.5,81.2 c -13.7,-7.9 -31.2,-3.2 -39.1,10.5 -7.9,13.7 -3.2,31.1 10.5,39 6,3.5 73.2,34.2 80.8,35.8 8.7,1.8 17.5,-2.1 21.8,-9.7 4.4,-7.5 3.4,-17 -2.5,-23.6 -5.2,-5.8 -65.5,-48.5 -71.5,-52 z" />
          <path
             id="path16"
             class="s0"
             d="m 1382.3,0.8 c -15.8,0 -28.7,12.8 -28.7,28.5 0,7 7,80.4 9.4,87.7 2.8,8.5 10.5,14.1 19.3,14.1 8.7,0 16.4,-5.6 19.2,-14.1 2.5,-7.3 9.4,-80.7 9.4,-87.7 0,-15.7 -12.8,-28.5 -28.6,-28.5 z" />
        </g>
      </g>
      <g
         id="Clip-Path: g34"
         clip-path="url(#cp2)">
        <g
           id="g34">
          <path
             id="path20"
             class="s1"
             d="m 218.5,79.7 -26.7,132.2 -30,-132.2 h -52 L 79.8,211.9 53.1,79.7 H 0 l 43.3,202 h 61.9 l 30.2,-134.1 30.3,134.1 h 60.4 l 43.1,-202 z" />
          <path
             id="path22"
             class="s1"
             d="m 334.2,116.9 c -33,0 -56.2,11.1 -64.6,18.8 v 43.1 c 9.8,-8.6 30.5,-21.2 57.8,-21.2 16.8,0 23.1,4.5 23.1,14 0,8 -8.7,11.3 -33,16.4 -36.7,7.5 -58,20.7 -58,52.2 0,29.1 19.3,46.1 47.4,46.1 23.5,0 37.6,-10.8 45.2,-25.3 v 20.7 h 50.7 v -99.1 c 0,-45.5 -24,-65.7 -68.6,-65.7 z m -7.1,136.8 c -12,0 -18.6,-7.3 -18.6,-17.2 0,-13 10.4,-18.1 23.5,-22.7 6.8,-2.5 13.6,-5.1 18.2,-9.1 V 227 c 0,17 -9,26.7 -23.1,26.7 z" />
          <path
             id="path24"
             fill-rule="evenodd"
             class="s1"
             d="m 474.4,79.7 v 202 h -52.6 v -202 z" />
          <path
             id="path26"
             class="s1"
             d="m 685.4,117.4 c -25.5,0 -42,15.2 -50.6,35.4 -4.6,-21.6 -20,-35.4 -41.5,-35.4 -24.3,0 -40.2,14.1 -48.2,33.8 V 122 h -51.8 v 159.7 h 52.6 v -88.6 c 0,-21.8 7.4,-34.2 23.2,-34.2 12.8,0 17.1,8.6 17.1,22.1 v 100.7 h 52.6 v -88.6 c 0,-21.8 7.4,-34.2 23.2,-34.2 12.8,0 17.1,8.7 17.1,22.1 v 100.7 h 52.6 v -108 c 0,-33.6 -16.1,-56.3 -46.3,-56.3 z" />
          <path
             id="path28"
             class="s1"
             d="m 817.8,116.9 c -33,0 -56.1,11.1 -64.6,18.8 v 43.1 c 9.8,-8.6 30.5,-21.2 57.8,-21.2 16.9,0 23.1,4.5 23.1,14 0,8 -8.7,11.3 -32.9,16.4 -36.8,7.5 -58.1,20.7 -58.1,52.2 0,29.1 19.4,46.1 47.5,46.1 23.5,0 37.5,-10.8 45.2,-25.3 v 20.7 h 50.7 v -99.1 c 0,-45.5 -24,-65.7 -68.7,-65.7 z m -7.1,136.8 c -12,0 -18.5,-7.3 -18.5,-17.2 0,-13 10.4,-18.1 23.4,-22.7 6.9,-2.5 13.7,-5.1 18.3,-9.1 V 227 c 0,17 -9,26.7 -23.2,26.7 z" />
          <path
             id="path30"
             class="s1"
             d="M 955.9,167.1 V 122 H 904.4 V 281.7 H 957 v -67.9 c 0,-31.2 19.7,-39.5 38.5,-39.5 6.2,0 12.2,0.8 14.9,1.6 v -55 c -29.6,-1.4 -47.5,17.3 -54.5,46.2 z" />
          <path
             id="path32"
             class="s1"
             d="M 1110.7,162.4 V 122 h -33.5 V 91 h -52.6 v 137.4 c 0,38.5 22.1,56.5 57.2,56.5 16.4,0 25.1,-3.2 28.9,-5.6 v -40.2 c -3,2.2 -7.9,3.8 -14.2,3.8 -11.7,0.3 -19.3,-4.8 -19.3,-21.8 v -58.7 c 0,0 33.5,0 33.5,0 z" />
        </g>
      </g>
    </g>
  </g>
</svg>
