<?xml version="1.0" encoding="UTF-8" standalone="no"?>
<!-- Generator: Adobe Illustrator 21.0.0, SVG Export Plug-In . SVG Version: 6.00 Build 0)  -->

<svg
   version="1.1"
   id="レイヤー_3"
   x="0px"
   y="0px"
   width="1000"
   height="252.0549"
   viewBox="0 0 1000 252.0549"
   enable-background="new 0 0 156 47"
   xml:space="preserve"
   sodipodi:docname="Yahoo_Japan_Logo.svg"
   inkscape:version="0.92.3 (2405546, 2018-03-11)"
   inkscape:export-filename="yahoo-japan.svg.png"
   inkscape:export-xdpi="11.52"
   inkscape:export-ydpi="11.52"
   xmlns:inkscape="http://www.inkscape.org/namespaces/inkscape"
   xmlns:sodipodi="http://sodipodi.sourceforge.net/DTD/sodipodi-0.dtd"
   xmlns="http://www.w3.org/2000/svg"
   xmlns:svg="http://www.w3.org/2000/svg"
   xmlns:rdf="http://www.w3.org/1999/02/22-rdf-syntax-ns#"
   xmlns:cc="http://creativecommons.org/ns#"
   xmlns:dc="http://purl.org/dc/elements/1.1/"><metadata
   id="metadata13"><rdf:RDF><cc:Work
       rdf:about=""><dc:format>image/svg+xml</dc:format><dc:type
         rdf:resource="http://purl.org/dc/dcmitype/StillImage" /></cc:Work></rdf:RDF></metadata><defs
   id="defs11" /><sodipodi:namedview
   pagecolor="#ffffff"
   bordercolor="#666666"
   borderopacity="1"
   objecttolerance="10"
   gridtolerance="10"
   guidetolerance="10"
   inkscape:pageopacity="0"
   inkscape:pageshadow="2"
   inkscape:window-width="1366"
   inkscape:window-height="705"
   id="namedview9"
   showgrid="false"
   inkscape:zoom="0.80002787"
   inkscape:cx="622.5178"
   inkscape:cy="236.37322"
   inkscape:window-x="-8"
   inkscape:window-y="-8"
   inkscape:window-maximized="1"
   inkscape:current-layer="レイヤー_3"
   inkscape:showpageshadow="2"
   inkscape:pagecheckerboard="0"
   inkscape:deskcolor="#d1d1d1" />
<g
   id="g193"><path
     id="path79"
     d="m 278.08216,35.616306 c -4.79452,0.685 -25.34247,4.79459 -32.19178,6.164316 -7.53425,2.054795 -77.39728,56.849323 -82.1918,69.863158 -0.685,4.10966 0,52.05487 0,52.05487 l 39.72604,2.73966 -1.36987,13.01363 c -5.47945,-0.685 -42.46576,0 -65.7535,0 -11.64384,0 -47.260211,1.36993 -59.589048,0.685 l 1.369863,-12.3287 c 7.534316,0.685 19.178085,-0.685 26.027405,-2.73966 6.84931,-2.05465 12.32876,-4.79459 12.32876,-11.6439 v -41.0959 C 113.69871,104.79447 55.479528,31.506922 40.410896,19.863016 36.301306,18.493016 6.8493159,15.068358 -1.0684001e-7,13.698632 L 1.3698631,1.3699314 H 134.93153 l -2.0548,11.6439056 c -6.16432,1.369932 -34.24658,2.054726 -41.780896,4.109658 19.178086,28.082264 49.315076,65.068502 58.904186,78.767134 5.47945,-7.534316 56.84932,-43.835554 58.21919,-54.794528 -7.53432,-1.369932 -31.50693,-4.79459 -35.61645,-4.79459 l -2.05479,-12.3287 h 115.06851 l -7.53432,11.643906 z"
     style="fill:#ff0132;fill-opacity:1;stroke-width:6.84932"
     inkscape:connector-curvature="0" /><path
     id="path77"
     d="m 563.01378,142.4657 c -21.23295,-1.36993 -58.21919,-0.685 -79.45214,0 l 1.36986,-10.95897 c 3.42466,0 20.54795,-2.73966 24.65761,-3.42466 V 89.725834 c -10.27397,0 -69.17816,1.369932 -78.08213,3.424658 v 34.246578 c 0,0 25.34247,2.73966 30.82192,3.42466 l -1.36993,11.64397 c -22.60275,-1.36993 -68.49316,-1.36993 -90.41097,0 l 1.36986,-12.3287 c 6.84931,0 25.34247,-2.05472 29.45206,-2.73965 0.685,-8.21925 0.685,-21.91788 0.685,-35.616516 v -17.12329 c 0,-6.164316 0,-22.602674 -0.685,-28.767196 -4.79452,0 -26.0274,-2.054726 -31.50692,-2.054726 l 1.36986,-10.958974 c 19.17808,1.369932 77.39727,1.369932 93.15076,0 l -1.36986,10.273974 c -4.79452,0 -25.34247,3.424658 -31.50692,3.424658 v 30.136922 h 78.0822 V 32.191648 c -5.47945,-0.685 -19.86295,-3.424658 -26.0274,-4.109658 l 1.36986,-10.273974 c 13.01364,0.685 65.06851,0.685 78.76714,0 l -0.685,10.958974 c -4.10966,0 -19.17809,2.739658 -24.65761,3.424658 V 129.452 c 0,0 21.91781,2.73966 26.71227,3.42466 l -2.05473,9.58904 z"
     style="fill:#ff0132;fill-opacity:1;stroke-width:6.84932"
     inkscape:connector-curvature="0" /><path
     d="M 973.28773,110.27406 H 952.05479 V -3.0684e-7 H 1000 L 995.89048,16.438358 Z m -16.43828,43.83555 -14.38364,0.685 2.73966,-24.65761 14.38363,0.685 13.69863,-0.685 -2.73965,23.97261 z"
     style="fill:#ff0132;fill-opacity:1;stroke-width:6.84932"
     id="path2"
     inkscape:connector-curvature="0" /><path
     id="path172"
     d="m 838.35547,10.958984 c -56.84932,1.369932 -92.46546,23.288294 -93.15039,61.644532 v 1.36914 c 1.36987,38.356234 36.30107,60.958124 93.15039,62.328124 h 4.10937 c 56.16446,-1.37 91.78248,-23.97243 93.15235,-63.013671 -1.36987,-36.986238 -36.30303,-60.958193 -93.15235,-62.328125 z m -6.16406,17.123047 h 15.06836 c 19.17802,1.369932 54.10992,12.328225 54.79492,45.205078 0,32.876581 -35.61697,45.205621 -54.79492,45.890621 h -15.06836 c -19.17808,-1.36993 -54.11,-13.01376 -54.79493,-45.890621 0.68493,-32.876648 35.61685,-43.835078 54.79493,-45.205078 z"
     style="fill:#ff0132;fill-opacity:1;stroke-width:6.84932"
     inkscape:connector-curvature="0" /><path
     id="path168"
     d="m 645.89062,30.136719 c -54.10951,1.369932 -84.24609,22.603644 -84.24609,57.535156 v 1.369141 c 0,32.876654 32.87624,56.165434 84.24609,57.535154 h 5.47852 c 51.36987,-1.36993 84.24671,-23.28857 84.93164,-57.535154 v -1.369141 c 0,-34.93158 -33.56184,-56.16543 -84.93164,-57.535156 z m -2.74023,15.753906 h 10.95899 c 17.80822,0.685 52.05468,10.273781 52.05468,41.095703 v 2.740234 c 0,30.136918 -34.24648,40.410708 -52.05468,41.095708 H 643.15039 C 625.3421,130.13727 591.0957,120.54848 591.0957,89.726562 v -1.371093 -1.369141 c 0,-30.136922 34.2464,-40.410703 52.05469,-41.095703 z"
     style="fill:#ff0132;fill-opacity:1;stroke-width:6.84932"
     inkscape:connector-curvature="0" /><path
     id="path164"
     d="m 258.9043,55.478516 -0.68555,9.589843 21.91797,5.478516 c 0,0 -32.1917,64.384815 -39.04102,73.289065 -5.47945,1.36993 -19.86227,4.79372 -25.34179,5.47851 l -1.3711,11.64453 c 4.10966,-0.685 60.95994,0 66.43946,0 L 282.19141,150 262.32812,145.20508 c 0,0 8.90358,-18.49411 10.27344,-20.54883 6.16432,-1.36993 43.15235,-2.05469 43.15235,-2.05469 l 13.01367,35.61719 c 0,0 -15.75358,2.74023 -21.91797,2.74023 l -1.37109,11.64454 h 81.50781 l 1.36914,-10.2754 c -4.79453,0.68502 -19.86228,-3.42437 -25.3418,-4.10937 -6.16432,-9.58897 -28.08149,-65.068957 -38.35547,-89.726562 l 18.49219,-2.738282 2.05469,-9.589844 h -28.08203 c -10.27398,0 -54.10909,-5.46e-4 -58.21875,-0.685546 z m 37.67187,15.753906 15.75195,40.412108 h -34.24609 c 2.0548,-4.79459 18.49414,-40.412108 18.49414,-40.412108 z"
     style="fill:#ff0132;fill-opacity:1;stroke-width:6.84932"
     inkscape:connector-curvature="0" /></g><g
   id="g184"><path
     id="path85"
     d="m 642.46577,164.38358 c -2.73966,0.685 -11.64384,3.42466 -14.38363,4.79459 0,8.21925 -1.36986,45.89049 -1.36986,45.89049 -0.685,17.12329 -8.21918,28.76719 -28.08227,36.98624 l -7.53431,-2.05473 c 9.58897,-5.47938 14.38363,-10.95897 15.06849,-15.06856 2.0548,-5.47939 2.73966,-18.49322 2.73966,-41.7809 0,0 0,-17.80829 -0.685,-23.97261 -2.73966,-0.685 -15.0685,-3.42465 -19.17809,-4.10965 v -5.47939 c 7.53432,0 25.34247,0.685 31.50693,0.685 6.84931,0 15.06849,0 21.91781,-0.685 v 4.79459 z"
     style="fill:#ff0132;fill-opacity:1;stroke-width:6.84932"
     inkscape:connector-curvature="0" /><path
     id="path83"
     d="m 962.32876,175.34256 c -1.36973,0.685 -5.47938,1.36993 -9.58897,2.05472 0,6.16432 0.685,50.68487 0.685,60.95885 0,1.36993 -1.36993,2.05472 -3.42466,0.685 -9.58911,-9.58898 -40.41103,-44.52056 -50.68501,-56.84926 0,8.21925 0.68493,39.72597 0.68493,45.20556 4.10966,1.36993 13.01377,3.42466 14.38364,3.42466 l 0.68493,6.16431 H 881.5069 v -6.16431 c 3.42466,-1.36994 6.16445,-2.73966 9.58911,-3.42466 0.68493,-3.42466 0.68493,-47.26021 0.68493,-50.68487 -2.73979,0 -7.53418,-0.685 -10.95883,-0.685 v -7.53432 h 24.65747 c 8.90411,10.27398 30.13705,33.56158 41.09589,45.89049 0,-10.27398 -0.68493,-34.24658 -0.68493,-38.35624 -2.05493,0 -6.16445,-0.685 -10.27397,-1.36993 l -0.685,-6.16432 c 2.05479,0 13.69863,0.685 15.75342,0.685 2.0548,0 11.64384,-0.685 13.69863,-0.685 7e-5,0 -2.05479,6.84932 -2.05479,6.84932 z"
     style="fill:#ff0132;fill-opacity:1;stroke-width:6.84932"
     inkscape:connector-curvature="0" /><path
     id="path81"
     d="m 780.13702,193.83557 c 0,8.21925 -7.53424,11.64391 -16.43835,13.01364 v 6.16431 c 17.80822,-2.05466 29.45205,-8.90397 29.45205,-19.86295 v -0.685 c 0,-12.3287 -8.21918,-23.2876 -27.39726,-23.2876 h -36.98631 l 1.36987,6.84931 c 3.42465,0.685 8.21918,0.685 11.64383,0.685 0,8.21925 1.36987,43.15063 0.68494,53.4246 -2.0548,0.685 -8.90412,2.05473 -11.64384,2.73966 l -0.68493,6.16431 h 42.46576 v -4.79459 c -2.73973,-0.685 -12.32877,-2.73965 -14.38357,-2.73965 0,-2.05473 -0.68493,-51.36987 -0.68493,-54.10953 4.10959,0 10.95891,0 13.69863,0.685 7.53425,2.05473 9.58905,9.58897 9.58905,15.06856"
     style="fill:#ff0132;fill-opacity:1;stroke-width:6.84932"
     inkscape:connector-curvature="0" /><path
     id="path160"
     d="m 698.63086,168.49414 -36.98633,1.36914 v 4.79492 l 9.58789,1.36914 c -6.16439,13.69863 -22.60205,48.63065 -25.3418,52.74024 -2.73964,1.36993 -5.47902,2.0553 -8.21874,2.74023 l -0.68555,5.47852 h 29.45117 v -4.79492 l -8.90234,-2.73829 c 0,0 5.4784,-13.69894 7.5332,-17.80859 h 25.3418 l 6.84961,17.80859 c 0,0 -6.16447,1.3699 -10.95899,2.05469 l -0.68359,4.79492 h 36.98633 l 0.68359,-5.48046 c -3.42466,1.36993 -10.95897,-0.68555 -10.95899,-0.68555 -4.79453,-9.58898 -17.12271,-39.72582 -23.2871,-54.10938 l 9.58984,-2.05468 z m -19.86328,12.32813 10.27344,26.02734 h -21.23243 c 1.36986,-3.42466 10.95899,-26.02734 10.95899,-26.02734 z"
     style="fill:#ff0132;fill-opacity:1;stroke-width:6.84932"
     inkscape:connector-curvature="0" /><path
     id="path158"
     d="m 851.36914,168.49414 -36.30078,1.36914 v 4.79492 l 9.58984,1.36914 c -6.16439,13.69864 -22.60403,48.63065 -25.34375,52.74024 -2.73973,0.685 -5.47903,2.0553 -8.21875,2.74023 l -0.68554,5.47852 c 8.21918,-0.685 26.71339,0 29.45312,0 v -4.79492 l -8.9043,-2.73829 c 0,0 5.48037,-13.69893 7.53516,-17.80859 h 25.3418 l 6.84961,17.80859 c 0,0 -6.16447,1.36989 -10.95899,2.05469 l -0.68554,4.79297 h 36.98632 l 0.68555,-5.47851 c -4.10966,1.36993 -11.64453,-0.68555 -11.64453,-0.68555 -7.53418,-15.75336 -19.86252,-45.89034 -23.28711,-54.10938 l 8.9043,-1.36914 z m -19.86133,12.32813 10.27344,26.02734 h -21.23242 c 1.36986,-3.42466 10.95898,-26.02734 10.95898,-26.02734 z"
     style="fill:#ff0132;fill-opacity:1;stroke-width:6.84932"
     inkscape:connector-curvature="0" /></g>
</svg>
